<svg width="216" height="48" viewBox="0 0 216 48" fill="none" xmlns="http://www.w3.org/2000/svg">
<g clip-path="url(#clip0_306_897)">
<path d="M2.34009 7.01999H24.4301C40.6101 7.01999 47.4301 15.53 47.4301 27.07C47.4301 38.61 40.6001 47.21 24.4301 47.21H14.0701V42.6H2.34009V7.01999ZM23.9301 34.91C30.2501 34.91 32.8601 31.71 32.8601 27.07C32.8601 22.43 30.2501 19.32 23.9301 19.32H14.0701V34.91H23.9301Z" fill="#275F64"/>
<path fill-rule="evenodd" clip-rule="evenodd" d="M0 0H24.43C40.61 0 47.43 8.42 47.43 20.05C47.43 31.68 40.61 40.19 24.43 40.19H22.73H14.07V47.21H0V40.19V39.06V0ZM14.06 27.89H23.92C30.24 27.89 32.85 24.6 32.85 20.05C32.85 15.5 30.24 12.3 23.92 12.3H14.06V27.89Z" fill="#86CFC7"/>
</g>
<path d="M63.094 39.21V16.81H72.15C78.102 16.81 80.694 19.914 80.694 24.298C80.694 28.65 78.102 31.754 72.15 31.754H67.894V39.21H63.094ZM67.894 27.594H71.99C74.614 27.594 75.766 26.282 75.766 24.298C75.766 22.282 74.614 20.97 71.99 20.97H67.894V27.594Z" fill="#F4F7F8"/>
<path d="M87.891 31.85V39.21H83.219V22.57H87.891V26.602H88.019C88.595 24.17 90.163 22.442 92.819 22.442C93.203 22.442 93.619 22.474 94.099 22.602V26.538C93.587 26.474 93.203 26.442 92.787 26.442C90.291 26.442 87.891 27.818 87.891 31.85Z" fill="#F4F7F8"/>
<path d="M103.396 39.53C99.204 39.53 95.044 36.938 95.044 30.89C95.044 24.842 99.204 22.25 103.396 22.25C107.588 22.25 111.748 24.842 111.748 30.89C111.748 36.938 107.588 39.53 103.396 39.53ZM99.428 30.89C99.428 34.186 101.156 35.658 103.396 35.658C105.636 35.658 107.364 34.186 107.364 30.89C107.364 27.594 105.636 26.122 103.396 26.122C101.156 26.122 99.428 27.594 99.428 30.89Z" fill="#F4F7F8"/>
<path d="M114.281 39.21V16.81H122.761C129.737 16.81 133.353 20.81 133.353 28.01C133.353 35.21 129.737 39.21 122.761 39.21H114.281ZM119.081 35.05H122.281C126.857 35.05 128.457 32.938 128.457 28.01C128.457 23.082 126.857 20.97 122.281 20.97H119.081V35.05Z" fill="#F4F7F8"/>
<path d="M143.772 39.53C139.548 39.53 135.388 37.194 135.388 30.858C135.388 24.65 139.324 22.25 143.74 22.25C148.028 22.25 151.644 24.49 151.644 30.794C151.644 31.402 151.612 31.722 151.548 32.074H139.836C140.092 34.858 141.532 35.978 143.836 35.978C145.98 35.978 146.908 35.114 147.292 33.77H151.42C150.588 37.578 147.644 39.53 143.772 39.53ZM139.836 29.322H147.228C147.164 27.402 146.172 25.802 143.612 25.802C141.436 25.802 140.156 27.018 139.836 29.322Z" fill="#F4F7F8"/>
<path d="M160.396 39.53C155.948 39.53 153.228 37.578 153.196 33.738H157.388C157.548 35.306 158.604 36.042 160.428 36.042C161.996 36.042 163.052 35.498 163.052 34.314C163.052 33.546 162.54 33.066 161.452 32.842L158.38 32.202C154.892 31.402 153.644 29.546 153.644 27.338C153.644 24.106 156.428 22.25 160.46 22.25C164.908 22.25 167.244 24.426 167.308 28.01H163.404C163.212 26.346 162.124 25.738 160.524 25.738C158.924 25.738 158.188 26.314 158.188 27.21C158.188 28.042 158.796 28.586 159.916 28.81L163.052 29.482C165.676 30.058 167.852 31.274 167.852 34.218C167.852 37.93 164.428 39.53 160.396 39.53Z" fill="#F4F7F8"/>
<path d="M170.219 39.21V22.57H174.891V39.21H170.219ZM169.995 18.058C169.995 16.586 171.211 15.466 172.555 15.466C173.899 15.466 175.115 16.586 175.115 18.058C175.115 19.498 173.899 20.618 172.555 20.618C171.211 20.618 169.995 19.498 169.995 18.058Z" fill="#F4F7F8"/>
<path d="M184.459 38.794C181.099 38.794 177.419 36.586 177.419 30.506C177.419 24.49 181.131 22.25 184.459 22.25C186.731 22.25 188.459 23.274 189.355 24.49V22.57H194.027V38.602C194.027 44.778 188.843 45.898 185.483 45.898C182.571 45.898 177.803 45.066 177.771 40.17H181.899C181.995 41.77 183.851 42.282 185.355 42.282C187.563 42.282 189.355 41.194 189.355 38.602V36.554C188.459 37.77 186.731 38.794 184.459 38.794ZM181.835 30.506C181.835 33.514 183.627 34.89 185.739 34.89C187.787 34.89 189.579 33.514 189.579 30.506C189.579 27.53 187.787 26.122 185.739 26.122C183.627 26.122 181.835 27.53 181.835 30.506Z" fill="#F4F7F8"/>
<path d="M208.576 29.77C208.576 27.242 207.456 26.122 205.504 26.122C203.552 26.122 202.016 27.242 202.016 29.77V39.21H197.344V22.57H202.016V26.058H202.208C202.496 24.49 204.096 22.25 207.52 22.25C210.752 22.25 213.248 24.33 213.248 28.65V39.21H208.576V29.77Z" fill="#F4F7F8"/>
<defs>
<clipPath id="clip0_306_897">
<rect width="47.43" height="47.21" fill="white"/>
</clipPath>
</defs>
</svg>
