<svg width="188" height="35" viewBox="0 0 188 35" fill="none" xmlns="http://www.w3.org/2000/svg">
<g clip-path="url(#clip0_1416_3931)">
<path d="M17.7251 11.6406H11.4062L20.9734 23.281L11.4062 34.9213H17.7251L27.287 23.281L17.7251 11.6406Z" fill="#AA0727"/>
<path d="M15.8808 0H9.56189L0 11.6403L9.56189 23.2807H15.8808L6.31889 11.6403L15.8808 0Z" fill="#AA0727"/>
<path d="M35.9137 22.1008C35.3577 21.6857 34.905 21.1479 34.5907 20.5293C34.2764 19.9107 34.109 19.2279 34.1016 18.5341H38.5509C38.551 18.9638 38.7197 19.3764 39.0209 19.6829C39.3091 19.9345 39.6831 20.0654 40.0653 20.0485C40.4035 20.0599 40.7359 19.9589 41.0106 19.7613C41.1316 19.6673 41.2284 19.5458 41.2929 19.4068C41.3574 19.2678 41.3877 19.1154 41.3813 18.9623C41.3887 18.7476 41.3347 18.5352 41.2255 18.3502C41.1164 18.1652 40.9566 18.0152 40.7651 17.9178C40.1269 17.5824 39.4569 17.3113 38.765 17.1084C37.9533 16.85 37.161 16.5341 36.3941 16.1632C35.7755 15.8425 35.2393 15.3832 34.8275 14.8211C34.3542 14.1474 34.119 13.3352 34.159 12.5128C34.1344 11.631 34.3864 10.7636 34.8797 10.0323C35.3815 9.32823 36.076 8.78418 36.8798 8.46562C37.8017 8.10088 38.7869 7.92335 39.7781 7.94339C41.2689 7.86623 42.7417 8.29703 43.9559 9.16539C44.4756 9.57502 44.8958 10.0969 45.1852 10.692C45.4746 11.2871 45.6257 11.9399 45.627 12.6016H41.0837C41.0923 12.4122 41.06 12.2231 40.9888 12.0473C40.9175 11.8716 40.8092 11.7133 40.6711 11.5833C40.3878 11.3468 40.0268 11.2239 39.658 11.2386C39.376 11.2287 39.1011 11.3278 38.8903 11.5154C38.7887 11.6189 38.7097 11.7425 38.6584 11.8783C38.6072 12.0141 38.5848 12.159 38.5927 12.3039C38.5919 12.4435 38.6213 12.5816 38.679 12.7088C38.7367 12.8359 38.8213 12.949 38.9269 13.0403C39.1709 13.2565 39.4477 13.4328 39.7468 13.5625C40.0706 13.7087 40.551 13.8967 41.1933 14.1265C41.9991 14.3911 42.7845 14.714 43.5433 15.0926C44.1672 15.4185 44.7126 15.8765 45.1413 16.4347C45.6045 17.0659 45.8402 17.8353 45.8098 18.6176C45.8211 19.4658 45.5891 20.2994 45.1413 21.0198C44.6663 21.7512 43.9948 22.334 43.2039 22.7014C42.2687 23.1415 41.245 23.3613 40.2116 23.3437C38.6818 23.4082 37.1729 22.9718 35.9137 22.1008Z" fill="white"/>
<path d="M54.7917 19.6404V23.1967H52.9796C49.9298 23.1967 48.4049 21.6857 48.4049 18.6638V14.7262H46.9375V11.2535H48.4049V8.36035H52.5827V11.2535H54.7552V14.7262H52.5827V18.7265C52.5703 18.8523 52.5838 18.9793 52.6225 19.0996C52.6611 19.22 52.724 19.3312 52.8073 19.4262C53.0221 19.5936 53.2938 19.6704 53.5645 19.6404H54.7917Z" fill="white"/>
<path d="M62.5787 11.7449C63.2354 11.3484 63.9893 11.1423 64.7564 11.1496V15.5989H63.5866C62.8734 15.5407 62.1613 15.7247 61.5656 16.1212C61.3232 16.3596 61.1376 16.6497 61.0228 16.9697C60.908 17.2898 60.8668 17.6316 60.9024 17.9698V23.192H56.7246V11.254H60.9024V13.3429C61.3418 12.6976 61.9131 12.1529 62.5787 11.7449Z" fill="white"/>
<path d="M66.2071 13.9803C66.6085 13.1151 67.2433 12.3791 68.0401 11.8548C68.818 11.3544 69.7263 11.0946 70.6512 11.1081C71.3899 11.0878 72.1216 11.2568 72.7766 11.599C73.3501 11.9002 73.8277 12.3561 74.1553 12.915V11.2543H78.3331V23.1975H74.1553V21.5368C73.8224 22.0984 73.3396 22.5559 72.761 22.8581C72.1155 23.1901 71.3978 23.357 70.6721 23.3437C69.7477 23.3587 68.8395 23.1008 68.061 22.6022C67.2614 22.0743 66.6263 21.3324 66.228 20.4611C65.7646 19.4439 65.5361 18.3355 65.5595 17.2181C65.5284 16.1038 65.7498 14.9969 66.2071 13.9803ZM73.5182 15.406C73.3223 15.1938 73.0838 15.0256 72.8183 14.9122C72.5528 14.7988 72.2663 14.7428 71.9776 14.748C71.6854 14.7381 71.3945 14.7907 71.1243 14.9024C70.8541 15.0141 70.6109 15.1822 70.411 15.3955C69.9738 15.8983 69.7524 16.5531 69.7947 17.2181C69.7588 17.8806 69.9795 18.5314 70.411 19.0354C70.6075 19.2544 70.8496 19.4278 71.1202 19.5432C71.3909 19.6587 71.6835 19.7135 71.9776 19.7038C72.2663 19.709 72.5528 19.653 72.8183 19.5396C73.0838 19.4262 73.3223 19.258 73.5182 19.0458C73.9589 18.5425 74.184 17.886 74.1449 17.2181C74.1798 16.5536 73.9508 15.9023 73.5077 15.406H73.5182Z" fill="white"/>
<path d="M87.7337 19.6404V23.1967H85.9216C82.8718 23.1967 81.3469 21.6857 81.3469 18.6638V14.7262H79.9004V11.2535H81.3678V8.36035H85.5456V11.2535H87.7337V14.7262H85.5613V18.7265C85.5489 18.8523 85.5624 18.9793 85.601 19.0996C85.6396 19.22 85.7025 19.3312 85.7858 19.4262C85.9993 19.5923 86.2689 19.669 86.5378 19.6404H87.7337Z" fill="white"/>
<path d="M100.998 18.0692H93.1017C93.0905 18.6026 93.2765 19.1214 93.624 19.5262C93.7844 19.6847 93.9756 19.8087 94.1857 19.8904C94.3959 19.9722 94.6206 20.0099 94.8459 20.0015C95.1602 20.0182 95.4719 19.9374 95.7383 19.7701C96.0048 19.6027 96.213 19.357 96.3343 19.0667H100.789C100.621 19.8739 100.263 20.6293 99.7444 21.2705C99.2016 21.9265 98.5131 22.4469 97.7338 22.7901C96.8883 23.1682 95.9705 23.3572 95.0444 23.3437C93.9543 23.3633 92.8767 23.1083 91.9111 22.6021C91.005 22.1139 90.2595 21.374 89.7647 20.4715C89.2251 19.4738 88.9568 18.3519 88.9866 17.218C88.9579 16.0872 89.2224 14.9681 89.7543 13.9698C90.2498 13.082 90.9916 12.3566 91.8902 11.8809C92.8558 11.3739 93.9331 11.1172 95.0235 11.1341C96.1114 11.1124 97.1878 11.36 98.1568 11.8548C99.0521 12.3313 99.7903 13.0568 100.282 13.9437C100.812 14.9182 101.077 16.0149 101.05 17.124C101.052 17.4399 101.034 17.7555 100.998 18.0692ZM96.8199 16.043C96.8287 15.8164 96.7863 15.5908 96.6959 15.3829C96.6055 15.1749 96.4694 14.99 96.2977 14.8419C95.938 14.5469 95.4832 14.3929 95.0183 14.4085C94.5642 14.3891 94.1187 14.5357 93.765 14.821C93.4149 15.1403 93.1892 15.5732 93.1278 16.043H96.8199Z" fill="white"/>
<path d="M109.285 11.5982C109.863 11.8999 110.345 12.3553 110.68 12.9142V11.2536H114.858V23.0662C114.874 24.113 114.655 25.1501 114.215 26.1003C113.784 27.0016 113.088 27.7502 112.22 28.2467C111.177 28.8217 109.996 29.1016 108.805 29.0561C107.226 29.1364 105.666 28.6779 104.382 27.7558C103.837 27.3324 103.387 26.7995 103.06 26.1915C102.734 25.5835 102.538 24.9138 102.486 24.2256H106.591C106.632 24.4096 106.71 24.5833 106.82 24.736C106.93 24.8887 107.071 25.0171 107.233 25.1133C107.634 25.3395 108.089 25.4498 108.549 25.4319C109.97 25.4319 110.68 24.6364 110.68 23.0453V21.5152C110.344 22.0744 109.862 22.5312 109.285 22.8365C108.63 23.1721 107.901 23.339 107.165 23.3221C106.241 23.3371 105.333 23.0792 104.554 22.5806C103.755 22.0539 103.121 21.3115 102.726 20.4395C102.259 19.4235 102.028 18.3145 102.053 17.1965C102.027 16.0799 102.257 14.9723 102.726 13.9587C103.124 13.0928 103.758 12.3563 104.554 11.8332C105.332 11.3328 106.24 11.073 107.165 11.0865C107.904 11.0751 108.633 11.2512 109.285 11.5982ZM110.053 15.4052C109.854 15.19 109.611 15.02 109.341 14.9065C109.071 14.793 108.779 14.7387 108.486 14.7472C108.194 14.737 107.903 14.7895 107.633 14.9012C107.363 15.0129 107.12 15.1812 106.92 15.3948C106.483 15.8976 106.261 16.5524 106.304 17.2173C106.268 17.8798 106.488 18.5307 106.92 19.0347C107.116 19.254 107.358 19.4275 107.629 19.543C107.9 19.6585 108.192 19.7132 108.486 19.7031C108.779 19.7117 109.071 19.6574 109.341 19.5439C109.611 19.4304 109.854 19.2603 110.053 19.0451C110.494 18.5417 110.719 17.8852 110.68 17.2173C110.718 16.5544 110.492 15.9032 110.053 15.4052Z" fill="white"/>
<path d="M117.562 9.54123C117.346 9.35212 117.175 9.11807 117.059 8.85552C116.944 8.59297 116.887 8.30831 116.893 8.02156C116.885 7.72765 116.941 7.43544 117.056 7.165C117.171 6.89456 117.344 6.65231 117.562 6.4549C118.055 6.02904 118.692 5.80848 119.343 5.83867C119.985 5.81203 120.613 6.03256 121.097 6.4549C121.315 6.65231 121.488 6.89456 121.603 7.165C121.719 7.43544 121.774 7.72765 121.766 8.02156C121.772 8.30831 121.715 8.59297 121.6 8.85552C121.485 9.11807 121.313 9.35212 121.097 9.54123C120.612 9.96168 119.984 10.1803 119.343 10.1522C118.693 10.1839 118.055 9.9652 117.562 9.54123ZM121.405 11.2541V23.1973H117.228V11.2541H121.405Z" fill="white"/>
<path d="M125.992 22.8002C125.209 22.4836 124.52 21.9711 123.992 21.3118C123.509 20.6991 123.223 19.9544 123.172 19.176H127.219C127.238 19.3532 127.295 19.5244 127.385 19.6783C127.475 19.8322 127.596 19.9654 127.741 20.069C128.068 20.2881 128.455 20.3995 128.848 20.3875C129.134 20.4025 129.417 20.3276 129.658 20.1734C129.75 20.114 129.826 20.032 129.878 19.9352C129.93 19.8383 129.957 19.7298 129.956 19.6198C129.955 19.4729 129.907 19.33 129.82 19.2118C129.733 19.0936 129.61 19.006 129.47 18.9618C128.944 18.7618 128.402 18.6046 127.851 18.4918C127.126 18.3585 126.414 18.1664 125.72 17.9174C125.147 17.6998 124.639 17.3405 124.242 16.873C123.8 16.3194 123.577 15.6222 123.616 14.9146C123.608 14.2306 123.808 13.5602 124.19 12.9928C124.612 12.3838 125.199 11.9074 125.882 11.6194C126.731 11.2543 127.648 11.0762 128.572 11.0972C129.898 11.0198 131.207 11.4282 132.253 12.2461C133.153 13.0085 133.716 14.0949 133.82 15.2697H130.034C129.978 14.9201 129.791 14.6047 129.512 14.3872C129.208 14.1696 128.84 14.0611 128.467 14.0791C128.195 14.0615 127.923 14.127 127.689 14.2671C127.605 14.3258 127.538 14.4041 127.491 14.4951C127.445 14.5861 127.421 14.6871 127.423 14.7893C127.428 14.9347 127.478 15.075 127.566 15.1909C127.653 15.3068 127.775 15.3928 127.914 15.4368C128.419 15.6415 128.944 15.7954 129.48 15.8964C130.215 16.0438 130.936 16.2498 131.637 16.5126C132.223 16.7502 132.743 17.1265 133.152 17.6093C133.61 18.192 133.84 18.9216 133.799 19.6616C133.804 20.3354 133.592 20.9929 133.193 21.5364C132.747 22.1206 132.152 22.5735 131.47 22.8472C130.64 23.1788 129.752 23.3404 128.859 23.3224C127.878 23.3455 126.902 23.1678 125.992 22.8002Z" fill="white"/>
<path d="M142.923 19.6404V23.1967H141.116C138.066 23.1967 136.541 21.6857 136.541 18.6638V14.7262H135.068V11.2535H136.541V8.36035H140.719V11.2535H142.891V14.7262H140.719V18.7265C140.708 18.8522 140.722 18.9789 140.76 19.0991C140.799 19.2193 140.861 19.3305 140.943 19.4262C141.158 19.5936 141.43 19.6704 141.701 19.6404H142.923Z" fill="white"/>
<path d="M158.27 8.19336V23.1968H154.092V17.1704H149.006V23.1968H144.828V8.19336H149.006V13.8334H154.092V8.19336H158.27Z" fill="white"/>
<path d="M172.855 11.2539V23.1971H168.677V21.4947C168.306 22.0487 167.799 22.4983 167.204 22.8002C166.544 23.1515 165.806 23.3311 165.058 23.3225C164.442 23.3541 163.826 23.2472 163.257 23.0095C162.688 22.7718 162.179 22.4094 161.768 21.949C160.92 20.8955 160.492 19.5654 160.567 18.2151V11.2539H164.719V17.6616C164.68 18.2449 164.867 18.8208 165.241 19.27C165.425 19.4653 165.649 19.6186 165.898 19.7195C166.146 19.8204 166.414 19.8666 166.682 19.8549C166.956 19.8719 167.229 19.8283 167.484 19.7272C167.739 19.6261 167.968 19.47 168.155 19.27C168.527 18.8198 168.714 18.2446 168.677 17.6616V11.2539H172.855Z" fill="white"/>
<path d="M180.81 11.5885C181.456 11.2583 182.173 11.0932 182.899 11.108C183.815 11.0997 184.713 11.3593 185.484 11.8548C186.28 12.3791 186.915 13.1151 187.317 13.9803C187.781 14.9952 188.01 16.1022 187.985 17.218C188.008 18.3355 187.78 19.4439 187.317 20.461C186.918 21.3324 186.283 22.0743 185.484 22.6022C184.713 23.0958 183.814 23.3536 182.899 23.3437C182.174 23.3602 181.456 23.1969 180.81 22.8685C180.229 22.5683 179.748 22.1056 179.426 21.5368V23.1975H175.248V7.44727H179.426V12.9149C179.75 12.3488 180.23 11.8883 180.81 11.5885ZM183.139 15.3955C182.937 15.184 182.694 15.0172 182.424 14.9056C182.154 14.7941 181.864 14.7404 181.572 14.7479C181.279 14.7387 180.987 14.7927 180.717 14.9062C180.447 15.0198 180.204 15.1902 180.005 15.4059C179.566 15.9039 179.341 16.5551 179.379 17.218C179.34 17.8859 179.565 18.5424 180.005 19.0458C180.204 19.2616 180.447 19.432 180.717 19.5455C180.987 19.6591 181.279 19.7131 181.572 19.7038C181.866 19.7128 182.159 19.6576 182.429 19.5422C182.7 19.4268 182.942 19.2538 183.139 19.0354C183.575 18.5338 183.8 17.8822 183.766 17.218C183.786 16.888 183.741 16.5571 183.634 16.2444C183.526 15.9317 183.358 15.6432 183.139 15.3955Z" fill="white"/>
</g>
<defs>
<clipPath id="clip0_1416_3931">
<rect width="188" height="34.921" fill="white"/>
</clipPath>
</defs>
</svg>
