<?xml version="1.0" encoding="utf-8"?>
<svg version="1.1" id="Layer_1" xmlns="http://www.w3.org/2000/svg" xmlns:xlink="http://www.w3.org/1999/xlink" x="0px" y="0px"
	 viewBox="0 0 1024 1024" style="enable-background:new 0 0 1024 1024;" xml:space="preserve">
<path style="fill:#ffff;" d="M0,0h1024v1024H0V0z"/>
<path style="fill:#040202;" d="M427.84,99.121c1.929-4.196,4.956-8.03,7.914-11.549c16.434-19.548,41.118-30.477,66.275-32.646
	c21.358-1.842,51.139,4.178,67.913,18.368c28.684,2.55,57.777,16.185,78.96,35.535c16.907,15.445,29.423,35.088,33.007,57.931
	c1.043,6.645,1.172,13.371,1.469,20.08c0.605,0.9,1.219,1.794,1.878,2.655c6.911,9.037,16.838,12.909,27.83,14.21
	c-8.205,12.62-13.571,13.467-26.042,19.687c-0.757,1.283-0.517,2.46-0.531,3.925c16.85,9.249,33.578,18.686,49.145,30.02
	c55.843,40.662,97.009,100.19,116.259,166.505c25.285,87.104,15.562,189.564-28.329,269.305
	c-15.051,27.344-34.342,55.275-58.004,75.916c-0.111,45.471-2.288,91.453-16.385,135.071c-2.258,6.984-4.548,14.46-7.86,21.013
	c-7.496,14.833-24.661,37.312-35.207,50.634c-52.59-0.93-103.815-10.429-155.025-21.625l-0.373,5.487
	c-11.283,10.514-26.901,21.698-39.457,31.003c-14.271-9.593-29.033-22.178-42.913-32.744l-0.101-9.943
	c-21.454,9.132-43.43,13.602-66.176,18.177c-28.458,5.724-56.649,10.327-85.488,13.655c-9.641-10.62-18.357-21.846-25.209-34.499
	c-26.802-49.487-33.317-124.617-32.747-180.354c-1.544-1.458-2.946-3.072-4.379-4.638c-23.108-23.584-43.001-51.65-58.201-80.937
	c-34.243-65.978-46.146-145.407-32.744-218.519c2.565-13.993,6.548-27.956,10.847-41.503
	c21.258-66.978,64.667-128.181,120.954-170.3c9.46-7.079,19.302-14.508,29.802-19.96c0.859-0.621,1.898-0.872,2.895-1.217
	c0.552-0.39,1.651-1.074,1.665-1.871c0.046-2.728-1.161-6.433-1.606-9.208c-1.465-9.123,0.228-18.492,3.931-26.909
	c10.19-23.161,31.166-36.077,53.845-44.845c-0.629-7.31-0.551-13.401,3.046-20.122C396.292,110.72,413.277,103.628,427.84,99.121z"
	/>
<path style="fill:#F4B583;" d="M614.105,262.589c5.456,2.631,12.62,11.002,15.205,16.475l-0.087,1.046
	c-0.601-0.092-1.532-0.134-2.08-0.373l0.613-0.767C626.64,275.535,616.61,269.27,614.105,262.589z"/>
<path style="fill:#F4B583;" d="M592.185,460.035c1.32,0.381,2.339,0.591,3.076,1.873c2.628,4.566-0.678,10.89,1.35,15.489
	c-0.707,0.646-1.238,0.849-2.15,1.125c-1.879-1.891-1.55-14.107-2.111-17.512L592.185,460.035z"/>
<path style="fill:#A27646;" d="M364.275,417.177c-0.358,3.197-0.22,6.674-2.846,8.939c-1.228,1.059-2.793,1.501-4.393,1.319
	c-2.695-0.306-5.978-1.372-8.27-2.82C355.564,423.741,359.335,421.948,364.275,417.177z"/>
<path style="fill:#301B11;" d="M593.458,808.145c5.899-4.679,12.531-9.156,18.934-13.129c-1.906,3.548-4.001,6.971-6.096,10.408
	C602.03,806.343,597.754,807.388,593.458,808.145z"/>
<path style="fill:#AFAFAB;" d="M542.863,647.546c2-2.358,4.14-4.679,6.014-7.134c1.645,4.698,3.294,9.533,4.079,14.464
	C549.466,652.717,546.172,649.983,542.863,647.546z"/>
<path style="fill:#A27646;" d="M323.598,766.94c0.979,4.674,3.051,8.918,7.161,11.587c4.749,3.084,15.629,3.813,18.476,6.541
	c-2.354,0.024-4.772-0.318-7.115-0.581c-6.008-0.675-12.606-2.24-16.459-7.323C323.073,773.749,323.053,770.997,323.598,766.94z"/>
<path style="fill:#303033;" d="M345.558,298.848c3.651,6.059,3.902,17.502,5.604,24.666c-1.251,0.301-1.392,0.536-2.641,0.049
	C344.712,317.63,345.322,305.617,345.558,298.848z"/>
<path style="fill:#4E3B1E;" d="M532.31,62.937c9.694,1.751,20.569,5.365,28.667,11.088c-10.257-2.404-19.958-6.369-30.104-9.07
	c1.785-0.302,3.41-0.125,5.204,0.045c-1.046-0.492-2.07-0.983-3.049-1.603L532.31,62.937z"/>
<path style="fill:#F4B583;" d="M377.112,228.178c9.505-4.872,17.3-10.445,24.648-18.214c-0.79,5.302-6.228,8.842-10.255,11.826
	c-8.126,6.02-11.661,9.919-14.995,19.525C376.477,236.953,376.879,232.535,377.112,228.178z"/>
<path style="fill:#9E9894;" d="M473.956,636.796c2.934,5.004,6.543,9.472,10.264,13.901c-4.589,0.622-9.609-0.671-14.016,0.205
	C470.949,646.035,472.181,641.388,473.956,636.796z"/>
<path style="fill:#646663;" d="M345.279,295.766c0.166-1.714,0.081-2.102,1.2-3.481c1.465-0.643,2.892-1.03,4.444-1.407
	c2.84,7.573,7.329,24.194,7.327,32.107c-0.469-0.095-1.707-0.332-2.083-0.697c-3.703-3.602-2.546-23.171-7.483-26.544
	C347.382,294.855,346.621,295.373,345.279,295.766z"/>
<path style="fill:#A27646;" d="M481.001,416.741c9.929,0.993,14.457,2.546,21.658,9.658c-3.974,0.115-8.053,0.654-12.002,0.61
	c-1.152-0.718-2.246-1.462-3.343-2.263C487.15,422.15,482.528,419.031,481.001,416.741z"/>
<path style="fill:#4E3B1E;" d="M692.053,854.889c16.168,3.502,30.424,10.942,40.356,24.543c-4.583-1.737-10.261-7.435-14.436-10.429
	c-5.197-3.729-10.225-6.267-16.135-8.672C699.24,859.273,693.18,857.564,692.053,854.889z"/>
<path style="fill:#A27646;" d="M521.828,426.442c6.375-6.858,11.972-9.179,21.338-9.61l0.914,0.858
	c-2.62,3.234-8.006,5.731-9.856,9.163l0.285,0.504C530.327,426.675,526.056,426.549,521.828,426.442z"/>
<path style="fill:#4E3B1E;" d="M388.905,151.245c0.301,1.565,0.763,2.88,0.311,4.439c-6.715,2.922-14.224,5.74-20.356,9.788
	c-3.597,2.375-8.282,8.088-12.189,9.112c4.964-7.696,13.841-14.555,21.92-18.695c3.217-1.649,6.642-2.806,9.874-4.421
	L388.905,151.245z"/>
<path style="fill:#7A7E74;" d="M399.422,576.596l0.46,1.08c-2.326,3.869-5.807,7.296-8.485,10.985
	c-5.897,8.122-10.403,16.346-14.728,25.395c-1.23,2.574-4.037,10.57-6.328,11.836C376.111,608.93,384.18,587.011,399.422,576.596z"
	/>
<path style="fill:#F4B583;" d="M544.714,406.412c1.507,1.236,1.75,2.009,2.335,3.819c0.28,0.867,0.535,2,1.053,2.746l0.644,2.675
	c0.471,4.415-0.8,9.195-1.678,13.5c-4.156-0.827-8.342-1.399-12.559-1.795l-0.285-0.504c1.85-3.432,7.236-5.929,9.856-9.163
	l0.9-0.558l0.552-2.248C545.489,411.993,545.146,409.265,544.714,406.412z"/>
<path style="fill:#1B1D19;" d="M687.419,865.884c-5.049-2.611-9.267-6.724-14.301-9.511c4.898,0.813,9.453,2.167,14.275,3.229
	c1.969,2.653,5.358,5.402,6.777,8.271c3.788,2.562,8.279,5.292,11.189,8.884c-2.924,1.295-7.263-1.297-10.432-1.151
	C692.408,873.822,689.165,868.473,687.419,865.884z"/>
<linearGradient id="SVGID_1_" gradientUnits="userSpaceOnUse" x1="408.0404" y1="748.2031" x2="411.5495" y2="737.1884" gradientTransform="matrix(1 0 0 -1 0 1026)">
	<stop  offset="0" style="stop-color:#333132"/>
	<stop  offset="1" style="stop-color:#56575A"/>
</linearGradient>
<path style="fill:url(#SVGID_1_);" d="M378.996,288.197c2.456-1.51,4.865-3.033,7.632-3.92c11.508-3.687,32.56-4.005,44.63-3.318
	c3.562,0.985,6.891,0.755,10.503,1.116c-7.506,1.301-15.991,0.802-23.646,1.369C404.986,284.417,392.009,286.27,378.996,288.197z"/>
<path style="fill:#F4B583;" d="M476.838,401.195l0.538-0.419l2.285,2.184c-1.704,3.765-4.168,8.291-2.576,12.482
	c0.247,0.652,0.615,1.186,1.031,1.738c0.484-0.548,0.766-0.74,1.383-1.096l1.502,0.657c1.527,2.29,6.149,5.409,6.313,8.005
	c1.097,0.801,2.191,1.545,3.343,2.263c-3.614,0.513-7.408,1.329-11.041,1.515c-0.586-1.866-2.306-2.832-3.484-4.313
	c-5.168-6.495,0.152-15.071,0.649-22.05C476.804,401.84,476.819,401.517,476.838,401.195z"/>
<path style="fill:#4E3B1E;" d="M478.116,417.18c0.484-0.548,0.766-0.74,1.383-1.096l1.502,0.657c1.527,2.29,6.149,5.409,6.313,8.005
	l-1.468-0.543c-2.366-1.608-4.536-3.467-6.736-5.291L478.116,417.18z"/>
<path style="fill:#646663;" d="M431.258,280.959c29.208-1.098,58.63-0.508,87.864-0.357c2.368,1.345,35.591,0.263,42.013,0.66
	c-2.319,0.542-4.551,0.527-6.893,0.799c-4.233,0.384-8.767,0.032-13.027,0.006l-24.698-0.092c-24.904-0.022-49.863,0.317-74.756,0.1
	C438.149,281.714,434.82,281.944,431.258,280.959z"/>
<path style="fill:#F4B583;" d="M361.248,380.638l1.996-0.065c1.171,1.751,0.49,19.316,0.615,22.716
	c-0.576-4.6-4.569-9.302-7.808-12.48c-1.497,0.196-2.798,0.191-3.912,1.331c-0.427,1.653-0.294,2.418,0.594,3.899
	c1.365,2.277,4.534,5.179,4.599,7.771c-0.581-0.358-1.124-0.704-1.65-1.142c-3.741-3.122-9.986-11.283-9.973-16.529
	c0.004-1.404,0.259-1.571,1.189-2.49c0.328-0.023,0.673-0.176,0.984-0.07c0.495,0.169,4.218,4.482,7.847,5.806
	c0.19,0.07,0.382,0.135,0.572,0.202c1.986-0.959,3.052-1.627,4.402-3.416c-1.838,0.206-4.666,0.426-6.106-0.972
	c-0.959-0.931-1.044-1.451-0.986-2.663C355.149,381.14,359.134,381.026,361.248,380.638z"/>
<linearGradient id="SVGID_00000017490318338509798580000011405763671505316287_" gradientUnits="userSpaceOnUse" x1="591.4493" y1="744.8382" x2="591.1976" y2="741.8201" gradientTransform="matrix(1 0 0 -1 0 1026)">
	<stop  offset="0" style="stop-color:#3A3939"/>
	<stop  offset="1" style="stop-color:#555250"/>
</linearGradient>
<path style="fill:url(#SVGID_00000017490318338509798580000011405763671505316287_);" d="M519.122,280.602
	c13.136-0.343,26.323-0.098,39.465-0.073c27.884,0.053,54.647,0.429,81.892,7.077c4.819,1.176,11.294,2.194,15.026,5.634
	c2.063,1.901,6.325,7.085,6.479,9.977c-0.652-0.664-0.925-1.122-1.404-1.903c-4.502-7.354-9.993-9.267-18.042-11.116
	c-21.148-4.856-42.025-6.206-63.643-7.177c-8.041-0.361-16.715,0.124-24.653-0.96c2.342-0.272,4.574-0.257,6.893-0.799
	C554.713,280.865,521.49,281.947,519.122,280.602z"/>
<path style="fill:#A27646;" d="M337.375,231.013c2.175,1.293,4.131,2.18,6.522,3.012c0.768,7.666,2.645,15.132,3.707,22.751
	c1.082,7.767,1.353,15.638,1.652,23.466c0.085,2.224,0.811,6.312-0.319,8.168c-1.109,0.049-1.017,0.168-2.06-0.45
	c-1.526-7.399-2.493-14.924-3.782-22.369C341.1,254.07,338.915,242.607,337.375,231.013z"/>
<path style="fill:#7A7E74;" d="M637.469,852.007c12.931-2.402,22.705-0.068,33.425,7.302c16.493,11.339,29.685,27.871,37.876,46.123
	c-3.639-3.578-6.301-9.647-9.17-13.94C686.457,871.824,660.369,856.596,637.469,852.007z"/>
<path style="fill:#AFAFAB;" d="M423.316,598.122c-0.012-0.539-0.04-1.128-0.009-1.673c0.668-11.397,8.548-36.479,14.472-46.075
	c1.198-1.94,2.902-3.456,4.563-4.989c0.308,6.237,1.891,11.433,4.489,17.078c-11.081,8.621-14.142,11.185-19.136,24.894
	C426.37,590.994,425.234,594.744,423.316,598.122z"/>
<path style="fill:#F4B583;" d="M313.593,827.802c5.437,3.19,10.906,6.455,16.712,8.933c8.174,3.487,30.316,10.076,38.594,7.63
	c0.51-0.151,0.67-0.291,1.119-0.569l3.726,3.002c-7.246,1.79-14.396,3.796-21.452,6.231c-4.204-2.856-11.992-8.366-16.409-10.341
	c-5.498-2.459-11.615-3.565-16.745-6.858C315.78,833.674,314.341,831.671,313.593,827.802z"/>
<path style="fill:#F9CB9D;" d="M682.483,308.944c4.802-1.937,9.161-3.881,14.3-1.649c6.16,2.675,9.722,9.59,11.957,15.593
	c0.599,1.607,1.097,3.256,1.593,4.898c-1.916-1.5-3.817-2.935-5.872-4.247c-4.226-2.292-8.019-3.152-12.743-1.761
	c-3.397,1-6.646,2.978-9.471,5.082C682.361,320.889,682.503,314.917,682.483,308.944z"/>
<linearGradient id="SVGID_00000142139156664064872620000005540691412788121250_" gradientUnits="userSpaceOnUse" x1="525.7654" y1="889.2031" x2="473.3947" y2="875.8941" gradientTransform="matrix(1 0 0 -1 0 1026)">
	<stop  offset="0" style="stop-color:#9E6B41"/>
	<stop  offset="1" style="stop-color:#BD8C67"/>
</linearGradient>
<path style="fill:url(#SVGID_00000142139156664064872620000005540691412788121250_);" d="M489.403,201.443
	c-3.858-6.539-6.92-13.074-8.861-20.439c-5.83-22.119-2.654-45.301,8.964-64.944c9.949-16.822,26.551-32.224,45.841-37.103
	c-9.7,4.652-18.178,10.112-25.843,17.737c-16.996,16.904-29.366,39.34-29.405,63.708c-0.409,9.291,1.932,19.392,5.05,28.102
	C486.523,192.341,489.381,197.428,489.403,201.443z"/>
<path style="fill:#3E2C1A;" d="M541.175,146.982c0.084-0.248,0.152-0.501,0.251-0.743c1.3-3.198,5.243-6.88,7.74-9.255
	c16.687-15.875,43.198-28.146,66.349-29.177c5.36-0.238,11.013,0.437,16.246,1.579c2.874,0.628,7.439,2.571,10.271,2.415
	c0.485-0.027,0.911-0.339,1.367-0.509c4.414,3.52,8.471,7.209,12.281,11.379c-4.426-2.803-8.691-4.978-13.687-6.569
	c-1.664-1.173-2.696-1.395-4.713-1.628l-0.947-0.104l0.114-0.833c-0.676-1.111-1.643-1.523-2.856-1.991
	c-2.684-1.036-7.436-2.213-10.127-1.021c-24.521,1.051-47.227,10.389-67.029,24.598
	C551.228,138.859,546.436,143.422,541.175,146.982z"/>
<path style="fill:#AFAFAB;" d="M599.934,606.11c0.646,19.378-0.763,38.891-4.315,57.976c-1.039-3.251-1.459-6.848-2.179-10.189
	c-1.72-7.986-4.032-16.351-8.172-23.452C590.438,622.456,595.21,614.365,599.934,606.11z"/>
<path style="fill:#AFAFAB;" d="M574.27,758.453c-3.431,14.82-13.465,37.766-21.627,50.676c-2.235-0.026-4.285,0.102-6.49,0.475
	c-0.474-5.153-1.091-10.34-2.203-15.401c9.215-5.312,18.258-15.592,23.622-24.687C569.68,765.942,571.367,761.403,574.27,758.453z"
	/>
<path style="fill:#7A7E74;" d="M646.571,600.628c-0.932-1.324-1.873-2.641-2.773-3.986c15.145,4.418,29.644,11.991,43.714,19.007
	c15.862,7.909,31.892,15.925,46.827,25.502l0.263,0.916c-0.552,0.321-1.08,0.635-1.664,0.893
	c-9.061-2.495-18.198-7.919-26.553-12.231C687.125,620.788,666.593,608.743,646.571,600.628z"/>
<path style="fill:#301B11;" d="M735.722,648.529c1.167-0.086,2.057-0.002,3.201,0.243c0.044,0.213,0.21,0.436,0.132,0.639
	c-0.301,0.783-2.749,2.592-3.421,3.228c-2.765,2.617-5.3,5.713-7.751,8.631c-18.986,22.596-35.519,55.378-44.241,83.63l-2.995,0.402
	l-0.086-0.552c0.765-0.288,0.836-0.852,1.219-1.547l-0.724-0.087c2.173-6.101,4.41-12.173,6.769-18.205
	C695.932,704.173,714.182,657.95,735.722,648.529z"/>
<path style="fill:#7A7E74;" d="M289.416,641.252c27.381-18.165,58.606-33.624,89.562-44.644c-1.117,1.921-2.336,3.691-3.663,5.473
	c-7.834,2.763-15.413,6.908-22.887,10.549c-19.341,9.423-37.964,18.912-55.503,31.447
	C294.409,642.739,292.157,641.961,289.416,641.252z"/>
<path style="fill:#301B11;" d="M666.328,695.96l6.49,1.117c-2.999,6.865-22.499,50.298-21.662,53.723l0.704,0.517
	c-4.322,1.009-8.739,1.661-13.113,2.406C648.013,734.516,655.803,714.553,666.328,695.96z"/>
<path style="fill:#F9CB9D;" d="M315.582,819.971c5.795,2.314,11.598,4.342,17.639,5.93c6.62,1.74,14.061,2.742,20.188,5.783
	c5.999,2.978,11.57,7.742,16.609,12.112c-0.449,0.278-0.609,0.418-1.119,0.569c-8.278,2.446-30.42-4.143-38.594-7.63
	c-5.806-2.478-11.275-5.743-16.712-8.933C314.037,825.058,314.683,822.597,315.582,819.971z"/>
<path style="fill:#1B1D19;" d="M475.375,957.683c7.369-3.984,16.214-6.351,24.37-3.869c7.616,2.319,15.387,4.803,22.908,7.412
	c-6.782,5.382-14.378,10.144-20.761,15.933C493.849,970.264,484.385,963.223,475.375,957.683z"/>
<path style="fill:#1B1D19;" d="M630.856,298.388c6.401-1.046,14.183,0.217,20.592,1.405c1.778,0.33,3.632,1.42,5.347,1.547
	c3.662,3.387,6.881,9.56,7.217,14.592c0.121,1.818-0.015,3.696-0.096,5.515c-0.113-0.176-0.248-0.34-0.339-0.528
	c-0.805-1.672-0.529-4.101-0.711-5.954l-0.339,0.019c-0.934,4.087-0.743,8.605-0.911,12.806c-0.219,5.49-0.547,10.984-0.61,16.479
	c-0.123,10.622,0.495,21.458-2.797,31.703c-1.822,0.085-3.915,0.923-5.691,1.408c3.356-14.82,5.07-53.208-1.69-66.62
	C646.94,303.045,638.455,300.752,630.856,298.388z"/>
<path style="fill:#4E3B1E;" d="M343.897,234.025l1.389,0.391c11.299,10.92,19.025,20.811,19.221,36.982
	c0.091,7.457-1.411,14.863-2.75,22.17c-0.162-0.441-0.33-0.88-0.515-1.312c-0.942-2.193-2.572-4.243-4.91-5.036
	c-2.738-0.928-4.904,0.057-7.395,1.19c1.13-1.856,0.404-5.944,0.319-8.168c-0.299-7.828-0.57-15.699-1.652-23.466
	C346.542,249.157,344.665,241.691,343.897,234.025z"/>
<path style="fill:#AFAFAB;" d="M576.605,855.255c1.765,7.115,5.908,18.103,1.733,24.843c-3.668,5.921-13.286,11.137-19.052,15.131
	c-4.991-6.556-8.481-13.838-11.764-21.36C558.515,869.464,567.807,863.047,576.605,855.255z"/>
<path style="fill:#BC8A57;" d="M341.302,228.222c-1.46-0.826-2.943-1.646-4.207-2.762c-3.415-3.014-4.68-7.496-4.862-11.909
	c-0.625-15.159,6.865-29.176,16.98-39.991c8.789-9.398,26.378-21.816,39.692-22.315l-0.44,0.223
	c-3.232,1.615-6.657,2.772-9.874,4.421c-8.079,4.14-16.956,10.999-21.92,18.695c-2.504,3.453-5.006,6.895-6.892,10.734
	c-5.421,6.473-9.999,19.428-9.038,27.88c0.391,3.44,1.932,6.697,4.775,8.768c5.26,3.832,14.139,2.716,20.188,1.539
	c3.853-0.749,7.437-2.063,11.205-3.105c-1.964,2.826-16.816,6.874-20.69,7.551C351.271,228.816,346.196,227.649,341.302,228.222z"/>
<path style="fill:#301B11;" d="M345.286,234.416c10.274,0.242,19.143-0.96,28.826-4.554c-1.637,19.991-2.41,40.084-1.521,60.122
	c-1.899,0.701-9.349,4.404-10.618,3.989l-0.216-0.405c1.339-7.307,2.841-14.713,2.75-22.17
	C364.311,255.227,356.585,245.336,345.286,234.416z"/>
<path style="fill:#1B1D19;" d="M667.674,307.179c3.431,0.39,6.85,0.648,10.297,0.855c0.248,12.892-0.538,25.845-0.773,38.739
	c-0.15,8.279,0.463,17.043-0.416,25.253c-0.249,2.318-0.534,5.738-2.141,7.513c-2.871,3.169-8.11,2.972-12.016,3.04
	c-0.651-0.021-1.301-0.045-1.951-0.083c-2.575-0.153-6.4-0.06-8.163-2.066c1.881-2.873,10.334-3.059,13.396-7.109
	C669.893,368.05,668.836,315.614,667.674,307.179z"/>
<path style="fill:#301B11;" d="M623.464,110.525c2.691-1.192,7.443-0.015,10.127,1.021c1.213,0.468,2.18,0.88,2.856,1.991
	l-0.114,0.833l0.947,0.104c2.017,0.233,3.049,0.455,4.713,1.628c-11.813-2.335-24.866-0.784-36.28,2.851
	c-25.018,7.968-44.947,21.154-63.35,39.724c-6.434,6.493-12.652,13.371-17.548,21.124c-5.071,8.031-8.039,16.982-12.415,25.345
	c0.923-5.434,1.845-10.783,3.603-16.027c5.756-17.162,18.684-33.885,32.649-45.267c22.997-18.742,55.23-33.912,85.482-30.873
	C630.602,111.759,627.15,111.107,623.464,110.525z"/>
<path style="fill:#F9CB9D;" d="M447.678,552.384c5.278,0.07,59.78,31.407,64.622,36.444c0.626,0.651,0.983,1.211,1.101,2.109
	c-5.7,0.024-10.752,0.556-16.291,1.936c-7.235-4.894-16.091-8.049-23.719-12.457C461.414,573.496,451.428,566.225,447.678,552.384z"
	/>
<path style="fill:#1B1D19;" d="M544.548,346.863c-3.898-9.477-13.52-28.462-11.598-38.339c0.697-3.58,2.548-6.719,5.658-8.701
	c5.905-3.765,19.165-4.296,25.915-2.636c-1.232,0.275-1.675,0.177-2.406,1.277c-1.9,2.857-3.032,6.95-4.229,10.171
	C553.222,321.187,549.801,334.628,544.548,346.863z"/>
<path style="fill:#F4B583;" d="M583.606,873.455c-0.336-12.941-6.217-28.498-11.732-40.231c-1.663-3.537-4.146-6.707-5.354-10.441
	c0.709-1.057,1.532-1.14,2.683-1.6c8.253,12.506,13.392,25.717,15.137,40.624c11.62-10.59,28.565-20.537,43.027-26.874
	c-1.413,2.655-2.887,5.232-4.479,7.785c9.722-2.247,26.045-2.102,34.165-6.015c1.989-0.958,3.574-2.375,5.199-3.834
	c-1.029,4.291-1.061,13.14-3.911,16.331c-6.535-2.506-26.98,0.174-33.876,1.612c-3.896,0.812-7.594,1.997-11.327,3.36
	c4.385-4.459,7.856-8.636,10.971-14.072C612.192,852.968,597.557,862.939,583.606,873.455z"/>
<path style="fill:#1B1D19;" d="M330.075,845.204c6.519,2.801,13.255,5.992,19.353,9.617c-15.934,11.347-26.453,18.313-39.637,33.575
	c-3.02,3.497-6.253,6.947-7.907,11.33l0.35,1.171l-0.926,1.442l-1.21,0.902c-1.4-0.02-1.595-0.01-2.755-0.772
	c-0.21-0.478-0.308-0.613-0.344-1.206c-0.461-7.755,15.003-42.823,19.767-49.32C320.429,846.948,324.281,846.14,330.075,845.204z"/>
<path style="fill:#F9CB9D;" d="M323.598,766.94c0.877-1.166,1.544-2.337,2.989-2.823c8.14,0.219,47.531,10.154,55.616,13.485
	c3.471,1.431,6.22,3.035,8.823,5.795c4.926,5.226,7.745,12.279,11.582,18.292c-6.089-3.158-10.987-7.823-16.886-11.151
	c-7.433-4.194-27.173-4.403-36.487-5.47c-2.847-2.728-13.727-3.457-18.476-6.541C326.649,775.858,324.577,771.614,323.598,766.94z"
	/>
<path style="fill:#AFAFAB;" d="M580.724,545.681c11.457,16.04,16.194,34.171,18.67,53.511c-2.605,3.506-4.702,7.608-6.349,11.647
	c-2.457-3.817-4.204-8.148-6.672-12.025c-5.758-9.045-15.884-17.719-26.549-20.083C571.675,569.24,578.016,560.772,580.724,545.681z
	"/>
<path style="fill:#301B11;" d="M624.419,118.196c0.103-0.014,0.205-0.032,0.309-0.041c11.108-1.021,24.348,0.772,32.907,8.572
	c3.295,3.003,5.89,6.859,8.206,10.636c8.82,14.384,11.451,29.002,12.061,45.613c-1.502-2.227-2.904-4.527-4.338-6.798
	c-12.422-19.771-25.338-37.669-46.336-49.163c-4.897-2.681-10.165-5.222-15.577-6.651
	C615.898,119.429,620.101,118.716,624.419,118.196z"/>
<path style="fill:#1B1D19;" d="M571.611,297.456c3.772,0.299,7.662,0.341,11.4,0.845c-3.028,6.689-5.281,13.726-8.16,20.493
	c-7.103,16.694-14.556,33.251-21.523,50.001c-1.949-2.823-3.173-6.029-4.119-9.309c-1.348-3.868-4.589-8.577-4.661-12.623
	c5.253-12.235,8.674-25.676,13.34-38.228c1.197-3.221,2.329-7.314,4.229-10.171c0.731-1.1,1.174-1.002,2.406-1.277
	C566.937,297.457,569.175,297.571,571.611,297.456z"/>
<path style="fill:#AFAFAB;" d="M564.523,297.187c2.414,0.27,4.652,0.384,7.088,0.269c0.499,0.547,0.837,0.608,0.747,1.406
	c-0.625,5.548-9.649,25.57-12.21,32.189c-3.639,9.404-6.625,19.331-10.939,28.435c-1.348-3.868-4.589-8.577-4.661-12.623
	c5.253-12.235,8.674-25.676,13.34-38.228c1.197-3.221,2.329-7.314,4.229-10.171C562.848,297.364,563.291,297.462,564.523,297.187z"
	/>
<path style="fill:#3E2C1A;" d="M423.504,106.08l1.773-0.481c0.792,0.634,0.699,0.285,0.774,0.986
	c0.417,3.895-0.688,7.815-1.03,11.68c-0.303,3.411-0.131,7.003,0.082,10.419c1.668,26.722,17.69,51.659,37.919,68.513
	c6.606,5.504,13.753,9.486,21.331,13.47c-8.38-1.548-16.816-2.843-25.09-4.911c-16.57-4.143-60.297-17.602-69.707-31.528
	c-2.552-3.777-4.204-8.627-4.96-13.105c2.261-0.795,4.516-1.631,6.791-2.384c4.809,7.453,11.015,15.677,18.796,20.265
	c2.627,1.549,6.84,3.017,8.9,5.134l0.299,1.045c11.584,7.536,26.283,11.519,39.69,14.306c-6.295-4.341-12.245-9.927-17.242-15.695
	c-17.277-19.945-21.736-43.61-19.954-69.362C422.429,111.608,423.373,108.985,423.504,106.08z"/>
<linearGradient id="SVGID_00000000216716441250481770000015054914031616801461_" gradientUnits="userSpaceOnUse" x1="538.9175" y1="656.965" x2="402.8021" y2="656.0988" gradientTransform="matrix(1 0 0 -1 0 1026)">
	<stop  offset="0" style="stop-color:#C38C53"/>
	<stop  offset="1" style="stop-color:#FFC380"/>
</linearGradient>
<path style="fill:url(#SVGID_00000000216716441250481770000015054914031616801461_);" d="M392.358,397.387l1.896,0.569
	c12.896,3.748,27.218,4.801,40.624,5.027c10.678,0.18,22.596,0.653,32.257-4.594c17.385-9.443,22.988-57.631,39.114-65.834
	c2.151-1.095,4.415-1.323,6.716-0.569c3.049,1,5.396,3.306,7.219,5.868c5.611,7.891,8.91,18.235,12.659,27.173
	c3.288,7.839,6.778,15.554,10.405,23.242c-1.536-0.612-1.923-0.848-2.846-2.175c-0.483-0.694-1.13-1.03-1.838-1.466
	c-0.212,1.814,1.728,9.377,0.927,10.019c-1.341-4.159-1.815-8.134-3.768-12.228c0.187,5.374,1.134,10.667,1.962,15.971
	c-2.312,1.738-4.315,3.401-6.259,5.561c-3.089-15.203-4.467-35.648-10.101-49.967l-0.493,0.148l-0.23-0.681
	c-1.561-4.684-1.41-11.033-6.428-13.586c-1.491-0.758-3.088-0.829-4.658-0.318c-8.143,2.65-17.299,24.838-20.822,32.51
	c-2.249,4.899-4.504,9.86-6.328,14.935c-1.596,4.44-2.694,9.689-4.99,13.784l-0.538,0.419c-4.414,1.53-8.64,3.325-13.222,4.346
	c-13.44,2.996-30.171,1.644-43.802-0.194C413.192,404.454,396.094,402.284,392.358,397.387z"/>
<path style="fill:#301B11;" d="M405.565,572.627c6.98-4.702,14.896-8.879,22.516-12.441c-3.222,10.074-6.521,19.84-8.254,30.32
	c-5.1,30.826,0.536,65.562,7.411,95.729c2.897,12.714,6.518,25.363,8.889,38.18c-3.288-3.949-5.053-10.389-6.849-15.24
	c-10.671-28.832-17.491-58.602-19.742-89.292C408.677,608.176,409.266,582.546,405.565,572.627z"/>
<linearGradient id="SVGID_00000050634915512149191800000016491780491315334813_" gradientUnits="userSpaceOnUse" x1="552.3239" y1="912.9873" x2="435.2012" y2="874.7843" gradientTransform="matrix(1 0 0 -1 0 1026)">
	<stop  offset="0" style="stop-color:#A87245"/>
	<stop  offset="1" style="stop-color:#CB9970"/>
</linearGradient>
<path style="fill:url(#SVGID_00000050634915512149191800000016491780491315334813_);" d="M482.802,206.797
	c-15.801-8.429-29.364-21.519-38.971-36.564c-11.233-17.591-17.578-40.654-12.824-61.385c3.189-13.906,15.353-26.077,27.154-33.356
	c21.458-13.235,49.453-18.435,74.149-12.555l0.718,0.461c0.979,0.62,2.003,1.111,3.049,1.603c-1.794-0.171-3.419-0.347-5.204-0.045
	c-6.134-0.952-11.822-0.92-18.009-0.532c-2.826-0.641-5.662-0.258-8.516,0.011c-14.04,1.323-26.431,6.779-38.3,14.224
	c-13.116,8.228-24.137,19.888-27.689,35.344c-4.48,19.496,2.893,41.479,13.293,57.898c4.446,7.019,9.423,13.144,15.161,19.119
	C469.524,193.842,482.268,204.302,482.802,206.797z"/>
<path style="fill:#301B11;" d="M501.874,76.213c3.245-2.557,6.763-4.198,10.58-5.707l1.752,1.673
	c14.134-4.222,26.233,1.36,40.129,2.471c-6.221,0.356-12.47,0.595-18.577,1.925c-14.453,3.148-28.689,13.346-38.422,24.215
	c-15.402,17.201-24.711,38.343-23.357,61.658c0.387,6.674,2.576,13.532,2.666,20.083c-0.269-0.397-0.527-0.803-0.765-1.219
	c-9.6-16.762-7.06-43.421-2.178-61.218C477.697,105.534,488.226,83.987,501.874,76.213z"/>
<path style="fill:#1B1D19;" d="M501.874,76.213c3.245-2.557,6.763-4.198,10.58-5.707l1.752,1.673
	c-3.153,1.374-8.903,5.172-12.135,4.122C502.002,76.279,501.94,76.243,501.874,76.213z"/>
<path style="fill:#3E2C1A;" d="M587.75,547.669c7.816,3.899,12.313,11.5,19.065,16.748c0.987,0.768,1.953,1.559,2.927,2.343
	c0.029,0.219,0.055,0.438,0.088,0.656c0.32,2.129,1.357,4.37,1.988,6.44c1.666,5.472,3.489,11.097,4.359,16.756
	c3.65,23.733-3.11,63.999-7.999,87.589c-3.388-0.783-6.722-1.327-10.172-1.749c6.045-34.377,9.918-70.1,0.347-104.177
	C595.919,563.608,592.888,555.117,587.75,547.669z"/>
<path style="fill:#1B1D19;" d="M367.96,427.041c0.8,1.119,1.468,2.3,2.165,3.485c-1.424,4.997,5.55,19.906,8.214,24.661
	c14.397,25.702,51.184,47.259,74,65.078c13.783,10.765,28.896,26.425,44.835,33.472c-0.656,0.13-1.244,0.245-1.918,0.214
	c-9.977-0.454-21.467-6.481-29.845-11.483c-24.188-14.441-48.164-35.633-68.975-54.652c-6.625-6.055-13.607-11.959-19.676-18.583
	C364.313,455.648,367.263,443.754,367.96,427.041z"/>
<path style="fill:#1B1D19;" d="M628.151,303.223c2.209,0.162,3.303,0.171,4.804,1.976c7.213,8.67,11.332,23.444,10.1,34.644
	c-1.167,10.611-4.656,26.334-13.39,33.416c-6.313,5.119-16.996,8.149-24.988,8.688c2.234-8.083,5.18-16.082,7.705-24.088
	C618.083,339.778,623.641,321.642,628.151,303.223z"/>
<path style="fill:#1B1D19;" d="M604.062,477.809c5.189-4.686,10.747-8.981,16.048-13.545c9.185-7.911,18.112-16.226,26.641-24.839
	c-0.102,22.277,4.487,19.817-12.998,37.116c-1.162,1.15-2.132,2.268-3.659,2.906c-3.277,6.032-24.559,19.034-25.726,21.741
	c-1.198,2.779-0.643,8.403-0.623,11.449c-5.919,5.578-13.627,9.942-20.414,14.425c-13.361,8.826-38.55,27.271-54.37,27.164
	c-0.655-0.004-0.947-0.047-1.646-0.109c27.5-12.548,51.225-36.265,75.945-53.719C603.209,492.904,604.014,485.338,604.062,477.809z"
	/>
<path style="fill:#FEFEFE;" d="M530.845,815.82c7.141-1.717,14.17-3.139,21.473-4.027c11.914,9.548,19.23,29.277,24.287,43.462
	c-8.798,7.792-18.09,14.209-29.083,18.614C539.385,858.532,533.073,833.186,530.845,815.82z"/>
<linearGradient id="SVGID_00000119100515798216194170000002315566495737839523_" gradientUnits="userSpaceOnUse" x1="403.7244" y1="190.1086" x2="416.7292" y2="159.7832" gradientTransform="matrix(1 0 0 -1 0 1026)">
	<stop  offset="0" style="stop-color:#564234"/>
	<stop  offset="1" style="stop-color:#6C5950"/>
</linearGradient>
<path style="fill:url(#SVGID_00000119100515798216194170000002315566495737839523_);" d="M302.234,900.897
	c15.486-17.623,29.062-32.421,50.319-43.371c4.128-2.127,8.449-3.801,12.934-5.002c19.691-5.276,39.583-9.34,59.519-13.54
	l51.986-11.09c15.143-3.157,30.247-7.639,45.432-10.379c1.463-0.264,2.822-0.581,4.279-0.123l0.387,1.638l-0.449,1.407
	c-3.671,1.523-8.145,2.173-12.024,3.247l-27.503,7.754l-92.979,26.891c-13.883,4.009-28.162,6.972-41.785,11.813
	c-8.827,3.138-18.025,7.167-25.606,12.752c-6.359,4.684-19.198,17.576-25.036,19.768l-0.4-0.323L302.234,900.897z"/>
<path style="fill:#AFAFAB;" d="M583.011,298.301c7.635,0.736,15.329,1.301,22.938,2.254l-22.357,61.077
	c-2.546,6.86-4.347,14.818-7.554,21.309c-3.885-1.078-8.047-1.607-11.812-3.032c-5.84-2.21-8.389-5.663-10.898-11.114
	c6.967-16.75,14.42-33.307,21.523-50.001C577.73,312.027,579.983,304.99,583.011,298.301z"/>
<path style="fill:#301B11;" d="M647.309,222.032c11.488,2.811,22.868,3.683,34.585,2.032l0.504,6.113
	c0.458,23.687,2.684,29.977-7.384,52.683c-2.562,5.777-5.133,11.639-8.644,16.911c-3.545-4.13-7.052-8.422-11.61-11.48
	c-2.542-17.264-5.711-34.457-6.985-51.884C646.728,232.188,647.363,226.439,647.309,222.032z"/>
<path style="fill:#1B1D19;" d="M605.949,300.555c5.685-0.254,12.317,0.8,17.888,1.941l4.314,0.727
	c-4.51,18.419-10.068,36.555-15.769,54.636c-2.525,8.006-5.471,16.005-7.705,24.088l-2.769,0.448
	c-7.245,2.189-18.387,1.875-25.87,0.546c3.207-6.491,5.008-14.449,7.554-21.309L605.949,300.555z"/>
<path style="fill:#AFAFAB;" d="M623.837,302.496l4.314,0.727c-4.51,18.419-10.068,36.555-15.769,54.636
	c-2.525,8.006-5.471,16.005-7.705,24.088l-2.769,0.448c0.091-4.512,6.299-20.212,7.987-25.864
	C615.207,338.748,620.596,320.79,623.837,302.496z"/>
<path style="fill:#1B1D19;" d="M369.921,726.396c0.105,0.15,0.211,0.299,0.315,0.45c4.999,7.294,8.362,15.728,13.181,23.159
	c21.602,33.306,39.498,53.307,70.383,77.974c-7.213,1.55-14.364,3.268-21.516,5.081c-3.548-5.214-7.102-10.536-11.236-15.308
	c-4.124-4.759-8.94-9.069-12.67-14.145c-4.471-6.083-7.206-13.436-11.656-19.55c-2.254-3.096-5.234-5.746-8.623-7.54
	c-7.849-4.154-30.832-8.337-40.423-10.277c-0.209-1.05-0.398-2.092-0.539-3.154c-0.784-5.901-0.793-17.154,3.242-21.918
	c1.324-1.564,3.051-2.366,5.091-2.446c9.714-0.38,20.878,11.197,27.379,17.311C377.568,747.165,371.923,736.593,369.921,726.396z"/>
<path style="fill:#4E3B1E;" d="M423.504,106.08c-0.131,2.905-1.075,5.528-1.628,8.352c-1.782,25.752,2.677,49.417,19.954,69.362
	c4.997,5.768,10.947,11.354,17.242,15.695c-13.407-2.787-28.106-6.77-39.69-14.306l-0.299-1.045
	c1.512,0.676,2.698,1.257,4.397,1.253c-13.517-7.543-24-17.726-29.709-32.38c-3.01-7.725-4.198-17.314-0.567-25.013
	C398.649,116.453,412.149,110.105,423.504,106.08z"/>
<path style="fill:#BC8A57;" d="M423.504,106.08c-0.131,2.905-1.075,5.528-1.628,8.352c-6.065,0.094-10.402,1.079-14.89,5.577
	c-5.297,5.307-7.218,12.346-7.07,19.653c0.314,15.463,8.731,28.679,19.711,38.991c4.273,4.012,8.844,7.767,13.696,11.06
	l-0.364,0.357c-2.872-1.548-6.355-3.798-9.479-4.679c-13.517-7.543-24-17.726-29.709-32.38c-3.01-7.725-4.198-17.314-0.567-25.013
	C398.649,116.453,412.149,110.105,423.504,106.08z"/>
<path style="fill:#A27646;" d="M618.037,400.615c12.335-3.525,21.303-8.374,29.654-18.212c1.038,16.54-1.152,33.76-1.384,50.395
	c-7.082,11.334-35.288,34.161-47.073,42.767c3.055-16.096,0.378-33.736,5.944-49.287c2.733-7.635,8.161-14.053,11.334-21.525
	l0.301-0.719C617.333,402.955,617.656,401.752,618.037,400.615z"/>
<path style="fill:#F9CB9D;" d="M569.203,821.183c13.66-5.501,34.808-13.762,49.358-13.108c3.558,0.16,6.848,1.131,10.11,2.497
	c8.108,3.396,28.333,15.268,33.581,22.297c-1.625,1.459-3.21,2.876-5.199,3.834c-8.12,3.913-24.443,3.768-34.165,6.015
	c1.592-2.553,3.066-5.13,4.479-7.785c-14.462,6.337-31.407,16.284-43.027,26.874C582.595,846.9,577.456,833.689,569.203,821.183z"/>
<path style="fill:#303033;" d="M501.945,595.068c2.366-0.173,5.072-0.4,7.358,0.337c9.277,2.99,16.963,15.475,21.109,23.682
	c5.844,11.566,6.074,19.955,2.064,32.079c-5.101,3.796-9.558,6.174-15.851,7.294c-7.564,0.561-14.286-0.2-21.11-3.748
	c-5.672-2.949-11.402-7.791-13.248-14.11c-3.326-11.388,5.365-28.449,10.995-38.046
	C495.667,598.456,497.255,596.261,501.945,595.068z"/>
<path style="fill:#FEFEFE;" d="M559.824,578.731c10.665,2.364,20.791,11.038,26.549,20.083c2.468,3.877,4.215,8.208,6.672,12.025
	c-6.804,14.929-22.739,34.049-36.701,42.569c-6.777-22.997-14.97-38.998-28.001-58.941
	C539.508,590.193,549.798,585.274,559.824,578.731z"/>
<path style="fill:#4E3B1E;" d="M383.333,161.579c0.736,9.359,5.954,17.783,12.985,23.777c2.579,2.199,5.426,3.971,8.303,5.749
	c-0.57,9.694-4.528,16.789-11.706,23.202c-10.668,9.531-27.12,17.101-41.67,16.279c-3.546-0.2-6.662-1.038-9.943-2.364
	c4.894-0.573,9.969,0.594,14.917-0.271c3.874-0.677,18.726-4.725,20.69-7.551c-3.768,1.042-7.352,2.356-11.205,3.105
	c-6.049,1.177-14.928,2.293-20.188-1.539c-2.843-2.071-4.384-5.328-4.775-8.768c-0.961-8.452,3.617-21.407,9.038-27.88
	c3.356-1.668,7.166-7.098,10.006-9.76C366.131,169.61,375.271,164.733,383.333,161.579z"/>
<path style="fill:#1B1D19;" d="M680.866,749.669l0.347,0.192c0.472,2.972-4.239,14.832-5.213,18.288
	c-5.392,19.13-11.56,38.89-13.898,58.655c-8.223-8.465-20.79-14.697-31.474-19.612c-6.565-2.571-12.093-3.223-19.142-3.128
	c9.886-15.156,17.82-31.164,25.846-47.359C651.913,755.108,666.417,752.179,680.866,749.669z"/>
<path style="fill:#F9CB9D;" d="M348.766,424.615c-9.325-4.919-14.674-14.812-20.184-23.382
	c-13.368-20.793-25.79-45.497-20.107-70.957c1.591-7.126,4.51-15.897,11.103-19.854c5.325-3.196,10.877-2.565,16.593-1.106
	c0.52,7.48,1.617,14.371,3.852,21.546c-0.983,2.149-2.311,4.118-3.562,6.119c-2.068-3.796-3.572-8.181-6.251-11.606
	c-1.961-2.507-5.298-4.901-8.568-5.097c-2.295-0.137-4.384,0.834-5.978,2.454c-3.603,3.663-4.213,8.404-4.06,13.27
	c0.105-0.22,0.214-0.439,0.316-0.661c0.424-0.926,0.629-1.862,0.885-2.843c0.738-2.837,2.368-5.278,4.945-6.807
	c1.437-0.852,3.105-1.177,4.731-0.713c3.61,1.029,5.76,4.964,7.313,8.089c4.636,9.334,3.752,15.791,5.369,25.497
	c1.788,10.733,7.72,28.653,13.387,38.053c1.934,2.333,4.754,6.366,7.839,7.11c0.307,0.074,0.629,0.055,0.943,0.083
	c-0.065-2.592-3.234-5.494-4.599-7.771c-0.888-1.481-1.021-2.246-0.594-3.899c1.114-1.14,2.415-1.135,3.912-1.331
	c3.239,3.178,7.232,7.88,7.808,12.48c0.199,4.238,1.158,9.778,0.416,13.888C359.335,421.948,355.564,423.741,348.766,424.615z"/>
<path style="fill:#BC8A57;" d="M311.604,336.002c0.105-0.22,0.214-0.439,0.316-0.661c0.424-0.926,0.629-1.862,0.885-2.843
	c0.738-2.837,2.368-5.278,4.945-6.807c1.437-0.852,3.105-1.177,4.731-0.713c3.61,1.029,5.76,4.964,7.313,8.089
	c4.636,9.334,3.752,15.791,5.369,25.497c1.788,10.733,7.72,28.653,13.387,38.053c-0.516-0.167-1.742-0.392-2.13-0.69
	c-6.55-5.025-21.241-38.769-25.123-48.037c-1.302-3.109-1.809-6.736-3.339-9.688c-0.45-0.868-0.911-1.324-1.767-1.822
	c-1.314,0.123-1.374,0.154-2.368,1.024c-0.878,2.579-0.425,4.93,0.01,7.551c1.958,11.812,7.53,21.307,13.814,31.363
	c1.832,2.933,4.486,5.726,5.44,9.095l-0.262,0.22c-0.405-0.303-0.546-0.381-0.917-0.816c-3.717-4.347-16.592-26.53-18.013-32.363
	c-0.736-3.023-0.387-6.374-0.952-9.467C312.531,340.731,311.39,338.265,311.604,336.002z"/>
<path style="fill:#A27646;" d="M704.461,323.539c2.055,1.312,3.956,2.747,5.872,4.247c1.264,3.871,1.717,8.352,1.861,12.409
	c0.865,24.488-8.059,39.337-19.292,59.791c-3.55,6.464-6.92,13.941-12.082,19.274c-6.371,6.582-14.741,6.563-23.246,6.688
	c-0.523-12.731-2.054-25.443-2.632-38.193c6.288,0.057,17.18,1.064,22.351-2.927c2.017-1.556,3.02-4.216,3.542-6.626
	c0.903-4.167,0.659-8.593,0.666-12.834c0.019-10.588-0.911-22.189,0.552-32.669l0.103-0.707c0.373-0.358,0.747-0.716,1.129-1.065
	c3.481-3.178,8.43-5.918,13.292-5.571c2.234,0.16,4.307,1.022,5.758,2.766c3.752,4.511,1.966,11.436,1.354,16.657
	c0.15-0.236,0.322-0.459,0.451-0.708C707.566,337.475,706.984,330.196,704.461,323.539z"/>
<path style="fill:#BC8A57;" d="M446.532,534.588c21.381,16.569,47.786,28.814,75.447,25.376
	c20.337-2.527,37.625-12.358,54.535-23.246c-0.358,13.915-3.225,24.795-13.542,34.708c-10.652,10.233-25.206,16.234-38.831,21.41
	c-3.57-0.67-7.142-1.403-10.74-1.899c-0.118-0.898-0.475-1.458-1.101-2.109c-4.842-5.037-59.344-36.374-64.622-36.444
	C446.887,546.488,446.567,540.536,446.532,534.588z"/>
<linearGradient id="SVGID_00000015335208339021417770000013792023698178906805_" gradientUnits="userSpaceOnUse" x1="642.8651" y1="797.874" x2="434.7986" y2="772.6154" gradientTransform="matrix(1 0 0 -1 0 1026)">
	<stop  offset="0" style="stop-color:#96734E"/>
	<stop  offset="1" style="stop-color:#DC9766"/>
</linearGradient>
<path style="fill:url(#SVGID_00000015335208339021417770000013792023698178906805_);" d="M606.658,193.281
	c2.667,1.161,5.464,2.266,7.867,3.92c2.844,1.958,5.257,4.574,7.721,6.973c6.52,6.347,12.584,12.059,20.84,16.111
	c0.891,22.697,3.288,44.522,8.136,66.7c-5.035-1.501-10.313-2.82-15.182-4.773c-4.644-7.82-14.088-23.984-23.689-26.252
	c-0.948-0.224-1.891-0.212-2.859-0.211c3.183-11.086,5.538-20.737,3.997-32.311c-0.848-4.869-1.905-10.748-4.34-15.117
	c-3.411-6.121-8.27-5.465-14.356-4.547c-10.565,1.594-21.384,5.577-31.768,8.228c-42.2,10.772-65.011,12.205-107.886,0.264
	c-6.851-1.908-36.507-11.529-39.294-16.454c28.858,10.534,63.798,21.139,94.744,20.185c17.588-0.542,35.893-4.49,52.893-8.812
	C577.211,203.695,593.885,199.183,606.658,193.281z"/>
<path style="fill:#FEFEFE;" d="M423.316,598.122c1.918-3.378,3.054-7.128,4.379-10.765c4.994-13.709,8.055-16.273,19.136-24.894
	c9.706,14.719,30.603,25.361,46.866,31.141c-11.847,18.242-22.813,35.961-27.7,57.434c-15.406-11.226-28.516-27.113-37.983-43.652
	C426.409,604.582,424.196,601.215,423.316,598.122z"/>
<path style="fill:#301B11;" d="M514.215,212.067c20.789-21.365,62.016-37.839,91.706-38.143
	c38.594-0.395,46.293,28.675,75.023,35.353c6.717,1.562,13.735,1.148,20.566,0.839c-10.36,8.915-23.32,10.668-36.499,10.44
	c-25.135-1.44-27.975-10.854-45.755-25.146c-4.239-3.408-11.179-4.545-14.523-8.703l-0.556-0.217
	c-0.481,1.507-0.738,2.872-0.912,4.443C583.453,199.766,536.084,211.653,514.215,212.067z"/>
<path style="fill:#4E3B1E;" d="M482.802,206.797c-0.534-2.495-13.278-12.955-15.989-15.777c-5.738-5.975-10.715-12.1-15.161-19.119
	c-10.4-16.419-17.773-38.402-13.293-57.898c3.552-15.456,14.573-27.116,27.689-35.344c11.869-7.446,24.26-12.902,38.3-14.224
	c2.854-0.269,5.69-0.652,8.516-0.011c-20.089,5.987-34.201,13.141-44.545,32.351c-5.177,9.613-9.644,21.426-9.078,32.497
	l-0.915-0.317l1.557-0.562l-0.005-0.728c0.007-15.817,9.341-33.65,20.382-44.648c11.072-11.031,27.536-17.197,43.085-17.091
	c6.928,0.048,13.088,1.925,19.611,4.02c-10.678-1.792-19.931-2.237-30.502,0.561c-3.817,1.51-7.335,3.151-10.58,5.707
	c-13.648,7.774-24.177,29.321-28.172,43.882c-4.882,17.797-7.422,44.456,2.178,61.218c0.238,0.416,0.496,0.822,0.765,1.219
	c3.587,10.803,10.294,21.039,18.31,29.063C491.512,210.752,485.155,209.654,482.802,206.797z"/>
<path style="fill:#F4B583;" d="M300.454,782.407c2.116-0.799,3.743-0.829,5.977-0.662c12.088,0.902,24.027,3.437,36.039,4.993
	c7.566,0.98,33.917,2.479,39.036,4.843c9.444,4.359,20.529,12.828,28.03,20.248c7.263,6.407,12.913,14.677,18.34,22.641
	c-17.276,3.32-34.63,7.168-51.688,11.461c-4.964-4.485-10.197-8.635-15.179-13.079c-1.858-1.348-3.724-2.741-5.849-3.644
	c-5.566-2.365-12.134-3.355-18.004-4.824c-6.754-1.69-13.395-3.75-20.029-5.853c-4.065-1.288-8.366-2.447-11.959-4.823
	c-2.512-1.661-4.947-4.072-5.504-7.151c-0.485-2.679,0.459-4.414,1.894-6.599c0.935-1.133,1.522-1.906,2.972-2.397
	c3.944,0.705,7.515,2.609,11.431,3.395c12.318,2.474,45.958,6.358,55.113,10.803c8.352,6.833,16.92,13.299,25.4,19.962
	c1.754,0.882,3.492,2.289,5.143,3.381c-6.012-6.827-22.508-22.358-30.424-25.902c-5.188-2.323-11.617-2.701-17.197-3.652
	c-13.011-2.217-26.723-3.903-39.489-7.138l-0.518-0.136c-3.351-0.11-9.492-1.838-12.341-3.477c-1.626-0.936-2.996-2.439-3.426-4.304
	C297.565,787.644,298.92,784.714,300.454,782.407z"/>
<path style="fill:#F9CB9D;" d="M301.558,799.958c0.935-1.133,1.522-1.906,2.972-2.397c3.944,0.705,7.515,2.609,11.431,3.395
	c12.318,2.474,45.958,6.358,55.113,10.803c-0.99,1.775-2.049,2.73-3.626,3.995l-0.233,0.65c-0.179,2.223-0.186,4.282,0.022,6.504
	c-4.758,0.846-10.715-0.819-15.665-0.796c-10.492-1.762-39.925-6.151-46.947-13.381C302.04,806.069,301.497,803.57,301.558,799.958z
	"/>
<path style="fill:#F9CB9D;" d="M300.454,782.407c2.116-0.799,3.743-0.829,5.977-0.662c12.088,0.902,24.027,3.437,36.039,4.993
	c7.566,0.98,33.917,2.479,39.036,4.843c9.444,4.359,20.529,12.828,28.03,20.248c-3.437,1.537-12.02-2.198-16.258-2.515
	c-2.764-0.207-5.962-0.195-8.601-1.063c-3.364-1.107-6.417-3.187-9.905-3.906c-4.14-0.853-8.516-1.237-12.703-1.9
	c-12.978-2.055-25.999-3.88-38.916-6.296c-5.813-1.087-11.908-2.047-17.486-4.05C303.31,789.069,301.369,786.221,300.454,782.407z"
	/>
<path style="fill:#F9CB9D;" d="M372.592,427.394c-1.661-10.519-2.219-21.323-3.217-31.934c-0.467-4.97-1.558-10.172-1.478-15.145
	c0.024-1.512,0.091-2.642,1.192-3.716c1.547,1.193,2.613,3.419,3.667,5.052c5.47,8.481,10.389,11.819,19.602,15.736
	c3.736,4.897,20.834,7.067,27.456,7.96c13.631,1.838,30.362,3.19,43.802,0.194c4.582-1.021,8.808-2.816,13.222-4.346
	c-0.019,0.322-0.034,0.645-0.057,0.966c-0.497,6.979-5.817,15.555-0.649,22.05c1.178,1.481,2.898,2.447,3.484,4.313
	c-12.255,2.296-28.775,5.798-37.799,15.066c-9.375,9.629-11.058,24.141-10.947,36.873c-3.949-2.858-7.8-5.824-11.645-8.817
	c-3.906-17.167-4.391-36.351-9.488-52.882c0.368,16.648,3.317,33.944,5.514,50.459C398.874,457.84,384.913,442.926,372.592,427.394z
	"/>
<path style="fill:#3E2C1A;" d="M646.571,600.628c20.022,8.115,40.554,20.16,59.814,30.101c8.355,4.312,17.492,9.736,26.553,12.231
	c-27.366,22.85-44.947,69.773-54.732,103.229c-8.762,1.844-17.532,3.551-26.346,5.128l-0.704-0.517
	c-0.837-3.425,18.663-46.858,21.662-53.723l-6.49-1.117c-12.661-6.091-26.591-11.137-39.916-15.62
	c15.066-2.308,32.558-8.534,47.753-12.314c-4.926-13.69-9.675-27.574-15.408-40.947
	C654.933,618.158,650.191,609.636,646.571,600.628z"/>
<path style="fill:#F9CB9D;" d="M477.376,400.776c2.296-4.095,3.394-9.344,4.99-13.784c1.824-5.075,4.079-10.036,6.328-14.935
	c3.523-7.672,12.679-29.86,20.822-32.51c1.57-0.511,3.167-0.44,4.658,0.318c5.018,2.553,4.867,8.902,6.428,13.586l0.23,0.681
	l0.493-0.148c5.634,14.319,7.012,34.764,10.101,49.967c1.944-2.16,3.947-3.823,6.259-5.561c-0.828-5.304-1.775-10.597-1.962-15.971
	c1.953,4.094,2.427,8.069,3.768,12.228c0.801-0.642-1.139-8.205-0.927-10.019c0.708,0.436,1.355,0.772,1.838,1.466
	c0.923,1.327,1.31,1.563,2.846,2.175c5.219,7.496,7.075,6.625,13.199,11.398c18.34,6.057,42.959,5.906,61.59,0.948
	c-0.381,1.137-0.704,2.34-1.224,3.419l-0.301,0.719c-3.173,7.472-8.601,13.89-11.334,21.525
	c-5.566,15.551-2.889,33.191-5.944,49.287l-2.623,1.832c-2.028-4.599,1.278-10.923-1.35-15.489
	c-0.737-1.282-1.756-1.492-3.076-1.873c-1.133-3.937-2.401-7.747-4.655-11.207c-8.255-12.673-26.654-16.948-40.462-19.676
	c0.878-4.305,2.149-9.085,1.678-13.5l-0.644-2.675c-0.518-0.746-0.773-1.879-1.053-2.746c-0.585-1.81-0.828-2.583-2.335-3.819
	c-0.993-2.619-1.873-5.247-3.403-7.61c1.281,4.519,3.724,10.023,2.969,14.716c-1.733,1.929-9.206,1.67-11.959,2.416
	c-7.835,2.123-10.877,10.354-19.625,12.761c-6.837-1.438-13.079-6.134-17.096-11.892c-0.082-0.118-0.133-0.255-0.2-0.382
	c-3.349-1.584-6.932-2.125-10.542-2.84c-2.007,0.665-3.448,1.385-5.468,0.52c-0.863-1.132-1.197-1.966-1.116-3.389
	c0.225-3.967,2.83-8.672,5.674-11.359l-0.019-0.417c-2.245,0.895-3.059,1.95-4.268,4.024L477.376,400.776z"/>
<path style="fill:#040202;" d="M520.832,354.132l0.493-0.148c5.634,14.319,7.012,34.764,10.101,49.967
	c-0.126,0.867-0.372,1.656-0.616,2.496l-0.509-0.109c-1.904-5.042-2.465-11.327-3.425-16.651
	C524.741,377.86,522.66,366.01,520.832,354.132z"/>
<path style="fill:#F4B583;" d="M556.447,399.667c18.34,6.057,42.959,5.906,61.59,0.948c-0.381,1.137-0.704,2.34-1.224,3.419
	c-14.238,2.327-27.318,4.902-41.89,2.69C569.887,405.959,559.572,403.907,556.447,399.667z"/>
<path style="fill:#F4B583;" d="M483.929,398.936c0.287-0.055,0.575-0.106,0.861-0.166c0.768-0.16,1.254-0.288,1.929-0.638
	c1.649-4.438,9.18-23.679,12.705-25.711c1.018,2.754-6.153,29.876-6.89,35.661c-0.388,3.474,1.606,5.308,2.866,8.339
	c-3.349-1.584-6.932-2.125-10.542-2.84c-2.007,0.665-3.448,1.385-5.468,0.52c-0.863-1.132-1.197-1.966-1.116-3.389
	c0.225-3.967,2.83-8.672,5.674-11.359L483.929,398.936z"/>
<path style="fill:#4E3B1E;" d="M607.279,122.102c4.907-0.464,10.831,3.149,15.128,5.315c16.271,8.197,28.62,20.346,38.882,35.3
	c12.43,18.115,18.419,38.051,41.658,44.855c-6.425,0.601-12.63,1.04-19.014-0.161c-29.954-5.634-36.488-35.213-77.37-35.912
	c-0.649-0.004-1.297,0.002-1.946,0.021c-29.029,0.842-71.519,16.94-91.668,38.731c3.214-10.214,7.778-20.114,13.785-29
	C544.334,155.215,576.114,128.252,607.279,122.102z"/>
<path style="fill:#FEFEFE;" d="M585.268,630.445c4.14,7.101,6.452,15.466,8.172,23.452c0.72,3.341,1.14,6.938,2.179,10.189
	c-3.326,22.846-8.048,45.414-13.751,67.78c-2.261,8.869-4.304,18.038-7.598,26.587c-2.903,2.95-4.59,7.489-6.698,11.063
	c-5.364,9.095-14.407,19.375-23.622,24.687c-3.867-16.71-2.934-35.352-3.189-52.468c-0.432-28.994-0.548-58.842-5.206-87.515
	c2.495-2.154,4.888-4.435,7.308-6.674c3.309,2.437,6.603,5.171,10.093,7.33l1.629,4.511
	C566.943,651.377,576.282,641.999,585.268,630.445z"/>
<path style="fill:#3E2C1A;" d="M296.925,644.077c17.539-12.535,36.162-22.024,55.503-31.447c7.474-3.641,15.053-7.786,22.887-10.549
	l-0.139,0.391c-2.071,5.681-4.95,11.056-7.041,16.736c-5.956,16.174-10.175,32.62-12.868,49.632l26.586,6.009
	c5.92,1.33,11.977,2.973,18.031,3.47c-14.765,4.926-30,10.281-43.928,17.253c4.017,10.406,8.996,20.832,13.965,30.824
	c2.002,10.197,7.647,20.769,12.928,29.637c-6.501-6.114-17.665-17.691-27.379-17.311c-2.04,0.08-3.767,0.882-5.091,2.446
	c-4.035,4.764-4.026,16.017-3.242,21.918c0.141,1.062,0.33,2.104,0.539,3.154c-3.702-1.248-7.593-1.947-11.411-2.755
	C332.792,726.793,324.203,670.695,296.925,644.077z"/>
<path style="fill:#303033;" d="M489.768,671.583l0.45-0.6c0.138,0.03,0.274,0.064,0.412,0.09c7.516,1.443,19.775-1.493,27.548-2.941
	c4.573,5.309,8.85,10.255,14.227,14.811c-0.469,27.911,0.138,55.841,0.259,83.757c2.148,9.578-0.16,28.972,0.351,39.888
	c-12.364,3.079-29.877,6.11-41.264,10.99c-2.668,0.702-5.268,1.432-7.866,2.371l-0.749-0.722
	c-1.398-8.059-1.038-17.004-1.258-25.192C480.785,753.38,482.944,711.709,489.768,671.583z"/>
<linearGradient id="SVGID_00000003825997962476844280000016333315623301860774_" gradientUnits="userSpaceOnUse" x1="481.9572" y1="280.696" x2="519.1073" y2="277.1715" gradientTransform="matrix(1 0 0 -1 0 1026)">
	<stop  offset="0" style="stop-color:#8D8D8D"/>
	<stop  offset="1" style="stop-color:#B4B2B2"/>
</linearGradient>
<path style="fill:url(#SVGID_00000003825997962476844280000016333315623301860774_);" d="M489.768,671.583l0.654,0.423
	c0.271,6.548-1.348,13.986-1.954,20.563c-1.235,13.395-2.153,26.813-2.947,40.241c7.584,5.729,42.622,33.253,45.916,38.522
	c-13.445-7.605-33.572-24.584-46.096-34.532c-1.231,18.932-1.735,38.072-1.788,57.046c-0.022,7.714,1.819,18.869,0.332,26.103
	l-0.749-0.722c-1.398-8.059-1.038-17.004-1.258-25.192C480.785,753.38,482.944,711.709,489.768,671.583z"/>
<path style="fill:#FEFEFE;" d="M422.12,604.037c1.89,4.607,4.982,8.953,7.764,13.074c10.58,15.675,22.684,30.218,38.963,40.254
	l1.357-6.463c4.407-0.876,9.427,0.417,14.016-0.205c1.589,1.654,3.152,3.274,4.92,4.743c-6.422,42.41-10.589,84.853-10.648,127.785
	c-0.017,12.546-0.351,25.896,1.931,38.268l-9.007,2.118c-5.773-13.59-10.183-27.746-14.834-41.747
	C439.574,730.671,418.897,657.662,422.12,604.037z"/>
<path style="fill:#4E3B1E;" d="M480.099,160.402c1.761-3.01,1.922-10.897,2.799-14.758c3.398-14.945,12.325-29.672,21.986-41.355
	c8.783-10.621,23.697-24.756,38.181-25.991c37.355-3.185,71.784,9.118,100.334,32.994c-0.456,0.17-0.882,0.482-1.367,0.509
	c-2.832,0.156-7.397-1.787-10.271-2.415c-5.233-1.142-10.886-1.817-16.246-1.579c-23.151,1.031-49.662,13.302-66.349,29.177
	c-2.497,2.375-6.44,6.057-7.74,9.255c-0.099,0.242-0.167,0.495-0.251,0.743c-18.629,19.508-29.869,37.73-31.096,65.145
	c-4.749-0.123-9.546-0.109-14.279-0.508c-1.867-3.581-4.688-6.521-6.397-10.176c-0.022-4.015-2.88-9.102-4.254-12.939
	C482.031,179.794,479.69,169.693,480.099,160.402z"/>
<path style="fill:#040202;" d="M580.788,85.556c0.682-0.013,0.354-0.086,0.981,0.239c-22.269,8.461-39.995,16.364-55.903,35.18
	c-19.054,22.536-27.495,48.631-24.987,77.928l-0.136,0.054c-0.274-0.441-0.396-0.59-0.571-1.148
	c-1.115-3.555-1.191-8.148-1.228-11.85c-0.167-16.598,3.77-31.956,11.619-46.564C525.926,110.806,550.275,94.697,580.788,85.556z"/>
<path style="fill:#1B1D19;" d="M543.275,874.836c4.299,7.74,8.017,15.747,12.952,23.128c-23.121,16.233-48.618,28.036-74.377,39.377
	c-13.067,5.752-25.939,11.673-39.684,15.661c-25.573,7.418-52.684,11.665-78.908,16.199l-24.932,4.36
	c-6.578,1.197-13.312,2.727-20,3.055c-6.921-9.024-28.506-37.66-29.617-47.728c4.682,4.681,10.053,7.865,16.398,9.737
	c14.78,4.363,32.134,2.457,47.266,0.64C419.476,931.206,484.012,906.679,543.275,874.836z"/>
<path style="fill:#4E3B1E;" d="M405.565,572.627c3.701,9.919,3.112,35.549,3.971,47.256c2.251,30.69,9.071,60.46,19.742,89.292
	c1.796,4.851,3.561,11.291,6.849,15.24c0.744,6.073,3.503,13.014,5.217,18.968c7.803,27.108,16.899,54.439,26.969,80.785
	c-2.798,0.711-5.641,1.288-8.46,1.913c-6.839-4.836-13.766-9.575-20.166-14.989c-36.08-30.518-58.754-70.917-78.161-113.28
	c10.884-5.224,22.344-9.79,33.73-13.801c6.575-2.317,14.751-4.003,20.746-7.538l-0.208-1.219l-0.652,1.201
	c-1.971,0.493-3.957,0.926-5.938,1.375c-0.618-0.8-1.246-1.75-2.198-2.173c-2.787-1.239-7.648-1.531-10.758-2.209
	c-12.069-2.629-24.115-5.353-36.227-7.78c2.328-12.902,4.625-27.87,10.32-39.776c2.291-1.266,5.098-9.262,6.328-11.836
	c4.325-9.049,8.831-17.273,14.728-25.395c2.678-3.689,6.159-7.116,8.485-10.985l-0.46-1.08
	C400.398,575.01,403.93,573.54,405.565,572.627z"/>
<path style="fill:#4E3B1E;" d="M609.742,566.76c3.25,1.961,7.884,4.325,10.388,7.168c16.161,12.37,30.594,43.463,37.668,62.549
	c4.994,8.996,8.092,19.717,12.113,29.244c-10.132,2.032-45.729,9.831-52.826,14.626c5.781,3.359,12.414,5.492,18.661,7.847
	c8.514,3.208,17.03,6.416,25.6,9.471c-9.007,16.866-17.174,34.175-25.198,51.526c-5.85,12.648-15.872,34.683-23.756,45.825
	c-6.403,3.973-13.035,8.45-18.934,13.129c-9.707,3.721-19.517,7.179-29.239,10.865c-2.698-2.891-5.193-6-7.87-8.923
	c21.291-32.123,34.416-95.338,41.657-133.635c3.45,0.422,6.784,0.966,10.172,1.749c4.889-23.59,11.649-63.856,7.999-87.589
	c-0.87-5.659-2.693-11.284-4.359-16.756c-0.631-2.07-1.668-4.311-1.988-6.44C609.797,567.198,609.771,566.979,609.742,566.76z"/>
<linearGradient id="SVGID_00000054258326617700480150000013782838417364739252_" gradientUnits="userSpaceOnUse" x1="638.3356" y1="420.4381" x2="641.6099" y2="422.3108" gradientTransform="matrix(1 0 0 -1 0 1026)">
	<stop  offset="0" style="stop-color:#69503F"/>
	<stop  offset="1" style="stop-color:#7C6C61"/>
</linearGradient>
<path style="fill:url(#SVGID_00000054258326617700480150000013782838417364739252_);" d="M620.13,573.928
	c16.161,12.37,30.594,43.463,37.668,62.549l-0.632,0.201c-2.229-1.257-11.968-23.181-13.931-26.878
	c-2.646-4.982-5.643-9.885-8.591-14.694c-4.342-7.082-9.799-13.437-15.036-19.864L620.13,573.928z"/>
<path style="fill:#EFEFEF;" d="M351.963,430.996c3.666,0.551,7.274,0.993,10.976,1.209c-0.956,12.784-0.992,27.344,7.839,37.659
	c7.071,8.258,15.684,15.753,23.772,22.989c15.115,13.521,30.65,26.661,47.224,38.364c-0.027,3.137,0.184,6.267,0.353,9.398
	c-5.711,3.826-8.556,8.955-11.923,14.789c-11.205,4.781-29.904,14.058-38.572,22.202c-3.877,3.642-6.785,7.885-9.691,12.305
	c-20.567,6.739-84.09,37.701-98.132,50.458c-1.976,1.795-3.194,3.71-4.397,6.061c-7.026,13.732-11.292,36.395-14.621,51.708
	c-5.255-8.026-6.185-28.654-5.391-38.073c1.771-21.009,12.645-42.757,28.923-56.268c21.37-17.737,43.473-18.928,69.927-16.55
	c-9.842-14.542-17.536-30.726-21.848-47.759c-8.709-34.405-5.308-73.702,13.046-104.493
	C350.225,433.605,350.956,432.239,351.963,430.996z"/>
<path style="fill:#301B11;" d="M661.967,849.694c4.687-26.756,10.769-53.569,18.138-79.709
	c10.265-36.409,26.343-74.661,50.308-104.194c2.707-3.336,6.637-9.255,10.518-11.11c1.151-0.55,1.678-0.527,2.833-0.082
	c1.307,1.485,1.853,2.965,2.543,4.801c1.045,2.956,2.142,5.9,2.975,8.925c3.753,13.762,5.838,27.206,7.615,41.328
	c0.26,16.239,0.983,32.422,0.545,48.673c-0.894,33.162-6.492,64.32-15.142,96.289c-0.859,5.545-3.281,10.685-4.522,16.121
	c-2.648,11.603-4.188,36.791-14.405,44.303c-1.575,1.159-3.953,2.169-5.929,1.776c-1.252-0.25-2.224-1.969-2.871-2.976
	c-5.325-13.145-11.698-26.46-19.646-38.233c3.169-0.146,7.508,2.446,10.432,1.151c-2.91-3.592-7.401-6.322-11.189-8.884
	c-1.419-2.869-4.808-5.618-6.777-8.271c-7.134-4.426-15.773-5.779-23.622-8.51c9.512,0.376,19.341-0.11,28.282,3.797
	c1.127,2.675,7.187,4.384,9.785,5.442c5.91,2.405,10.938,4.943,16.135,8.672c4.175,2.994,9.853,8.692,14.436,10.429
	c0.055-0.627,0.105-0.721-0.071-1.429c-1.689-6.768-14.469-18.117-20.441-21.854l-0.627,0.517c-4.14,0.357-16.54-2.904-20.18-4.963
	C681.381,849.977,671.791,849.904,661.967,849.694z"/>
<path style="fill:#4E3B1E;" d="M746.307,659.4c1.045,2.956,2.142,5.9,2.975,8.925c-6.19,1.035-11.237,4.73-15.961,8.648
	c-0.133-1.475-0.14-2.721,0.422-4.128C736.045,667.083,740.659,661.998,746.307,659.4z"/>
<path style="fill:#1B1D19;" d="M675.01,843.333c12.362,0.264,27.173,5.036,36.887,12.816l-0.627,0.517
	c-4.14,0.357-16.54-2.904-20.18-4.963C687.491,847.831,679.846,845.618,675.01,843.333z"/>
<path style="fill:#7A7E74;" d="M733.321,676.973c4.724-3.918,9.771-7.613,15.961-8.648c3.753,13.762,5.838,27.206,7.615,41.328
	c0.26,16.239,0.983,32.422,0.545,48.673c-0.894,33.162-6.492,64.32-15.142,96.289c-0.597-3.562,5.265-27.223,6.221-32.705
	C756.933,773.708,753.777,721.894,733.321,676.973z"/>
<path style="fill:#F9CB9D;" d="M408.729,192.058l7.116,3.754c2.787,4.925,32.443,14.546,39.294,16.454
	c42.875,11.941,65.686,10.508,107.886-0.264c10.384-2.651,21.203-6.634,31.768-8.228c6.086-0.918,10.945-1.574,14.356,4.547
	c2.435,4.369,3.492,10.248,4.34,15.117c1.541,11.574-0.814,21.225-3.997,32.311c-3.429,0.715-6.913,1.071-10.339,1.819
	c-9.921,2.165-24.624,6.368-33.979,10.39c6.769-1.234,43.871-7.947,47.58-6.246c0.488,0.223,0.901,0.585,1.351,0.877
	c2.505,6.681,12.535,12.946,13.651,16.381l-0.613,0.767c-17.584-2.685-35.669-2.811-53.428-2.996l-65.745-0.034l-46.86-0.085
	c-24.04-0.166-48.499-0.346-72.31,3.33c3.67-9.419,10.712-15.846,19.313-20.734c16.404,2.033,32.461,6.365,49.02,7.89
	c-10.202-3.816-38.975-13.192-48.917-12.937c-2.105,0.054-3.835,0.801-5.727,1.658c-7.127,6.163-13.152,15.564-15.79,24.639
	c-3.981,2.086-7.149,5.123-10.58,7.991c-1.987-2.275,0.213-41.153,0.391-47.144c3.334-9.606,6.869-13.505,14.995-19.525
	c4.027-2.984,9.465-6.524,10.255-11.826C405.518,204.002,407.592,199.063,408.729,192.058z"/>
<path style="fill:#303033;" d="M362.501,307.807c0.05-1.377,0.105-2.755,0.187-4.131c0.161-2.674,0.546-5.799,2.79-7.607
	c8.764-7.065,53.226-10.232,64.931-10.837c26.106-1.349,54.559-0.339,80.894-0.312c32.96,0.034,66.483-0.992,99.317,2.529
	c8.971,0.962,34.311,4.155,40.953,8.264c2.042,1.263,3.719,3.768,5.222,5.627c-1.715-0.127-3.569-1.217-5.347-1.547
	c-6.409-1.188-14.191-2.451-20.592-1.405c-19.276-2.656-38.344-4.631-57.761-5.854c-7.591-0.479-15.491-1.479-23.073-0.578
	c-4.971,0.591-10.198,1.96-14.192,5.095c-4.265,3.348-6.656,8.119-7.141,13.485c-0.268,2.959,0.211,5.712,0.818,8.583
	c2.596,6.912,5.793,13.588,8.54,20.445c4.463,11.141,9.131,26.785,15.832,36.429c1.782,2.564,4.046,4.33,6.9,5.582
	c16.97,7.442,45.834,4.546,62.574-2.249c8.118-3.295,12.871-8.088,16.195-16.132c2.186-5.291,3.628-10.926,4.86-16.505
	c3.099-14.038,2.21-21.617-3.401-34.849l-1.372-3.179c7.121,5.898,8.896,10.45,9.781,19.504c0.575,5.881,0.464,11.835,0.181,17.73
	c-1.954,13.521-2.529,29.652-14.692,38.498c-15.165,11.03-51.977,11.636-70.2,8.4c-4.552-0.808-8.694-2.887-12.746-5.059
	c-0.901-0.484-2.496-1.663-3.421-1.893c-0.531-0.132-1.09,0.091-1.634,0.137c-7.132-11.092-11.651-24.418-17.046-36.46
	c-2.472-5.52-4.92-11.71-8.914-16.318c-2.119-2.444-4.7-4.071-7.865-4.804c-3.436-0.797-6.796,0-9.685,1.971
	c-9.269,6.324-18.006,29.391-22.898,40.22c-1.903,4.213-3.65,9.162-6.586,12.757c-2.087,2.555-5.119,4.245-7.916,5.91
	c-3.472,1.131-7.131,2.205-10.736,2.815c-14.798,2.504-56.685,0.415-68.543-8.558c-9.458-7.157-12.892-24.191-14.305-35.195
	c-2.368-3.441-1.402-21.945-2.571-27.21C368.773,316.307,362.832,312.953,362.501,307.807z"/>
<path style="fill:#040202;" d="M523.514,295.41c1.023-3.424,1.936-6.852,2.777-10.325c0.314,4.853,1.1,10.716-2.23,14.792
	c-2.198,2.689-5.567,3.437-8.879,3.61c-4.182,0.219-11.693,0.276-14.801-2.717c-1.654-1.592-3.233-4.814-3.039-7.16
	c0.06-0.726,0.125-0.811,0.338-1.417l0.599,0.074c0.988,1.301,1.327,2.654,1.778,4.192
	C507.674,295.284,515.821,295.553,523.514,295.41z"/>
<path style="fill:#1B1D19;" d="M500.057,296.459c7.617-1.175,15.764-0.906,23.457-1.049c-0.729,1.836-1.398,3.514-3.343,4.358
	c-4.057,1.762-13.38,1.376-17.42-0.26C501.273,298.91,500.749,297.789,500.057,296.459z"/>
<path style="fill:#040202;" d="M374.563,342.173c-1.726-9.996-3.348-21.342,0.578-31.043c2.262-5.59,5.669-9.816,11.33-12.21
	c4.36-1.844,9.264-3.232,13.932-4.051c15.26-2.678,67.369-6.535,80.967-0.859c4.941,2.063,8.323,5.709,10.364,10.619
	c2.379,5.724,2.275,9.407,0,14.999c-4.27,9.167-8.527,18.338-12.592,27.598c-4.143,9.437-7.94,21.382-14.442,29.432
	c-2.306,2.854-5.259,4.615-8.68,5.856c-16.162,5.862-44.753,4.207-60.319-3.121c-9.074-4.272-13.046-11.717-16.226-20.765
	C377.579,353.234,376.048,347.693,374.563,342.173z"/>
<path style="fill:#1B1D19;" d="M457.767,296.459c6.878-1.453,19.512-0.892,25.638,3.026c3.271,2.092,5.174,5.346,5.809,9.142
	c0.564,3.37,0.044,6.585-0.956,9.817c-2.315,7.48-6.723,14.815-9.946,21.968c-4.72,10.474-9.638,25.862-16.174,34.929
	c-2.801,3.886-6.66,4.906-11.07,6.011c6.471-6.566,16.387-31.729,18.992-41.197c2.096-7.614,3.297-15.485,5.335-23.145
	C472.047,307.112,466.117,302.162,457.767,296.459z"/>
<path style="fill:#AFAFAB;" d="M420.103,297.957c5.797,0.286,12.01-0.674,17.822-1.056c6.611-0.434,13.219-0.433,19.842-0.442
	c8.35,5.703,14.28,10.653,17.628,20.551c-2.038,7.66-3.239,15.531-5.335,23.145c-2.605,9.468-12.521,34.631-18.992,41.197
	c-8.534,3.526-21.322,2.642-30.38,2.06c-9.831-1.599-22.667-3.468-30.259-10.625c-9.461-8.919-14.089-33.333-14.062-45.759
	c0.019-8.762,4.83-16.829,10.926-22.869c0.164-0.238,0.286-0.511,0.492-0.714c2.493-2.46,13.926-3.798,17.58-4.071
	c4.238-0.457,8.507-0.736,12.755-1.092C418.735,297.898,419.389,298.001,420.103,297.957z"/>
<path style="fill:#1B1D19;" d="M418.12,298.282c0.615-0.384,1.269-0.281,1.983-0.325c0.271,2.414,0.719,4.833,0.098,7.218
	c-2.311,8.885-8.384,20.472-12.153,29.084c-4.33,9.893-11.37,28.442-17.047,36.906c-0.014-3.484,0.14-6.602,0.993-10.001
	c1.653-6.586,4.702-12.833,7.394-19.043c3.901-9.003,7.601-18.194,11.759-27.071c2.154-4.6,4.822-8.983,6.924-13.596
	c0.495-1.087,1.074-1.878,0.449-2.971L418.12,298.282z"/>
<path style="fill:#1B1D19;" d="M387.293,304.159c0.164-0.238,0.286-0.511,0.492-0.714c2.493-2.46,13.926-3.798,17.58-4.071
	c0.791,4.054,1.411,7.418,0.588,11.553c-0.7,3.512-16.131,41.744-17.748,43.738c-0.475,0.585-0.571,0.604-1.114,0.976
	c-0.727-0.044-1.036,0.114-1.575-0.478c-1.188-1.307-1.668-3.519-2.22-5.184c-2.533-7.646-4.338-14.806-3.345-22.895
	c0.5-4.071,1.494-8.061,2.826-11.937C383.847,312.034,387.325,307.169,387.293,304.159z"/>
<path style="fill:#1B1D19;" d="M455.279,299.526l0.157,0.157c24.338,24.243,11.159,40.886-0.065,68.012
	c-1.739,4.202-4.317,9.066-4.303,13.657c-8.534,3.526-21.322,2.642-30.38,2.06c6.514-17.591,13.902-34.852,21.055-52.188
	C446.061,320.758,449.914,309.452,455.279,299.526z"/>
<path style="fill:#3E2C1A;" d="M435.013,487.413c0.121-13.074-0.309-30.576,9.94-40.479c11.173-10.794,42.773-17.38,58.392-16.857
	c3.189,0.107,5.959,0.68,8.84,2.062c2.316-0.706,4.679-1.489,7.1-1.714c14.432-1.338,40.987,4.419,53.635,11.059
	c7.666,4.026,12.783,9.849,15.255,18.179c1.729,5.828,1.951,12.628,2.045,18.679c0.039,2.484-0.224,5.354,0.258,7.766
	c4.605-1.167,9.772-5.536,13.584-8.299c-0.048,7.529-0.853,15.095-0.802,22.589c-24.72,17.454-48.445,41.171-75.945,53.719
	c-5.225,1.198-10.326,1.83-15.686,1.947c2.367-11.133,2.179-46.651-0.081-58.047l0.102-0.827c0.718,4.521-0.406,10.705-0.573,15.386
	c-0.47,13.208,0.641,30.397-2.227,43.081c-3.972-0.155-7.868-0.787-11.676-1.92c-15.939-7.047-31.052-22.707-44.835-33.472
	c-22.816-17.819-59.603-39.376-74-65.078c-2.664-4.755-9.638-19.664-8.214-24.661c3.971,5.308,7.891,10.635,12.405,15.504
	C395.647,460.182,418.213,477.842,435.013,487.413z"/>
<path style="fill:#040202;" d="M512.377,451.825c0.701,0.562,0.425,0.265,0.981,1.049c0.514,0.725,1.014,1.455,1.552,2.163
	c5.375,7.064,13.21,11.192,21.954,12.353c12.292,1.631,23.65-1.9,33.426-9.286c2.571,2.438,4.883,4.825,6.666,7.923
	c5.064,8.796,4.76,19.07,2.205,28.603c-7.222,7.182-31.416,22.445-40.711,22.489c-0.981-0.524-1.319-0.766-1.873-1.79
	c-1.04-1.925-1.565-4.353-2.238-6.434c-1.759-5.436-3.687-11.151-6.788-15.991c-3.25-5.071-7.534-7.961-13.402-9.167l-0.664-0.132
	c-2.632-0.212-4.968-0.06-7.395,1.088c-10.869,5.142-15.713,22.625-19.278,33.111c-12.268-4.481-29.616-12.045-38.448-22.022
	c-3.569-4.032-4.563-9.247-4.145-14.498c0.729-9.139,5.021-16.853,11.96-22.716c1.533,1.376,3.292,2.638,5.079,3.674
	c9.28,5.381,21.708,6.937,32.041,4.085C501.277,464.125,508.276,459.057,512.377,451.825z"/>
<path style="fill:#F9CB9D;" d="M529.018,488.121c5.297,0.074,10.249,1.919,15.699,1.412c16.415-1.526,21.458-14.903,30.956-16.178
	c1.436,6.926,0.872,12.612-0.19,19.553c-10.867,8.613-23.034,15.022-35.492,20.979C537.534,504.905,534.282,495.874,529.018,488.121
	z"/>
<path style="fill:#F4B583;" d="M512.72,459.356c5.727,7.398,13.969,11.594,23.206,12.763c12.108,1.533,23.606-2.169,33.693-8.696
	l2.296,2.441c1.582,2.439,2.674,4.809,3.758,7.491c-9.498,1.275-14.541,14.652-30.956,16.178c-5.45,0.507-10.402-1.338-15.699-1.412
	c-0.33-0.367-0.659-0.735-0.996-1.095c-4.026-4.294-9.617-7.529-15.624-7.638c-6.452-0.117-11.419,3.018-15.97,7.226
	c-5.577,8.502-9.248,17.516-12.344,27.148c-11.688-5.783-21.949-12.849-32.979-19.656c-0.435-0.519-0.863-0.992-1.101-1.639
	c-2.428-6.599-1.528-14.211,0.862-20.623c1.633-2.975,3.413-5.673,5.426-8.405l3.047,2.815c12.407,5.553,25.699,8.53,38.83,3.568
	C504.063,467.595,508.646,464.146,512.72,459.356z"/>
<linearGradient id="SVGID_00000180357184429158323230000005100789474754381965_" gradientUnits="userSpaceOnUse" x1="515.8673" y1="545.9979" x2="515.5389" y2="565.0524" gradientTransform="matrix(1 0 0 -1 0 1026)">
	<stop  offset="0" style="stop-color:#9F7347"/>
	<stop  offset="1" style="stop-color:#C5884F"/>
</linearGradient>
<path style="fill:url(#SVGID_00000180357184429158323230000005100789474754381965_);" d="M512.72,459.356
	c5.727,7.398,13.969,11.594,23.206,12.763c12.108,1.533,23.606-2.169,33.693-8.696l2.296,2.441
	c-2.715,1.942-4.335,5.854-6.725,8.279c-5.275,5.351-16.422,6.556-23.565,6.379c-8.991-0.224-20.858-3.629-27.137-10.304
	c-3.651,1.848-7.632,3.139-11.46,4.577c-8.748,3.286-17.206,6.795-26.705,4.47c-7.251-1.774-13.157-6.717-16.984-13.011
	c12.407,5.553,25.699,8.53,38.83,3.568C504.063,467.595,508.646,464.146,512.72,459.356z"/>
<path style="fill:#F9CB9D;" d="M451.748,475.63l0.807-1.333c1.286-0.248,1.793-0.093,2.856,0.722
	c1.39,1.068,2.684,2.374,3.961,3.577c6.125,5.766,17.376,10.776,25.904,10.44c3.853-0.152,7.417-2.347,11.152-2.422
	c-5.577,8.502-9.248,17.516-12.344,27.148c-11.688-5.783-21.949-12.849-32.979-19.656
	C451.869,487.733,450.172,482.528,451.748,475.63z"/>
<path style="fill:#EFEFEF;" d="M683.547,272.734c16.629,4.005,29.923,9.567,43.27,20.517c2.87,3.086,6.138,5.88,8.801,9.147
	c13.399,16.438,19.906,36.736,19.213,57.848c-0.739,22.504-10.795,43.982-27.268,59.298c-15.184,14.119-33.152,20.813-53.386,23.603
	c16.75,29.235,22.304,61.57,13.306,94.348c-5.074,18.483-14.362,34.555-25.072,50.237c12.15-1.338,24.124-0.006,36.066,2.307
	l0.611,0.088c1.254,0.401,2.51,0.901,3.818,1.059l10.739,3.733c3.216,1.767,6.722,4.026,10.186,5.203
	c4.661,3.333,9.483,6.913,13.347,11.168c4.009,4.414,7.376,9.413,11.395,13.785c1.368,2.878,2.663,6.498,4.592,9
	c2.536,5.843,4.812,11.7,6.341,17.897c4.238,17.172,6.179,43.406,3.12,60.669l30.457,0.011c5.105-0.017,11.197-0.673,16.171,0.335
	c-7.633,1.272-16.355,0.413-24.123,0.373c-7.923-0.041-16.016,0.323-23.914-0.1c0.33-3.44-0.29-7.349-0.611-10.799
	c-1.536-16.475-4.329-35.672-13.482-49.712c-1.366-0.768-2.858-1.361-4.29-2c2.108-1.857,4.001-3.747,5.847-5.866
	c-7.025-5.738-15.565-9.898-23.482-14.291c-27.274-15.135-55.464-28.997-84.776-39.702c-6.316-8.946-13.041-18.243-22.502-24.104
	c-3.936-2.438-8.633-4.004-12.281-6.857c-2.301-1.799-4.218-4.244-6.191-6.399c-5.401-5.901-10.335-9.345-17.73-12.397l0.345-7.814
	c6.886-5.004,14.159-9.557,21.124-14.471c21.066-14.861,40.275-30.363,57.092-49.949c-0.205-13.041-1.526-26.033-1.982-39.063
	c5.383,0.165,10.722,0.282,15.881-1.514c4.022-1.4,7.389-3.859,10.218-7.014c5.934-6.616,18.346-31.302,22.94-40.402
	c8.21-16.265,12.037-40.466,6.118-58c-2.513-7.444-6.881-15.585-14.29-19.069c-6.241-2.933-11.567-1.477-17.655,0.791
	c-0.486-1.16-0.993-2.707-1.935-3.572c-1.89-1.735-6.025-0.915-8.376-0.756C676.11,291.643,679.564,281.865,683.547,272.734z"/>
<path style="fill:#1B1D19;" d="M756.897,709.653c3.364,8.644,2.54,24.035,2.919,33.647c0.198,5.016,0.804,10.023,0.926,15.028
	c0.285,11.717-0.203,23.378-0.524,35.081c-0.993,36.26-3.701,71.836-14.11,106.782c-1.965,6.596-3.871,13.335-6.641,19.644
	c-6.302,14.349-17.041,27.86-26.409,40.365c-2.741,3.658-5.473,7.869-8.688,11.108c-13.825,0.242-27.851-1.343-41.601-2.71
	c-44.149-4.39-87.215-12.813-130.545-22.117c-12.666-2.72-25.206-6.966-37.94-9.113c26.439-13.719,53.173-26.632,76.819-45.017
	c6.093-4.738,10.251-10.119,15.572-15.51c5.033-5.1,17.35-15.032,23.548-18.529c5.811-3.28,15.252-4.693,21.919-4.857
	c1.739-0.585,3.551-0.991,5.327-1.448c22.9,4.589,48.988,19.817,62.131,39.485c2.869,4.293,5.531,10.362,9.17,13.94
	c2.169,2.289,3.782,6.675,4.979,9.618l0.824-1.211c0.647,1.007,1.619,2.726,2.871,2.976c1.976,0.393,4.354-0.617,5.929-1.776
	c10.217-7.512,11.757-32.7,14.405-44.303c1.241-5.436,3.663-10.576,4.522-16.121c8.65-31.969,14.248-63.127,15.142-96.289
	C757.88,742.075,757.157,725.892,756.897,709.653z"/>
<path style="fill:#301B11;" d="M632.142,853.455c1.739-0.585,3.551-0.991,5.327-1.448c22.9,4.589,48.988,19.817,62.131,39.485
	c2.869,4.293,5.531,10.362,9.17,13.94c2.169,2.289,3.782,6.675,4.979,9.618c1.622,5.189,3.883,11.809,3.011,17.287
	c-0.354,2.22-1.372,4.106-3.283,5.35c-6.596,4.297-19.447,3.337-27.22,3.191c-46.344-0.87-97.894-9.654-143.122-20.083
	c6.86-4.897,14.766-8.659,22.059-12.877c9.332-5.397,18.43-11.722,26.91-18.372c7.569-5.934,13.541-13.554,20.326-20.311
	C618.388,863.301,625.345,858.37,632.142,853.455z"/>
<path style="fill:#301B11;" d="M269.947,850.386c-8.953-58.317-9.486-118.598,4.588-176.194c1.831-7.493,3.934-19.517,8.367-25.825
	c1.108-1.576,2.754-3.168,4.782-3.341c2.918-0.25,4.906,1.596,6.996,3.347c4.123,4.066,6.886,8.813,9.354,14.025
	c5.423,11.454,8.965,24.17,12.806,36.237c6.754,21.218,13.411,42.606,18.105,64.39c-3.832-0.843-6.656-1.788-10.249,0.456
	c-2.859,1.785-4.542,4.744-5.125,8.02c-0.625,3.514,0.165,6.117,1.523,9.329c-5.744-0.601-16.958-3.263-21.846,0.446
	c-2.405,1.824-3.466,5.013-3.743,7.914c-0.214,2.24,0.086,4.757,1.613,6.516c0.769,0.884,1.686,1.77,2.647,2.443
	c-1.358,2.793-2.367,5.474-3.119,8.492c1.923,5.308,5.012,10.156,10.179,12.771c1.327,0.672,3.255,1.363,4.253,2.482
	c3.017,3.385-6.496,11.718,12.855,20.751c2.01,0.938,4.078,1.75,6.142,2.559c-5.794,0.936-9.646,1.744-13.309,6.739
	c-4.764,6.497-20.228,41.565-19.767,49.32c0.036,0.593,0.134,0.728,0.344,1.206c1.16,0.762,1.355,0.752,2.755,0.772l1.21-0.902
	l0.4,0.323c5.838-2.192,18.677-15.084,25.036-19.768c7.581-5.585,16.779-9.614,25.606-12.752
	c13.623-4.841,27.902-7.804,41.785-11.813l92.979-26.891l27.503-7.754c3.879-1.074,8.353-1.724,12.024-3.247l0.449-1.407
	c1.636,6.391,2.507,13.012,3.977,19.452c2.782,12.192,7.086,24.954,12.208,36.354c-59.263,31.843-123.799,56.37-190.902,64.429
	c-15.132,1.817-32.486,3.723-47.266-0.64c-6.345-1.872-11.716-5.056-16.398-9.737C280.731,911.107,270.238,869.662,269.947,850.386z
	"/>
<path style="fill:#4E3B1E;" d="M269.947,850.386c-8.953-58.317-9.486-118.598,4.588-176.194c1.831-7.493,3.934-19.517,8.367-25.825
	c1.108-1.576,2.754-3.168,4.782-3.341c2.918-0.25,4.906,1.596,6.996,3.347c0.036,9.938-5.022,20.175-7.393,29.807
	c-2.96,12.023-5.317,24.287-7.072,36.543c-2.043,14.257-2.785,28.613-3.455,42.988c-2.508,53.848,1.237,107.624,11.255,160.589
	c-2.224-4.901-3.442-10.679-4.94-15.871c-3.291-11.411-6.485-22.744-9.088-34.339C272.697,862.343,271.828,855.953,269.947,850.386z
	"/>
<path style="fill:#7A7E74;" d="M686.513,227.317c16.85,9.249,33.578,18.686,49.145,30.02
	c55.843,40.662,97.009,100.19,116.259,166.505c25.285,87.104,15.562,189.564-28.329,269.305
	c-15.051,27.344-34.342,55.275-58.004,75.916c-0.484-18.49-0.952-37.581-4.367-55.803c7.898,0.423,15.991,0.059,23.914,0.1
	c7.768,0.04,16.49,0.899,24.123-0.373c-4.974-1.008-11.066-0.352-16.171-0.335l-30.457-0.011c3.059-17.263,1.118-43.497-3.12-60.669
	c-1.529-6.197-3.805-12.054-6.341-17.897c-1.929-2.502-3.224-6.122-4.592-9c-4.019-4.372-7.386-9.371-11.395-13.785
	c-3.864-4.255-8.686-7.835-13.347-11.168c-3.464-1.177-6.97-3.436-10.186-5.203l-10.739-3.733c-1.308-0.158-2.564-0.658-3.818-1.059
	l-0.611-0.088c-11.942-2.313-23.916-3.645-36.066-2.307c10.71-15.682,19.998-31.754,25.072-50.237
	c8.998-32.778,3.444-65.113-13.306-94.348c20.234-2.79,38.202-9.484,53.386-23.603c16.473-15.316,26.529-36.794,27.268-59.298
	c0.693-21.112-5.814-41.41-19.213-57.848c-2.663-3.267-5.931-6.061-8.801-9.147l-0.206-0.98
	c-10.741-10.354-28.176-17.942-42.898-19.97C688.585,257.48,686.353,242.73,686.513,227.317z"/>
<path style="fill:#646663;" d="M698.477,590.039c-0.163-9.419-0.148-75.998,1.358-78.455c1.251-2.04,5.477-4.24,7.743-4.832
	c-2.405,1.949-5,3.634-7.561,5.369l-0.037,52.313c-0.001,7.689,0.74,16.309-0.101,23.903c-0.1,0.901-0.192,1.156-0.791,1.79
	L698.477,590.039z"/>
<path style="fill:#AFAFAB;" d="M776.484,307.907c0.022-4.104,0.038-8.152,0.526-12.235c1.669,2.959,0.971,8.926,0.881,12.233
	c2.632-0.072,8.254-0.819,10.312,1.036c-2.942,1.221-7.44,0.674-10.613,0.581l-0.042,74.257c8.659,0.376,54.151-0.992,58.315,0.91
	l-0.42,0.469c-7.551,0.352-15.221,0.063-22.784,0.045l-35.022-0.069c-0.041,24.771-0.593,49.759,0.231,74.513
	c5.987,5.494,14.126,9.839,20.958,14.271l34.608,22.622c7.402,4.861,15.239,9.63,22.124,15.195l-0.218,90.034
	c-8.952,4.151-17.44,9.959-25.888,15.053c-17.582,10.603-35.026,21.493-52.752,31.848c-6.347-3.996-18.322-10.185-23.535-14.595
	c-1.929-2.502-3.224-6.122-4.592-9c0.247-0.117,0.521-0.172,0.786-0.239c2.081-0.53,23.779,13.078,27.074,15.045
	c23.346-14.674,46.785-29.973,71.06-43.045l0.021-79.414c-8.516-6.528-18.442-11.845-27.55-17.54
	c-14.443-9.03-28.806-18.359-42.959-27.838c-22.485,16.531-46.414,31.348-69.574,46.929c0.018,24.166,0.859,48.664-0.126,72.791
	c-1.205-0.299-2.4-0.643-3.653-0.61c-0.248,0.007-0.497,0.022-0.746,0.032c-1.308-0.158-2.564-0.658-3.818-1.059
	c0.599-0.634,0.691-0.889,0.791-1.79c0.841-7.594,0.1-16.214,0.101-23.903l0.037-52.313c2.561-1.735,5.156-3.42,7.561-5.369
	c2.276-0.309,60.809-40.339,68.734-45.825c-0.417-14.694-0.236-29.433-0.241-44.133c-0.003-10.484-0.365-21.123,0.25-31.588
	c-3.813-0.088-21.758,0.643-24.142-0.507l-0.127-0.703c2.844-1.581,19.745-0.219,24.162-0.233
	c-0.291-14.628-0.156-29.277-0.109-43.908c0.033-10.068-0.202-20.295,0.368-30.344c-5.13,0.016-32.142,0.856-34.947-0.545
	c0.843-0.583,1.666-0.94,2.694-1.077c3.484-0.467,7.423-0.063,10.975-0.032L776.484,307.907z"/>
<path style="fill:#AFAFAB;" d="M777.005,472.044c14.153,9.479,28.516,18.808,42.959,27.838c9.108,5.695,19.034,11.012,27.55,17.54
	l-0.021,79.414c-24.275,13.072-47.714,28.371-71.06,43.045c-3.295-1.967-24.993-15.575-27.074-15.045
	c-0.265,0.067-0.539,0.122-0.786,0.239c-4.019-4.372-7.386-9.371-11.395-13.785c-3.864-4.255-8.686-7.835-13.347-11.168
	c-3.464-1.177-6.97-3.436-10.186-5.203l-10.739-3.733c0.249-0.01,0.498-0.025,0.746-0.032c1.253-0.033,2.448,0.311,3.653,0.61
	c0.985-24.127,0.144-48.625,0.126-72.791C730.591,503.392,754.52,488.575,777.005,472.044z"/>
<path style="fill:#303033;" d="M780.826,570.492c1.494-1.075,2.868-1.961,4.548-2.718c-0.653,1.443-2.349,2.111-3.682,2.951
	c0.11,12.14-1.099,28.705,0.041,40.173c0.766,0.669,1.048,0.486,2.031,0.533c-1.02,0.748-1.927,1.241-3.07,1.752
	c-0.537-4.694,0.002-9.837,0.052-14.597L780.826,570.492z"/>
<path style="fill:#646663;" d="M777.005,472.044c14.153,9.479,28.516,18.808,42.959,27.838c9.108,5.695,19.034,11.012,27.55,17.54
	l-0.021,79.414c-24.275,13.072-47.714,28.371-71.06,43.045c-3.295-1.967-24.993-15.575-27.074-15.045
	c-0.265,0.067-0.539,0.122-0.786,0.239c-4.019-4.372-7.386-9.371-11.395-13.785c-3.864-4.255-8.686-7.835-13.347-11.168
	c3.216-0.299,9.797,6.671,12.094,9.033c1.76,1.81,3.616,4.113,5.688,5.523c3.339,2.272,7.246,3.946,10.747,5.987
	c8.065,4.7,16.079,9.71,23.649,15.174c22.071-14.426,44.97-27.66,67.449-41.443l-0.222-74.031
	c-6.559-4.686-13.563-8.781-20.371-13.096c-15.262-9.673-30.771-19.308-45.432-29.877c-22.06,14.396-43.988,29.217-65.728,44.099
	c-0.553,14.655-0.114,29.495-0.099,44.176c0.009,8.971-0.924,18.985,0.504,27.784l1.448,0.799l0.087,0.669l-10.739-3.733
	c0.249-0.01,0.498-0.025,0.746-0.032c1.253-0.033,2.448,0.311,3.653,0.61c0.985-24.127,0.144-48.625,0.126-72.791
	C730.591,503.392,754.52,488.575,777.005,472.044z"/>
<path style="fill:#7A7E74;" d="M785.374,567.774c4.468-3.9,10.425-6.942,15.477-10.123c7.935-4.996,15.809-10.333,23.971-14.938
	c0.543,14.287,0.533,28.969-0.091,43.258c-10.059,6.015-19.841,12.447-29.77,18.669c-3.456,2.166-7.468,5.359-11.197,6.791
	c-0.983-0.047-1.265,0.136-2.031-0.533c-1.14-11.468,0.069-28.033-0.041-40.173C783.025,569.885,784.721,569.217,785.374,567.774z"
	/>
<path style="fill:#7A7E74;" d="M730.255,544.797c4.679,1.734,9.466,5.299,13.77,7.9l29.577,18.116l-0.05,43.667
	c-3.53-1.448-7.211-4.134-10.518-6.124c-10.984-6.606-21.569-13.947-32.676-20.326C730.13,573.627,730.266,559.203,730.255,544.797z
	"/>
<path style="fill:#7A7E74;" d="M776.699,501.419c3.529,0.074,41.996,25.611,48.154,29.576
	c-14.011,10.417-32.268,20.672-47.323,30.033c-3.268,0.598-41.861-24.966-47.955-28.57
	C745.048,521.899,760.564,510.931,776.699,501.419z"/>
<path style="fill:#7A7E74;" d="M327.817,227.864l1.01-0.029c1.501-0.051,2.016,0.544,3.271,1.342
	c0.782,1.871,0.942,3.921,1.167,5.923c0.72,13.173,3.905,26.999,6.302,39.987c1.103,9.616,3.524,20.241,0.744,29.655
	c-8.986-1.637-15.409-4.232-23.852,1.661c-8.01,5.591-12.144,16.788-13.582,26.092c-4.602,29.766,11.222,58.061,28.294,81.178
	c4.862,6.582,9.546,12.109,17.026,15.639c1.125,0.531,2.227,1.222,1.832,2.623c-0.212,0.756-0.808,1.621-1.192,2.316l0.611,0.744
	c-18.354,30.791-21.755,70.088-13.046,104.493c4.312,17.033,12.006,33.217,21.848,47.759c-26.454-2.378-48.557-1.187-69.927,16.55
	c-16.278,13.511-27.152,35.259-28.923,56.268c-0.794,9.419,0.136,30.047,5.391,38.073c-3.681,22.027-5.459,43.73-6.02,66.042
	l-3.84-4.135c-0.228,0.068-0.509,0.078-0.667,0.255c-23.108-23.584-43.001-51.65-58.201-80.937
	c-34.243-65.978-46.146-145.407-32.744-218.519c2.565-13.993,6.548-27.956,10.847-41.503
	c21.258-66.978,64.667-128.181,120.954-170.3c9.46-7.079,19.302-14.508,29.802-19.96C325.781,228.46,326.82,228.209,327.817,227.864
	z"/>
<path style="fill:#9E9894;" d="M327.817,227.864l1.01-0.029c1.501-0.051,2.016,0.544,3.271,1.342
	c0.782,1.871,0.942,3.921,1.167,5.923c-3.418,0.325-11.161,0.517-14.03-1.331c0.765-1.129,2.066-1.376,3.229-2.058
	c1.35-0.792,2.047-1.132,2.458-2.63C325.781,228.46,326.82,228.209,327.817,227.864z"/>
<path style="fill:#EFEFEF;" d="M348.837,434.251c-0.466,0.762-0.793,1.198-1.533,1.705c-1.103-0.11-2.052-0.295-3.11-0.64
	c-5.214-1.697-10.429-4.837-15.035-7.772c-15.745-10.032-28.832-22.747-37.225-39.571c-8.956-17.954-10.212-42.119-3.704-61.049
	c8.293-24.121,29.131-40.956,51.337-51.837c1.103,9.616,3.524,20.241,0.744,29.655c-8.986-1.637-15.409-4.232-23.852,1.661
	c-8.01,5.591-12.144,16.788-13.582,26.092c-4.602,29.766,11.222,58.061,28.294,81.178c4.862,6.582,9.546,12.109,17.026,15.639
	c1.125,0.531,2.227,1.222,1.832,2.623C349.817,432.691,349.221,433.556,348.837,434.251z"/>
<path style="fill:#AFAFAB;" d="M243.36,355.965c8.144,4.56,40.047,23.206,44.968,28.665c4.202,4.662,7.806,12.874,11.564,18.383
	c0.604,18.353,0.002,36.713,0.402,55.056c-8.472,6.493-18.72,11.595-27.854,17.172c-9.872,6.029-19.493,12.89-29.722,18.258
	c-3.523-0.216-51.037-31.627-57.619-36.011c-0.004-21.909-0.378-43.885,0.176-65.785
	C204.704,379.872,223.513,367.162,243.36,355.965z"/>
<path style="fill:#646663;" d="M243.392,366.367c5.627,3.015,11.051,6.833,16.465,10.244l31.152,19.794
	c-0.044,18.886-0.236,37.814,0.157,56.695c-15.821,10.961-32.631,20.606-48.881,30.927c-15.328-11.364-32.383-20.852-48.309-31.423
	l0.009-55.435c5.839-4.59,12.61-8.366,18.92-12.265C223.024,378.65,233.163,372.438,243.392,366.367z"/>
<path style="fill:#AFAFAB;" d="M243.137,370.886c3.27,0.378,38.381,23.777,43.629,27.295c-0.427,17.755-0.193,35.573-0.231,53.336
	c-14.001,10.079-29.404,18.725-44.2,27.598c-14.822-9.41-30.142-18.478-44.461-28.64c-0.181-17.326-0.077-34.645,0.033-51.97
	C212.852,389.091,228.015,380.012,243.137,370.886z"/>
<path style="fill:#646663;" d="M244.064,399.082c7.054,4.004,13.551,8.961,20.797,12.657c-0.157,8.02,0.022,16.077,0.035,24.1
	c-7.307,4.579-14.58,9.231-22.051,13.54l-20.366-12.745c-0.426-8.127-0.219-16.381-0.284-24.526
	C229.432,407.679,236.641,403.197,244.064,399.082z"/>
<path style="fill:#7A7E74;" d="M243.257,402.465c2.87-0.18,15.922,9.183,19.007,11.17l-0.034,20.791
	c-6.075,3.523-12.048,7.243-18.051,10.89c-2.96,0.537-15.864-8.085-19.191-10.047l0.022-21.33
	C231.012,409.989,237.146,406.245,243.257,402.465z"/>
</svg>
