<?xml version="1.0" encoding="UTF-8"?>
<svg id="Layer_1" data-name="Layer 1" xmlns="http://www.w3.org/2000/svg" viewBox="0 0 417.41 88.78">
    <defs>
        <style>
            .cls-1 {
            fill: #026937;
            }
        </style>
    </defs>
    <path class="cls-1" d="M113.48,22.97h-6.33v-2.54h15.32v2.54h-6.3v19.86h-2.69v-19.86Z"/>
    <path class="cls-1" d="M124.41,19.12h2.35v11.87c1.22-1.81,2.91-2.66,5.11-2.66,3.26,0,5.26,1.82,5.26,4.98v9.52h-2.44v-8.24c0-2.82-1.16-4.2-3.66-4.2-1.41,0-2.63.53-3.42,1.5-.81,1-.81,2.16-.81,3.7v7.24h-2.38v-23.71Z"/>
    <path class="cls-1" d="M142.48,36.19v.22c0,3.04,1.94,5.01,4.64,5.01,1.88,0,3.38-1,4.54-3.04l1.82,1.22c-1.41,2.54-3.6,3.82-6.48,3.82-4.26,0-7.14-3.07-7.14-7.64s2.91-7.48,6.99-7.48,6.73,2.79,6.73,7.42v.47h-11.09ZM146.74,30.4c-2.29,0-4.01,1.47-4.26,3.85h8.52c-.15-2.48-1.72-3.85-4.26-3.85Z"/>
    <path class="cls-1" d="M165.13,20.43h2.66v22.39h-2.66v-22.39Z"/>
    <path class="cls-1" d="M172.17,28.83h2.35v2.16c1.22-1.81,2.91-2.66,5.11-2.66,3.26,0,5.26,1.82,5.26,4.98v9.52h-2.44v-8.24c0-2.82-1.16-4.2-3.67-4.2-1.41,0-2.63.53-3.41,1.5-.81,1-.81,2.16-.81,3.7v7.24h-2.38v-14h0Z"/>
    <path class="cls-1" d="M186.64,30.8v-1.97h2.57v-5.64h2.44v5.64h2.57v1.97h-2.57v12.03h-2.44v-12.03h-2.57Z"/>
    <path class="cls-1" d="M197.57,36.19v.22c0,3.04,1.94,5.01,4.64,5.01,1.88,0,3.38-1,4.54-3.04l1.82,1.22c-1.41,2.54-3.6,3.82-6.48,3.82-4.26,0-7.14-3.07-7.14-7.64s2.91-7.48,6.99-7.48,6.73,2.79,6.73,7.42v.47h-11.09ZM201.84,30.4c-2.29,0-4.01,1.47-4.26,3.85h8.52c-.16-2.48-1.72-3.85-4.26-3.85Z"/>
    <path class="cls-1" d="M211.51,28.83h2.13v2.91c1.25-2.38,2.57-3.38,4.7-3.38.56,0,1.1.09,1.63.28l-.82,2.16c-.53-.19-1.03-.28-1.47-.28-2.54,0-3.79,1.82-3.79,5.48v6.83h-2.38v-14Z"/>
    <path class="cls-1" d="M221.69,28.83h2.35v2.16c1.22-1.81,2.91-2.66,5.1-2.66,3.26,0,5.26,1.82,5.26,4.98v9.52h-2.44v-8.24c0-2.82-1.16-4.2-3.67-4.2-1.41,0-2.63.53-3.41,1.5-.82,1-.82,2.16-.82,3.7v7.24h-2.38v-14h0Z"/>
    <path class="cls-1" d="M251.38,42.83h-2.32v-2.54c-1.13,2.04-2.91,3.13-5.07,3.13-4.01,0-6.7-2.98-6.7-7.55s2.66-7.55,6.58-7.55c2.35,0,4.07,1.07,5.13,3.13v-2.63h2.38v14ZM244.4,30.71c-2.88,0-4.57,1.85-4.57,5.04,0,3.38,1.69,5.29,4.67,5.29,2.82,0,4.57-1.85,4.57-5.07,0-3.26-1.97-5.26-4.66-5.26Z"/>
    <path class="cls-1" d="M253.2,30.8v-1.97h2.57v-5.64h2.44v5.64h2.57v1.97h-2.57v12.03h-2.44v-12.03h-2.57Z"/>
    <path class="cls-1" d="M264.04,20.34c.97,0,1.75.82,1.75,1.79s-.78,1.72-1.75,1.72-1.75-.75-1.75-1.75.78-1.75,1.75-1.75ZM262.84,28.83h2.41v14h-2.41v-14Z"/>
    <path class="cls-1" d="M270.61,30.52c1.44-1.44,3.32-2.19,5.39-2.19s3.92.78,5.39,2.22c1.44,1.41,2.23,3.29,2.23,5.32s-.78,3.89-2.23,5.29c-1.47,1.44-3.35,2.26-5.39,2.26s-3.94-.78-5.39-2.22c-1.47-1.47-2.22-3.29-2.22-5.33s.75-3.91,2.22-5.35ZM276,41.17c2.79,0,5.04-2.32,5.04-5.29s-2.26-5.29-5.04-5.29-5.07,2.32-5.07,5.29c0,2.98,2.29,5.29,5.07,5.29Z"/>
    <path class="cls-1" d="M286.55,28.83h2.35v2.16c1.22-1.81,2.91-2.66,5.11-2.66,3.26,0,5.26,1.82,5.26,4.98v9.52h-2.44v-8.24c0-2.82-1.16-4.2-3.66-4.2-1.41,0-2.63.53-3.41,1.5-.82,1-.82,2.16-.82,3.7v7.24h-2.38v-14h0Z"/>
    <path class="cls-1" d="M316.25,42.83h-2.32v-2.54c-1.13,2.04-2.91,3.13-5.08,3.13-4.01,0-6.7-2.98-6.7-7.55s2.66-7.55,6.58-7.55c2.35,0,4.07,1.07,5.13,3.13v-2.63h2.38v14ZM309.26,30.71c-2.88,0-4.57,1.85-4.57,5.04,0,3.38,1.69,5.29,4.66,5.29s4.57-1.85,4.57-5.07-1.97-5.26-4.67-5.26Z"/>
    <path class="cls-1" d="M320.38,19.12h2.44v23.71h-2.44v-23.71Z"/>
    <path class="cls-1" d="M348.32,36.53c0,4.1-2.85,6.86-7.17,6.86-3.54,0-6.01-1.88-6.86-5.2l2.41-1.19c.66,2.72,2.19,4.13,4.45,4.13,2.7,0,4.48-1.72,4.48-4.17,0-2-1.16-3.47-3.48-4.48l-2.72-1.16c-2.97-1.25-4.42-3.19-4.42-5.92,0-3.13,2.57-5.51,6.3-5.51,2.69,0,4.7,1.16,5.79,3.38l-2.19,1.41c-.97-1.69-2.19-2.57-3.79-2.57-2.01,0-3.41,1.35-3.41,3.26,0,1.6.97,2.72,3,3.6l3.19,1.41c2.95,1.25,4.42,3.32,4.42,6.14h0Z"/>
    <path class="cls-1" d="M361.57,42.3c-1.28.75-2.88,1.13-4.7,1.13-4.36,0-7.21-3.04-7.21-7.45s3.1-7.64,7.3-7.64c1.57,0,3.07.34,4.35.97v2.57c-1.19-.78-2.5-1.22-3.88-1.22-3.07,0-5.2,2.07-5.2,5.39,0,2.82,2.1,5.07,5.01,5.07,1.5,0,2.85-.53,4.32-1.6v2.79Z"/>
    <path class="cls-1" d="M364.1,19.12h2.35v11.87c1.22-1.81,2.91-2.66,5.1-2.66,3.26,0,5.26,1.82,5.26,4.98v9.52h-2.44v-8.24c0-2.82-1.16-4.2-3.67-4.2-1.41,0-2.63.53-3.41,1.5-.82,1-.82,2.16-.82,3.7v7.24h-2.38v-23.71h0Z"/>
    <path class="cls-1" d="M381.86,30.52c1.44-1.44,3.32-2.19,5.39-2.19s3.92.78,5.39,2.22c1.44,1.41,2.22,3.29,2.22,5.32s-.78,3.89-2.22,5.29c-1.47,1.44-3.35,2.26-5.39,2.26s-3.94-.78-5.39-2.22c-1.47-1.47-2.22-3.29-2.22-5.33s.75-3.91,2.22-5.35ZM387.25,41.17c2.79,0,5.04-2.32,5.04-5.29s-2.26-5.29-5.04-5.29-5.07,2.32-5.07,5.29c0,2.98,2.29,5.29,5.07,5.29Z"/>
    <path class="cls-1" d="M398.9,30.52c1.44-1.44,3.32-2.19,5.39-2.19s3.92.78,5.39,2.22c1.44,1.41,2.22,3.29,2.22,5.32s-.78,3.89-2.22,5.29c-1.47,1.44-3.35,2.26-5.39,2.26s-3.95-.78-5.39-2.22c-1.47-1.47-2.22-3.29-2.22-5.33,0-2.03.75-3.91,2.22-5.35ZM404.29,41.17c2.79,0,5.04-2.32,5.04-5.29s-2.26-5.29-5.04-5.29-5.07,2.32-5.07,5.29,2.28,5.29,5.07,5.29Z"/>
    <path class="cls-1" d="M414.97,19.12h2.44v23.71h-2.44v-23.71Z"/>
    <path class="cls-1" d="M109.23,59.68c.96-.96,2.21-1.46,3.59-1.46s2.61.52,3.59,1.48c.96.94,1.48,2.19,1.48,3.55s-.52,2.59-1.48,3.53c-.98.96-2.23,1.5-3.59,1.5s-2.63-.52-3.59-1.48c-.98-.98-1.48-2.19-1.48-3.55,0-1.36.5-2.61,1.48-3.57ZM112.82,66.78c1.86,0,3.36-1.55,3.36-3.53s-1.5-3.52-3.36-3.52-3.38,1.54-3.38,3.52,1.52,3.53,3.38,3.53Z"/>
    <path class="cls-1" d="M120.8,59.87h-1.79v-1.31h1.79v-2.69c0-2.8.46-3.97,2.69-3.97.48,0,.94.06,1.38.21v1.65c-.42-.23-.83-.33-1.25-.33-1.19,0-1.23.86-1.23,2.65v2.48h2.48v1.31h-2.44v8.01h-1.63v-8.02Z"/>
    <path class="cls-1" d="M139.88,54.26c-1.57,0-3.15.67-4.26,1.81-1.15,1.19-1.71,2.65-1.71,4.4,0,1.38.33,2.55,1.02,3.52,1.19,1.69,3,2.65,5.03,2.65,1.88,0,3.53-.77,4.89-2.36v2.36c-1.48,1.06-3.21,1.63-5.03,1.63-1.58,0-3.11-.48-4.4-1.38-2.17-1.51-3.36-3.76-3.36-6.41,0-2.32.77-4.18,2.34-5.7,1.52-1.46,3.36-2.19,5.55-2.19,1.77,0,3.36.54,4.91,1.61v2.32c-1.44-1.56-3.03-2.27-4.97-2.27Z"/>
    <path class="cls-1" d="M147.71,52.09h1.57v7.91c.81-1.21,1.94-1.77,3.4-1.77,2.17,0,3.5,1.21,3.5,3.32v6.34h-1.63v-5.49c0-1.88-.77-2.8-2.44-2.8-.94,0-1.75.35-2.27,1-.54.67-.54,1.44-.54,2.46v4.82h-1.59v-15.8Z"/>
    <path class="cls-1" d="M160.07,59.68c.96-.96,2.21-1.46,3.59-1.46s2.61.52,3.59,1.48c.96.94,1.48,2.19,1.48,3.55s-.52,2.59-1.48,3.53c-.98.96-2.23,1.5-3.59,1.5s-2.63-.52-3.59-1.48c-.98-.98-1.48-2.19-1.48-3.55s.5-2.61,1.48-3.57ZM163.66,66.78c1.86,0,3.36-1.55,3.36-3.53s-1.51-3.52-3.36-3.52-3.38,1.54-3.38,3.52,1.52,3.53,3.38,3.53Z"/>
    <path class="cls-1" d="M172.72,63.15c0,2.46.56,3.61,2.61,3.61s2.59-1.15,2.59-3.61v-4.59h1.63v5.45c0,2.82-1.46,4.28-4.26,4.28s-4.24-1.46-4.24-4.28v-5.45h1.67v4.59Z"/>
    <path class="cls-1" d="M183.58,63.46v.14c0,2.03,1.29,3.34,3.09,3.34,1.25,0,2.26-.67,3.03-2.03l1.21.81c-.94,1.69-2.4,2.55-4.32,2.55-2.84,0-4.75-2.04-4.75-5.09s1.94-4.99,4.65-4.99,4.49,1.86,4.49,4.95v.31h-7.39ZM186.42,59.6c-1.52,0-2.67.98-2.83,2.57h5.67c-.1-1.65-1.15-2.57-2.84-2.57Z"/>
    <path class="cls-1" d="M194.25,52.9c.65,0,1.17.54,1.17,1.19s-.52,1.15-1.17,1.15-1.17-.5-1.17-1.17.52-1.17,1.17-1.17ZM193.46,58.56h1.61v9.33h-1.61v-9.33Z"/>
    <path class="cls-1" d="M198.85,59.87h-1.79v-1.31h1.79v-2.69c0-2.8.46-3.97,2.69-3.97.48,0,.94.06,1.38.21v1.65c-.42-.23-.83-.33-1.25-.33-1.19,0-1.23.86-1.23,2.65v2.48h2.48v1.31h-2.44v8.01h-1.63v-8.02Z"/>
    <path class="cls-1" d="M213.14,67.88h-1.54v-1.69c-.75,1.36-1.94,2.09-3.38,2.09-2.67,0-4.47-1.98-4.47-5.03s1.77-5.03,4.38-5.03c1.57,0,2.71.71,3.42,2.09v-1.75h1.59v9.33h0ZM208.49,59.81c-1.92,0-3.05,1.23-3.05,3.36,0,2.25,1.13,3.52,3.11,3.52,1.88,0,3.05-1.23,3.05-3.38s-1.32-3.5-3.11-3.5Z"/>
    <path class="cls-1" d="M214.89,59.87v-1.31h1.71v-3.76h1.63v3.76h1.71v1.31h-1.71v8.01h-1.63v-8.01h-1.71Z"/>
    <path class="cls-1" d="M232.48,62.44v1.61h-4.76v-1.61h4.76Z"/>
    <path class="cls-1" d="M249.02,54.26c-1.57,0-3.15.67-4.26,1.81-1.15,1.19-1.71,2.65-1.71,4.4,0,1.38.33,2.55,1.02,3.52,1.19,1.69,3,2.65,5.03,2.65,1.88,0,3.53-.77,4.88-2.36v2.36c-1.48,1.06-3.21,1.63-5.03,1.63-1.59,0-3.11-.48-4.4-1.38-2.17-1.51-3.36-3.76-3.36-6.41,0-2.32.77-4.18,2.34-5.7,1.52-1.46,3.36-2.19,5.55-2.19,1.77,0,3.36.54,4.9,1.61v2.32c-1.44-1.56-3.03-2.27-4.97-2.27Z"/>
    <path class="cls-1" d="M256.85,52.09h1.57v7.91c.82-1.21,1.94-1.77,3.4-1.77,2.17,0,3.51,1.21,3.51,3.32v6.34h-1.63v-5.49c0-1.88-.77-2.8-2.44-2.8-.94,0-1.75.35-2.28,1-.54.67-.54,1.44-.54,2.46v4.82h-1.59v-15.8Z"/>
    <path class="cls-1" d="M269.21,59.68c.96-.96,2.22-1.46,3.59-1.46s2.61.52,3.59,1.48c.96.94,1.48,2.19,1.48,3.55s-.52,2.59-1.48,3.53c-.98.96-2.23,1.5-3.59,1.5s-2.63-.52-3.59-1.48c-.98-.98-1.48-2.19-1.48-3.55s.5-2.61,1.48-3.57ZM272.8,66.78c1.86,0,3.36-1.55,3.36-3.53s-1.5-3.52-3.36-3.52-3.38,1.54-3.38,3.52,1.52,3.53,3.38,3.53Z"/>
    <path class="cls-1" d="M281.87,63.15c0,2.46.56,3.61,2.61,3.61s2.59-1.15,2.59-3.61v-4.59h1.63v5.45c0,2.82-1.46,4.28-4.26,4.28s-4.24-1.46-4.24-4.28v-5.45h1.67v4.59Z"/>
    <path class="cls-1" d="M292.72,63.46v.14c0,2.03,1.3,3.34,3.09,3.34,1.25,0,2.25-.67,3.03-2.03l1.21.81c-.94,1.69-2.4,2.55-4.32,2.55-2.84,0-4.76-2.04-4.76-5.09s1.94-4.99,4.66-4.99,4.49,1.86,4.49,4.95v.31h-7.39ZM295.56,59.6c-1.52,0-2.67.98-2.84,2.57h5.68c-.1-1.65-1.15-2.57-2.84-2.57Z"/>
    <path class="cls-1" d="M303.39,52.9c.65,0,1.17.54,1.17,1.19s-.52,1.15-1.17,1.15-1.17-.5-1.17-1.17c0-.65.52-1.17,1.17-1.17ZM302.6,58.56h1.61v9.33h-1.61v-9.33Z"/>
    <path class="cls-1" d="M307.99,59.87h-1.79v-1.31h1.79v-2.69c0-2.8.46-3.97,2.69-3.97.48,0,.94.06,1.38.21v1.65c-.42-.23-.84-.33-1.25-.33-1.19,0-1.23.86-1.23,2.65v2.48h2.48v1.31h-2.44v8.01h-1.62v-8.02Z"/>
    <path class="cls-1" d="M322.29,67.88h-1.55v-1.69c-.75,1.36-1.94,2.09-3.38,2.09-2.67,0-4.47-1.98-4.47-5.03s1.77-5.03,4.38-5.03c1.57,0,2.71.71,3.42,2.09v-1.75h1.59v9.33h0ZM317.63,59.81c-1.92,0-3.05,1.23-3.05,3.36,0,2.25,1.13,3.52,3.11,3.52,1.88,0,3.05-1.23,3.05-3.38s-1.31-3.5-3.11-3.5Z"/>
    <path class="cls-1" d="M324.02,59.87v-1.31h1.71v-3.76h1.63v3.76h1.71v1.31h-1.71v8.01h-1.63v-8.01h-1.71Z"/>
    <path class="cls-1" d="M53.19,37.61c-.56-.21-1.94-.65-2.15.24-.17.68.43,1.25.58,1.86.15.69-.11,1.5.36,2.12.68.89,1.73-.47,2.22-.92.44-.5.24-1.26.08-1.81-.18-.62-.45-1.25-1.09-1.49"/>
    <path class="cls-1" d="M48.27,37.85c-.82.26-1.8.08-2.55.51-.69.4-1.01,2.04-.14,2.45.5.24.8-.45,1.07-.73.36-.37.8-.18.96.29.37,1.03-.06,2.15-.02,3.22,0,.37.12.77.52.89.33.11.61-.02.81-.29,1.06-1.49-.24-3.62,1.17-5.02.36-.43.11-.96-.29-1.27-.46-.35-1.01-.19-1.52-.04"/>
    <path class="cls-1" d="M56.04,32.17c-.48-.27-.65.15-.76.54-.16.52-.55.65-.95.98-.78.61-.49,1.92.34,2.34,1.11.42,2.51.21,2.4-1.21-.08-.92-.13-2.15-1.03-2.66"/>
    <path class="cls-1" d="M48.62,15.47c-.53-.52-1.29-.41-1.89-.07-.31.17-.6.36-.95.48-.26.08-.55.18-.6.48-.15.6.53,1.01.83,1.42.41.54.73,1.18,1.33,1.56.93.57,2.38.48,3.05-.49.21-.63-.37-1.14-.73-1.57-.43-.56-.54-1.3-1.04-1.81"/>
    <path class="cls-1" d="M58.86,39.46c-.65-.45-1.54.06-1.84.72-.24.57-.24,1.44.41,1.77.57.3,1.38-.03,1.54-.65.15-.56.51-1.41-.11-1.84"/>
    <path class="cls-1" d="M43.09,39.51c-.34.34-.08,1.09-.04,1.51.04.62-.44,1.27-.7,1.83-.33.65-.6,1.4-.28,2.11.48,1.01,2.28,1.48,2.88.31.52-1.71.22-3.48-.6-5.06-.19-.36-.75-1.2-1.26-.7"/>
    <path class="cls-1" d="M42.17,37.25c.43-.12,1.2-.62.57-1.05-.52-.37-1.22.01-1.8-.18-.58-.21-1.97-1.12-2.31-.12-.65,1.87,2.53,1.62,3.55,1.35"/>
    <path class="cls-1" d="M40.14,21.44c-.77-.5-1.75-.34-2.62-.42-.91-.09-1.59-.61-2.44-.86-.56-.16-1.13-.01-1.49.46-.33.43-.25.95.18,1.27.93.69,2.29.16,3.22.81.59.43,0,1-.49,1.18-.56.21-1.19.04-1.77-.01-.98-.1-2.19.49-1.19,1.43.34.33.74.58,1.12.85.31.23.51.54.75.85.45.57,1.71,1.85,2.19.51.29-.83-.39-2.25.69-2.68.93-.38,2,.44,2.92,0,1.21-.61-.41-2.94-1.07-3.37"/>
    <path class="cls-1" d="M30.17,22.54c-.57-.22-.38-.68-.13-1.05.28-.42.24-.8-.2-1.08-.45-.31-1.04-.37-1.55-.57-.48-.17-.87-.52-1.36-.7-.83-.32-2.18.21-1.89,1.27.25.94,1.33,1.04,2.01,1.53.9.66.68,1.85,1.1,2.74.4.86,1.31,1.66,2.32,1.42.91-.09,1.28-1.09,1.26-1.88,0-.42-.06-.9-.35-1.24-.3-.37-.79-.28-1.2-.44"/>
    <path class="cls-1" d="M41.15,47.11c-.32-.13-.61-.3-.98-.32-.61-.04-1.18.22-1.72.49,0,0,.11.31.14.43.12.6.43,1.22.78,1.72.35.5.86,1.05,1.53.97.62-.08,1.01-.6,1.29-1.09.31-.57.49-1.21.94-1.68.15-.18.31-.31.5-.39.04,0-.74-.13-1.18-.1-.47.01-.85.14-1.3-.03"/>
    <path class="cls-1" d="M38.8,42.68c-.02-.42-.08-.84-.18-1.23-.09-.37-.13-.77-.32-1.09-.15-.28-.51-.24-.79-.28-.4-.07-.79-.19-1.2-.25-.89-.14-1.76-.52-2.41-.09-.13.06-.18.69.03.99.2.3.44.57.65.86.45.7.89,1.38,1.33,2.07.22.34.44.68.65,1.04.15.28.31.58.57.8.24.18.54.27.85.3.13.01.28.04.41-.03.76-.35.42-3.08.42-3.08"/>
    <path class="cls-1" d="M40.24,39.7c-.72.76.12,1.74.35,2.52.07.23.35,1.46.77,1.06.8-.54.51-1.62.44-2.42-.03-.46-.03-.98-.4-1.3-.35-.27-.88-.18-1.16.14"/>
    <path class="cls-1" d="M72.46,34.58c-.3.26-.8.09-1.16.03-.58-.09-1.34-.27-1.44-.97-.11-.64.63-1.16,1.23-1.12.4.03.59.36.89.57.21.15.61.19.61.53,0,.32.19.71-.12.96M19.14,37.03c.85-.11.81-1.17,1.26-1.7.57-.67,1.1.57,1.61.72.35.07.83.04.73.54-.09.54-.56.86-1.05.99-.86.25-1.96.22-2.55-.55M78.35,45.52c-1.76.57-3.95-.1-5.43-1.1-.63-.44-1.19-1-1.59-1.65-.24-.41-.46-1.02-.96-1.16-.93-.26-.24,1.4-.09,1.73.26.59.76,1.83-.06,2.21-1.03.46-1.39-.89-1.63-1.58-1.02-2.88-3.54,1.41-4.42,2.23-.97.89-2.25,1.12-3.38.34-1.05-.77-1.66-1.97-2.7-2.76-2.3-1.77-10.7,2.22-9.36,10.8.14.91.24,1.67.31,2.32.8,3.33,2.37,5.31,3.22,5.99,1.22,1,4.03.76,3.89,1.96-.05.47-.59.61-.86.71-.27.1-1.16.43-1.9.07-1.25-1.04-2.08-.06-2.52-.46-.99-.9-1.82-2.52-2.66-4.47.09.67-2.02-5.72-2.25-6.16-.44-.82-.79-1.82-1.41-2.51-.54-.6-1.59-.85-2.34-.51-.92.43-.7,1.75-.49,2.52.35,1.44,1.01,2.79,1.56,4.17.61,1.52.85,3.12,1.35,4.65.2.59,1.18,3.31-.49,2.81-.7-.19-1.33-.85-1.73-1.44-.43-.65-.44-1.34-.38-2.1.03-.66.25-2.34-.84-2.31-.86.01-1.9,1.11-2.07,1.93-.24,1.04,1.03,1.69,1.19,2.66.1.64-.44,1.23-1.07,1.31-.7.09-1.35-.29-1.96-.56-.21.6-.88,1.36-1.59,1.04-.56-.26-.8-.88-1.39-1.12-1.06-.4-2,1.78-3.33.29-.94-1.07,2.33-1.37,3.73-2.12,1.29-.67,2.28-1.78,3.07-2.98.84-1.27.94-2.83.86-4.31-.09-1.74-.27-3.46-.39-5.2-.08-1.1-.08-2.41-.87-3.28-.59.07-1.19.07-1.77.17-.68.1-1.35.29-2.02.43-.5.12-1.21.24-1.66-.1-.47-.37.06-.84.41-1.06.51-.32,1.14-.46,1.55-.9.49-.51.51-1.24.3-1.87-.46-1.33-1.57-2.42-2.75-3.15-.95-.57-2.39-1.04-3.25-.09-.89.94-.41,2.45.45,3.25.49.48,1.15.79,1.7,1.23.4.33,1.1,1.05.23,1.3-.66.2-1.26-.41-1.77-.73-.64-.38-1.38-.57-2.11-.66-1.23-.13-2.62.2-3.26,1.31-.2.32-.35.72-.31,1.09.04.26.23.65.04.9-.16.18-.52.18-.73.27-.54.21-1.42.49-1.64.57-.7.21-1.2.56-1.78.97-1.03.73-2.2.94-2.82-.38-.43-.9-.59-2.73-1.96-2.67-.73.02-1.29.6-2.01.62-.6.02-1.15-.29-1.59-.62-.81-.65-1.66-1.78-1.48-2.88.23-1.42,2.12-.93,2.95-.44,1.31.72,2.32,1.87,3.47,2.81.89.73,1.9,1.36,3.07,1.56.69.12,2.23-.13,1.89-1.19-.25-.71-1.12-1.04-1.35-1.76-.38-1.23,1.38-1.14,2.07-1.01.74.15,2.34.48,2.39-.68.06-1.25-1.26-1.88-2.33-2.04-1.24-.19-2.92.22-3.76-.99-.9-1.28,1.28-1.95,2.18-1.9.71.04,1.39.31,1.99.69.59.35,1.04.84,1.61,1.21.53.34,1.23.6,1.8.21.42-.29.55-.83.37-1.28-.34-.9-1.45-1.23-1.81-2.12-.23-.56.01-1.19.56-1.45.61-.28,1.26-.01,1.73.39.98.84,1.48,2.2,2.74,2.74.55.25,1.42.35,1.8-.25.32-.5-.06-1-.52-1.21-.7-.37-1.98-.58-1.94-1.59.03-1.27,1.22-1.27,2.12-.8.53.29,2.77,2.15,3.33,1.24.25-.44-.17-1.06-.29-1.47-.14-.43-.13-1.24.54-1.17.9.08,1.14,2.11,2,1.84.33-.1.46-.51.76-.67.29-.14.62-.15.93-.22.72-.13,1.13-.68,1.76-.95.65-.31,1.3-.12,1.98-.21.68-.06.91-.56,1.39-.93.61-.48,1.17.01,1.74.24.53.22,1.01-.02,1.12-.58.11-.51-.06-1.04.12-1.56.2-.64.39-1.1-.08-1.68-.42-.51-.98-.87-1.37-1.41-.35-.47-.69-.98-1.28-1.12-.74-.17-2.14.05-2.11,1.05.02.67.63,1.12,1.21,1.38.24.1.53.1.7.33.09.12.27.22.19.39-.25.74-1.06,1.2-1.83,1.13-.34-.05-.71-.32-1.07-.17-.35.15-.26.53-.44.81-.38.6-1.21-.1-1.5-.45-.23-.29-.29-.7-.56-.96-.09-.09-.63-.2-.78-.43-.68-.63-1.36-.46-2.27-.39-.69.05-1.78.31-1.57,1.22.2.79.96,1.65.06,2.34-.7.57-1.64.48-2.35-.02-.58-.42-1.17-1.02-1.96-.9-.67.1-.15.72.03,1.01.47.76-.42.91-.99.91-.85,0-1.7-.16-2.49-.49-.64-.26-1.27-.59-1.96-.75-.71-.17-1.34-.04-2.04.12-.85.22-1.6.27-2.41-.13-.66-.33-1.24-.8-1.91-1.11-.64-.28-1.51-.38-2.02-.87-.4-.38-.47-1.02-.24-1.51.32-.7,1.15-.52,1.59-1.06.43-.53.88-.74,1.58-.6.63.13,1.09.48,1.3,1.1.17.54.17,1.1.49,1.6.45.7,1.23.67,1.96.53.76-.14,1.33.05,2.05.29.62.19,1.27.21,1.79-.23.33-.27.51-.78.29-1.18-.37-.71-1.52-.82-2.23-.94-1.29-.21-2.18-1.13-3.42-1.47-.79-.21-2.57-.3-2.18-1.55.44-1.32,2.46-1.37,3.3-.5.43.44.7,1.21,1.36,1.35.57.14,1.16-.11,1.74.03.44.09,2.39,1.36,2.62.39.14-.66-.51-1.09-.84-1.56-.38-.53-.43-1.17-.46-1.8-.03-.62-.14-1.24-.67-1.63-.56-.41-1.28-.5-1.84-.92-1.02-.83-1.08-2.43-.29-3.43.94-1.2,2.39-.97,3.59-.31.6.34,1.29.87,2.04.78.58-.08,1.05-.64.96-1.2-.18-1.11-1.93-.71-2.67-1.01-.65-.29-.75-1.04-.31-1.57.41-.46,1.06-.7,1.68-.77,1.14-.13,2.55.16,2.78,1.46.13.7-.28,2.87.8,2.99.62.06,1.04-.66,1.66-.64.52.04.8.61,1.1.95,1.13,1.29,2.18-.7,3.28-.87,1.45-.22,2.18,1.67,3.55,1.84.61.08,1.43-.19,1.91.33.36.35.32.95.29,1.42-.06.7-.06,1.34.28,1.96.29.56.76,1.04.82,1.7.04.57-.29,1.26.15,1.74.42.44,1.22.45,1.77.26.67-.26,1-.85.98-1.54,0-.46-.22-.97-.1-1.42.18-.59.97-.36,1.33-.09.44.3.9.7,1.47.47,1.03-.42,1.25-2.08.42-2.79-1.01-.88-2.13.24-2.86.92-.67.63-2.07,1.36-2.87.46-.9-1.03,1.31-1.46,1.34-2.35.03-1-1.61-1.36-2.1-2.06-.38-.54-.23-1.16-.4-1.75-.14-.61-.64-.79-1.19-.91-.79-.2-1.27-.53-1.85-1.08-.46-.45-.97-.67-1.53-.96-.49-.27-.9-.73-.69-1.31.2-.57.8-.8,1.34-.61.9.3,1.77,1.71,2.84,1.24.5-.23.77-.88.67-1.4-.09-.53-.56-.84-1.04-.94-.53-.11-1.14-.13-1.43-.65-.26-.46-.22-1.16.28-1.46.53-.31,1.33-.49,1.94-.43.73.11,1.29.57,1.91.87.72.35,1.49.42,2.25.22.61-.15,1.36-.4,1.98-.12.58.27.58.98.25,1.46-.34.49-.91.41-1.37.15-.62-.36-1.01-.29-1.7-.21-.44.07-1.45.18-1.55.75-.09.52.72.88.97,1.25.33.47.18,1.05.44,1.53.41.72,1.54-.45,1.86-.74.57-.54,1.92-1.43,2.04-.04.06.75.03,1.18.79,1.54.56.27.91.92,1.13,1.48.35.9-.3,2.3.43,3.03.9.89,1.66-.53,2.26-1,.39-.3,1.06-.32,1.39.1.39.53-.18,1-.57,1.29-.24.18-.62.49-.42.83.13.24.43.31.68.24.55-.16,1.06-.64,1.58-.18.22.21.56.64.7.74.55.44,1.22.52,1.81.18.47-.3.69-.91.18-1.28-.38-.32-.93-.35-1.39-.51-.79-.27-1.77-.87-1.36-1.84.37-.9,1.36-.76,2.04-.3.86.56,1.19,1.61,1.99,2.22.58.45,1.37.48,2.08.33.83-.17,1.12-.75.52-1.42-.4-.43-.82-.79-.85-1.44,0-.53.23-1.06.58-1.46.53-.59,2.9-1.89,3.05-.33.11,1.09-1.33,2.12-.77,3.2.67,1.29,2.51.53,3.61.9.49.16,1.13.53,1.17,1.1.05.59-.52,1.04-1.02,1.17-1.19.32-2.41-.21-3.07,1.12-.28.54-.61,1.14-1.31.75-.53-.29-.86-.87-1.47-1.03-.65-.16-1.12.35-1.31.9-.15.41-.35,1.08-.92.99-.56-.1-.89-.76-1.23-1.14-.41-.46-.98-.87-1.64-.82-1.54.15-.97,1.84-.45,2.67.48.79,1.35,2.46-.13,2.83-1.58.38-1.81-1.98-1.95-2.97-.18-1.11-.81-2.48-2.21-2.15-.59.13-1.13.66-1.01,1.31.11.66.72,1.15,1.15,1.64.65.72,1.3,1.74,1.44,2.72.16,1.07-.91,1.64-1.86,1.32-.72-.24-.73-.89-.82-1.53-.06-.41-.33-.97-.83-.96-.8.02-1.41,1.1-1.93,1.59-.58.55-1.53.47-2.24.8-.37.16-.66.45-.65.89,0,.58.43.88.95,1.06.7.24,1.19.54,1.78,1,.57.44.94-.02,1.16-.53.24-.56.56-.93,1.19-1.05.72-.14,1.44-.11,2.17-.25.78-.15,1.53-.42,2.32-.15.62.23,1.14.67,1.77.83,1.67.45,1.63-1.49,2.01-2.55.27-.78.51-1.55.74-2.33.19-.58.51-1.13,1.04-1.45,1.2-.73,2.39.48,2.3,1.68-.09,1.03-.9,1.89-.83,2.93.03.5.41.91.93.96.46.05.83-.28,1.1-.61.73-.88,1.09-1.89,2.14-2.5,1.03-.6,2.33-.62,3.43-.15.92.38,1.8,1.42,1.18,2.43-.48.8-1.68.95-2.52.88-1.02-.06-2.27-.49-3.21.11-1.37.9-.35,2.35.53,3.14.32.29,2.53,1.84,1.4,2.24-.53.18-.99-.06-1.32-.45-.4-.46-.72-.67-1.28-.9-.69-.28-.64-.81-.74-1.44-.09-.59-.49-.99-1-1.24-.97-.47-2.31-.48-3.3-.04-.63.29-.76.97-.34,1.52.38.51.99.8,1.52,1.16.64.42,1.3.79,2.07.93.61.13,1.32.16,1.79.62.38.34.65,1.02.07,1.34-.6.33-1.21-.22-1.59-.63-.43-.43-.99-.81-1.59-.39-.42.29-.73.95-1.3.95-.57,0-.84-.7-1.08-1.1-.31-.48-.81-.72-1.39-.61-1.06.23-1.27,1.49-.68,2.27.9,1.18,2.52.73,3.8,1.09.36.12,2.61.67,1.52,1.3-.54.32-1.2.15-1.8.25-.64.09-1.03.6-1.11,1.2-.16.95.16,2.2.87,2.86.38.36.93.46,1.4.2.61-.37.4-.96-.02-1.39-.39-.39-.9-.74-.94-1.36-.05-.69.71-.51,1.11-.29.55.31,1.1,1.01,1.8,1,.58-.02,1.15-.54,1.24-1.12.2-1.11-1.65-2.51-.82-3.55.9-1.09,1.7.85,2.62.74.58-.06.67-.83.92-1.22.34-.53,1.1-.56,1.65-.37,1.21.42,1.24,1.74,1.41,2.8.19,1.19.71,2.53,1.86,3.12,1.41.69,3.04.13,4.35-.52.65-.26,1.25.23,1.3.89.09.78-.59,1.27-1.28,1.5M74.98,48.83s-1.28,1.06-2.12,1.25c-.65.14-2.15.04-2.8-.33-.65-.37-.82-.94-.61-1.52.28-.79,1.11-1.36,1.94-1.54.43-.11.88-.09,1.3.08.41.17.7.51,1.09.7.82.42,1.36-.36,1.98-.75.29-.18,1.28-.37,1.15.26-.19.82-1.33,1.39-1.94,1.85M59.52,77.63c-.14.39-.36.75-.64,1.06-.29.31-.64.57-1.05.76-.41.19-.89.29-1.43.29-.57,0-1.09-.12-1.53-.33-.44-.22-.81-.52-1.12-.89-.3-.38-.53-.81-.68-1.29-.15-.48-.23-1-.23-1.55,0-.94.19-1.77.57-2.48.38-.69.85-1.3,1.41-1.8.56-.49,1.15-.89,1.77-1.18.61-.3,1.18-.52,1.68-.66l.1-.03.26.72-.1.05c-.37.16-.72.35-1.05.56-.34.22-.65.48-.93.76-.28.29-.52.63-.72,1-.16.3-.28.66-.37,1.05.11-.05.23-.1.37-.14.25-.08.54-.12.86-.12.5,0,.94.07,1.32.22.38.15.7.36.95.63.26.27.46.59.58.95.12.36.19.76.19,1.2,0,.41-.08.82-.22,1.21M51.57,77.9c-.16.36-.41.68-.73.95-.31.27-.68.49-1.12.65-.43.16-.91.25-1.44.25-.47,0-.91-.06-1.31-.17-.39-.11-.75-.29-1.04-.5-.29-.22-.53-.49-.7-.79-.17-.32-.25-.66-.25-1.05,0-.33.05-.61.16-.87.1-.26.23-.49.41-.7.18-.2.38-.38.63-.55.18-.13.39-.25.6-.37-.47-.31-.84-.65-1.08-1.01-.28-.41-.41-.9-.41-1.47,0-.37.09-.73.28-1.06.18-.33.42-.61.71-.86.29-.24.64-.44,1.01-.57.74-.27,1.5-.25,2.21-.09.35.08.66.21.94.38.28.18.5.41.67.68.17.28.26.62.26,1.01,0,.34-.08.64-.23.9-.14.25-.32.47-.52.65-.2.18-.4.33-.61.46-.12.06-.22.11-.3.15.25.14.51.29.75.45.26.17.5.37.71.59.21.22.37.49.49.77.13.29.19.63.19,1.01,0,.41-.09.79-.26,1.14M43.82,77.9c-.18.36-.42.68-.73.95-.31.27-.68.49-1.12.65-.43.16-.91.25-1.44.25-.47,0-.91-.06-1.31-.17-.4-.11-.75-.29-1.05-.5-.3-.22-.53-.49-.69-.79-.16-.32-.25-.66-.25-1.05,0-.31.05-.61.15-.87.1-.26.24-.49.42-.7.17-.2.38-.38.63-.55.19-.13.39-.25.6-.37-.47-.31-.84-.65-1.08-1.01-.28-.41-.42-.9-.42-1.47,0-.37.09-.73.28-1.06.18-.33.42-.61.71-.86.3-.24.63-.44,1.01-.57.74-.27,1.51-.25,2.21-.09.35.08.66.21.94.38s.5.41.67.68c.16.28.25.62.25,1.01,0,.34-.07.64-.22.9-.14.25-.32.47-.52.65-.2.18-.4.33-.61.46-.1.05-.2.11-.3.15.25.14.51.29.75.45.26.17.51.37.71.59.21.22.37.49.49.77.12.29.19.63.19,1.01,0,.41-.09.79-.26,1.14M36.22,79.49h-5.48v-.89l1.15-.07c.22-.01.37-.06.44-.14.05-.05.11-.19.11-.52v-5.24c0-.27-.08-.46-.23-.57-.18-.12-.44-.2-.78-.22l-.69-.05v-.77l.09-.02c.18-.03.39-.08.63-.14.24-.06.5-.15.75-.26.26-.11.51-.24.74-.38.23-.14.43-.3.58-.47l.04-.04h.96v8.17c0,.33.06.47.11.52.08.08.22.13.44.14l1.14.07v.89h0ZM12.86,41.63c.17-.38.7-.42,1.05-.3.65.22,1.31.42,1.95.67.4.16.91.12,1.22.48.31.38.19.93-.04,1.32-.5.86-1.61.56-2.31.13-.48-.28-.89-.7-1.3-1.1-.33-.29-.79-.71-.57-1.19M13.8,37.25c.43-.42.81-.88,1.18-1.35.28-.37.68-.96,1.24-.77.44.16.54.73.49,1.14-.05.57-.48.99-.73,1.48-.15.33.22.83-.21,1.08-.57.3-1.25.08-1.87.1-.32.02-.83-.02-.9-.42-.08-.52.47-.94.79-1.27M29.9,10.45c.68-.79,1.87-.6,2.73-.21,1.1.52,1.94,1.45,2.86,2.23.99.85,2.04,1.65,2.86,2.69.4.2.47.78.2,1.12-.33.44-.91.05-1.27-.13-1.12-.59-2.45-.03-3.59-.54-.42-.21-.86-.79-.42-1.19.3-.27.39-.78-.06-.91-1.05-.33-2.32.32-3.21-.54-.65-.66-.7-1.82-.1-2.52M50.74,9.53c.33-1.63,2.72-1.81,3.89-1.03.82.52.62,1.58.57,2.4-.05,1.01.63,1.83,1.06,2.69.15.76-.05,1.77-.86,2.09s-1.34-.34-1.66-.99c-.49-.94-.99-1.8-1.66-2.63-.58-.71-1.55-1.5-1.34-2.54M57.66,11.03c.28-.43.84-.4,1.29-.4,1.2.01,2.38.52,3.18,1.41.35.41.86.98.56,1.56-.23.44-.82.44-1.26.38-1.24-.1-2.37-.74-3.28-1.59-.35-.34-.85-.86-.5-1.36M73.02,37.28c.28-.36.79-.33,1.2-.3.93.07,1.88.5,2.39,1.31.44.7-.49,1.5-1.19,1.31-.42-.14-.56-.57-.87-.84-.35-.3-.86-.26-1.24-.51-.31-.2-.53-.65-.29-.98M78.46,39.72c.37.36.67,1.08.14,1.42-.46.3-1.17.02-1.44-.42-.44-.72.71-1.73,1.3-1M44.39,0C19.87,0,0,19.87,0,44.39s19.87,44.39,44.39,44.39,44.39-19.88,44.39-44.39S68.91,0,44.39,0"/>
    <path class="cls-1" d="M56.16,74.45c-.17,0-.33.03-.47.09-.14.05-.25.1-.36.19-.04.19-.06.39-.07.59-.02.22-.03.44-.03.67,0,.39.02.78.05,1.13.04.34.1.66.19.91.08.26.21.46.36.6.14.14.33.21.56.21.34,0,.59-.15.76-.47.18-.34.28-.88.28-1.61s-.1-1.27-.29-1.71c-.18-.41-.5-.6-.97-.6"/>
    <path class="cls-1" d="M47.48,72.56c.12.12.25.23.42.33.16.11.33.21.53.32l.45.25c.17-.15.32-.34.45-.6.14-.27.22-.61.22-1,0-.48-.1-.84-.32-1.04-.22-.2-.49-.31-.83-.31-.38,0-.69.1-.93.29-.25.2-.36.48-.36.84,0,.21.03.38.1.52.07.14.16.28.27.4"/>
    <path class="cls-1" d="M41.72,76.29c-.15-.13-.32-.24-.51-.35-.2-.11-.4-.22-.61-.33l-.75-.39c-.29.21-.49.47-.62.78-.14.34-.22.71-.22,1.12,0,.54.15.94.45,1.23.3.28.68.43,1.14.43s.84-.12,1.15-.35c.3-.23.45-.6.45-1.11,0-.22-.04-.41-.13-.58-.09-.16-.21-.31-.35-.44"/>
    <path class="cls-1" d="M49.48,76.29c-.15-.13-.32-.24-.5-.35-.2-.11-.4-.22-.61-.33l-.76-.39c-.29.21-.5.47-.63.78-.14.34-.21.71-.21,1.12,0,.54.15.94.45,1.23.3.28.69.43,1.15.43s.84-.12,1.14-.35c.3-.23.45-.6.45-1.11,0-.22-.04-.41-.13-.58-.09-.16-.2-.31-.35-.44"/>
    <path class="cls-1" d="M39.72,72.56c.12.12.25.23.42.33.15.11.33.21.53.32l.45.25c.17-.15.32-.34.46-.6.14-.27.22-.61.22-1,0-.48-.11-.84-.32-1.04-.22-.21-.49-.31-.83-.31-.37,0-.69.1-.94.29-.24.2-.36.48-.36.84,0,.2.03.38.1.52.07.14.16.28.27.4"/>
</svg>