<?xml version="1.0" encoding="UTF-8"?>
<svg id="_Шар_1" data-name="Шар 1" xmlns="http://www.w3.org/2000/svg" viewBox="0 0 567.68 962.51">
    <defs>
        <style>
            .cls-1 {
            fill: #ffffff;
            }

            .cls-2 {
            fill: #ffffff;
            }

            .cls-3 {
            opacity: .8;
            }

            .cls-4 {
            fill: #ffffff;
            }

            .cls-5 {
            fill: #ffffff;
            }

            .cls-6 {
            fill: #ffffff;
            }

            .cls-7 {
            fill:#ffffff;
            }
        </style>
    </defs>
    <g class="cls-3">
        <g class="cls-3">
            <path class="cls-4" d="M485.12,641.39c8.32-21.54,14.84-43.74,17.61-66.42.27-2.83.64-5.67.86-8.51.17-2.85.33-5.69.5-8.53.03-2.87.06-5.74.09-8.61.06-1.43-.07-2.89-.11-4.33l-.17-4.34c-.6-11.59-2.1-23.27-4.46-34.77-2.35-11.5-5.56-22.82-9.52-33.66-1.98-5.41-4.15-10.73-6.51-15.75-.58-1.22-1.19-2.51-1.77-3.62l-.43-.83-.42-.77-1.05-1.93c-1.39-2.52-2.78-4.94-4.23-7.32-11.49-18.95-26.21-34.84-42.79-45.3-7.23-4.9-14.8-9.08-22.53-12.55,1.49,1.49,2.99,2.95,4.42,4.5l2.16,2.29,2.09,2.36c15.76,17.92,28.8,38.96,39.08,61.86l1.97,4.44,1.04,2.37.03.08h0s0,.03,0,.03v.04s.1.26.14.39l.33.87c.5,1.32,1.02,2.66,1.54,4.11.53,1.4,1.04,2.87,1.55,4.34,2.04,5.9,3.99,11.98,5.7,18.11,3.49,12.25,6.16,24.68,7.96,36.87,1.8,12.21,2.62,24.14,2.36,35.57-.28,11.44-1.68,22.96-4.1,34.45-4.8,23-13.84,45.82-25.58,67.57-6.7,13.82-14.34,27.72-23.14,41.42l-1.64,2.58-1.72,2.54c-1.15,1.7-2.3,3.4-3.46,5.11-2.35,3.39-4.83,6.72-7.27,10.12-2.57,3.29-5.09,6.66-7.77,9.94-1.35,1.63-2.71,3.26-4.07,4.9l-2.05,2.46-2.12,2.4c-22.58,25.71-50.4,49.22-83.6,66.47-7.38,3.74-4.81,10.95-3.53,14.55,4.46.32,8.77.83,12.97,1.47,4.19.61,8.22,1.28,12.2,2.05,26.59-17.96,51.01-38.65,73.21-61.31,22.19-22.68,42.21-47.29,59.84-73.74,6.24-8.52,9.3-19.62,11.23-29.58.45-2.49.89-4.92,1.31-7.26.35-2.35.68-4.58,1.05-6.66.82-4.14,1.48-7.76,2.78-10.46Z"/>
            <path class="cls-2" d="M332.99,830.86c.53.09,1.04.21,1.55.31,2.69-1.8,5.38-3.57,7.99-5.47-3.12,1.81-6.34,3.44-9.54,5.16Z"/>
            <path class="cls-5" d="M444.92,724.88c1.45-2.15,2.89-4.29,4.33-6.43l2.19-3.17,2.12-3.2c1.42-2.13,2.85-4.23,4.3-6.32,1.38-2.13,2.77-4.25,4.18-6.34.7-1.05,1.43-2.08,2.11-3.14l2.03-3.18c1.35-2.12,2.77-4.19,4.09-6.32,2.62-4.27,5.35-8.45,7.84-12.76.43-1.63.82-3.25,1.2-4.86.33-1.62.62-3.23.91-4.8.56-3.15,1.13-6.14,1.52-9,.43-2.84.94-5.45,1.47-7.8.49-2.37,1.09-4.44,1.9-6.16,8.32-21.54,14.84-43.74,17.61-66.42.27-2.83.64-5.67.86-8.51.17-2.85.33-5.69.5-8.53.03-2.87.06-5.74.09-8.61.06-1.43-.07-2.89-.11-4.33l-.17-4.34c-.6-11.59-2.1-23.27-4.46-34.77-2.35-11.5-5.56-22.82-9.52-33.66-1.98-5.41-4.15-10.73-6.51-15.75-.58-1.22-1.19-2.51-1.77-3.62l-.43-.83-.42-.77-1.05-1.93c-1.39-2.52-2.78-4.94-4.23-7.32-11.49-18.95-26.21-34.84-42.79-45.3-7.15-4.84-14.62-8.99-22.28-12.43l2.41,2.38,2.34,2.46c1.57,1.61,3.04,3.34,4.54,5.02,5.42,6.23,10.49,12.88,15.28,19.79,4.76,6.95,9.21,14.19,13.32,21.69,2.05,3.76,4.02,7.57,5.9,11.45,1.9,3.9,3.67,7.77,5.5,11.94,2.93,6.78,5.84,15.29,8.43,23.64,1.05,1.65,2.03,3.37,3,4.97,5.63,8.55,8,17.99,9.13,27.29,1.16,9.34.85,18.51,1.55,27.42,1.14,6.27,1.82,12.36,2.09,18.3.06,2.96.24,5.9.05,8.84-.05,1.47-.11,2.93-.16,4.39-.05,1.46-.26,2.92-.38,4.38-1.1,11.65-3.64,23.05-7.19,34.28-3.56,11.24-8.12,22.33-13.46,33.53-5.35,11.21-11.46,22.54-18.33,34.38-1.18,2.13-2.45,4.26-3.59,6.49-1.17,2.22-2.22,4.56-3.42,6.85-1.16,2.32-2.3,4.7-3.44,7.12-1.23,2.39-2.47,4.8-3.72,7.24-5.18,9.69-11.35,19.6-20.25,27.88-2.87,2.99-5.89,5.75-8.86,8.45-3.05,2.62-6.15,5.09-9.24,7.49-21.77,23.6-48.13,44.97-79.09,60.96-7.37,3.75-4.83,10.97-3.57,14.58,4.67.34,9.15.94,13.53,1.64,26.25-13.03,50.68-29.61,74.1-48.23,9.4-9.02,18.48-18.34,27.17-28,8.65-9.7,16.95-19.68,24.88-29.96-1.2.38-2.5,1-4.03,1.9Z"/>
            <path class="cls-2" d="M455.32,730.29c1.23-1.42,1.51-3.89.53-5.66-.97-1.78-3.21-2.87-6.91-1.65-7.93,10.28-16.23,20.26-24.88,29.96-8.69,9.66-17.77,18.98-27.17,28,9.83-7.84,19.6-15.93,29.28-24.39,9.67-8.47,19.34-17.2,29.15-26.25Z"/>
            <path class="cls-1" d="M472.76,750.6c9.65-10.01,18.11-20.98,25.53-32.39,7.46-11.39,13.71-23.33,19.29-35.2.7-1.48,1.39-2.97,2.08-4.44.69-1.47,1.3-2.99,1.95-4.48.65-1.49,1.29-2.97,1.93-4.45.65-1.47,1.29-2.94,1.87-4.44,1.21-2.97,2.4-5.92,3.59-8.85,1.11-2.97,2.23-5.9,3.37-8.81,4.4-11.69,8.47-23.12,12.79-34.27,4.2-11.81,8.12-23.86,11.69-35.98.84-3.04,1.78-6.06,2.61-9.09.78-3.04,1.58-6.07,2.41-9.09.44-1.52.77-3.01,1.13-4.5.37-1.5.73-2.99,1.09-4.47.72-2.97,1.57-5.96,2.18-8.84-.23-2.1-.46-4.19-.69-6.28-.24-2.08-.43-4.18-.77-6.22-.31-2.05-.61-4.09-.92-6.13-.32-2.03-.57-4.09-.97-6.07l-1.97-9.31c-.71-3.08-1.51-6.11-2.26-9.17-.73-3.07-1.64-6.05-2.49-9.05l-1.29-4.5-1.41-4.44c-3.76-11.86-8.08-23.4-13.02-34.81-1.21-2.85-2.54-5.71-3.85-8.57-1.37-2.89-2.7-5.69-4.32-8.84l-.65-1.27-.42-.8-.26-.47-1.05-1.91-2.21-3.97c-1.52-2.68-3.06-5.37-4.67-8.04-6.41-10.7-13.47-21.09-21.16-31.04-15.41-19.87-33.48-38.14-54.36-53.32-5.18-3.83-10.6-7.37-16.08-10.8-5.55-3.34-11.19-6.56-17.01-9.44-11.59-5.84-23.78-10.71-36.02-14.49-12.25-3.79-24.6-6.59-37-8.58-12.4-1.98-24.86-3.14-37.35-3.5-12.5-.36-25.04.05-37.64,1.35-12.6,1.31-25.27,3.48-38.03,6.89-12.75,3.38-25.65,8.16-38.53,15.14-1.61.82-3.22,1.82-4.82,2.79-1.61,1-3.21,1.9-4.81,3.01l-4.78,3.34-1.19.85-1.18.94-2.35,1.9c-3.14,2.43-6.19,5.45-9.2,8.37-1.47,1.6-2.93,3.23-4.37,4.87l-1.08,1.24c-.35.43-.69.89-1.04,1.34l-2.04,2.72-2,2.76c-.65.94-1.25,1.97-1.86,2.97l-1.81,3.02c-.59,1.02-1.2,2.01-1.7,3.12-1.05,2.16-2.07,4.35-3.05,6.56-.48,1.1-.88,2.24-1.3,3.37l-.62,1.7-.54,1.69c-2.9,9.05-4.17,17.97-4.48,26.56-.14,4.3,0,8.51.32,12.68.38,4.14.89,8.25,1.68,12.26,1.52,8.05,3.88,15.84,7.02,23.45,4.01,9.26,9.32,18.13,16.26,26.36,3.49,4.1,7.41,8.04,11.81,11.69,2.18,1.83,4.54,3.57,6.97,5.24,1.22.8,2.54,1.68,3.85,2.46,1.31.77,2.64,1.52,3.97,2.25,7.51,3.91,15.5,6.68,23.77,8.25,2.11.36,4.14.68,6.17.93,2,.18,4,.32,5.99.43,2,.12,3.89.04,5.84.03,1.96,0,3.81-.16,5.66-.32,7.42-.65,14.33-2.07,20.61-4,6.3-1.92,12.14-4.24,17.57-6.83,10.8-5.22,20.19-11.33,28.73-17.93,4.28-3.3,8.35-6.73,12.28-10.29,3.94-3.58,7.68-7.21,11.51-11.26l1.5-1.6.87-.93c.28-.31.47-.55.71-.83l2.73-3.26c1.8-2.18,3.63-4.32,5.25-6.65l2.48-3.43c.81-1.15,1.66-2.27,2.39-3.48,1.49-2.38,2.98-4.76,4.47-7.14,5.63-9.7,10.14-19.87,13.59-30.15,3.46-10.29,5.87-20.69,7.54-30.97,1.69-10.27,2.6-20.46,3.25-30.19.43-3.51.86-6.97,1.29-10.4.39-3.45.78-6.87,1.16-10.25.72-6.75,1.37-13.35,1.94-19.88.56-6.53,1.05-12.99,1.47-19.43.38-6.44.71-12.86.88-19.31.37-12.89.17-25.91-.9-39.35-1.07-13.43-3.18-27.27-6.85-41.59-4.29-17.96-11.27-35.19-20.2-51.14-9.08-15.88-20.24-30.38-32.82-43.05-12.57-12.71-26.65-23.49-41.49-32.49-14.85-9-30.51-16.19-46.53-21.72-16.02-5.55-32.43-9.39-48.93-11.79C162.92.75,146.32-.22,129.76.04,96.63.59,63.75,5.89,31.3,15.17c-2.18.65-4.22,1.37-6.11,2.16-.95.39-1.86.81-2.73,1.23-.87.46-1.7.93-2.5,1.41-3.19,1.94-5.84,4.04-7.98,6.27-4.25,4.6-6.52,9.47-7.44,13.87-.99,4.46-.68,8.43.41,11.14.54,1.35,1.28,2.39,2.15,3.02.84.64,1.91.81,2.85.58,23.82-8.98,48.87-14.44,74.08-16.24,25.21-1.79,50.6.06,74.97,5.73,24.37,5.63,47.74,14.95,68.81,27.7,21.08,12.73,39.84,28.91,55.04,47.8,7.6,9.44,14.35,19.52,20.14,30.17,5.76,10.67,10.59,21.87,14.55,33.45,7.88,23.17,12.1,47.87,13.23,72.95.58,12.54.37,25.19-.58,37.77-.47,6.29-1.15,12.55-2.03,18.72l-.72,4.87-.76,4.84c-.24,1.62-.53,3.16-.79,4.74-.26,1.58-.55,3.12-.85,4.66-1.18,6.15-2.51,12.15-4.2,17.92-1.69,5.77-3.54,11.44-5.88,16.81l-.84,2.04-.94,1.98-1.88,3.96-2.07,3.84c-.35.63-.66,1.3-1.05,1.91l-1.14,1.85c-2.9,5.05-6.44,9.63-10.06,14.21l-4.28,4.72c-1.21,1.37-2.87,2.89-4.5,4.4-3.3,3-6.78,5.94-10.35,8.68-7.14,5.48-14.63,10.36-22.21,14.12-7.57,3.73-15.27,6.36-22.3,7.18-3.5.39-6.81.33-9.85-.17-2.95-.48-5.89-1.45-8.59-2.84-4.26-2.26-8.56-6.11-12.08-10.84-3.54-4.73-6.39-10.34-8.32-16.21-1.93-5.87-2.95-12.04-2.9-17.85.02-2.91.31-5.72.86-8.34.27-1.31.62-2.57,1.01-3.77.18-.61.44-1.17.64-1.76.24-.57.55-1.11.8-1.67,2.12-4.45,5.48-8.69,9.88-12.5,4.4-3.81,9.78-7.16,15.65-9.96,5.88-2.8,12.25-5.08,18.84-6.9,6.59-1.81,13.4-3.23,20.34-4.13,6.93-.91,13.94-1.52,20.98-1.66,7.04-.12,14.09,0,21.1.59,14.01,1.13,27.85,3.58,40.99,7.45,1.65.47,3.29.94,4.9,1.5l4.83,1.61c3.16,1.21,6.34,2.31,9.38,3.67,3.1,1.24,6.05,2.72,9.02,4.11,2.9,1.53,5.81,2.99,8.6,4.68,11.27,6.52,21.52,14.53,30.73,23.57,7.73,3.46,15.3,7.65,22.53,12.55,16.58,10.46,31.3,26.34,42.79,45.3,1.45,2.37,2.84,4.79,4.23,7.32l1.05,1.93.42.77.43.83c.58,1.12,1.19,2.41,1.77,3.62,2.36,5.02,4.53,10.34,6.51,15.75,3.96,10.84,7.17,22.16,9.52,33.66,2.36,11.5,3.86,23.18,4.46,34.77l.17,4.34c.04,1.44.17,2.9.11,4.33-.03,2.87-.06,5.74-.09,8.61-.17,2.84-.33,5.69-.5,8.53-.23,2.84-.6,5.68-.86,8.51-2.77,22.68-9.3,44.88-17.61,66.42-1.3,2.7-1.96,6.32-2.78,10.46-.38,2.08-.71,4.31-1.05,6.66-.42,2.34-.86,4.77-1.31,7.26-1.93,9.96-4.99,21.06-11.23,29.58-17.63,26.45-37.65,51.06-59.84,73.74-22.2,22.66-46.61,43.35-73.21,61.31,2.11.41,4.18.81,6.2,1.2,2.05.38,4.06.76,6.06,1.13,4.01.75,7.99,1.48,11.96,2.1,3.94.56,7.87,1.01,11.85,1.27,1.98.12,3.99.22,5.99.22,1.99-.01,3.99-.09,6.02-.24,15.93-13.58,31.03-27.9,45.68-42.31,14.62-14.46,28.81-28.97,43.31-43.18Z"/>
            <path class="cls-6" d="M472.76,750.6c-14.49,14.22-28.68,28.72-43.31,43.18-14.65,14.41-29.75,28.73-45.68,42.31,7.96-.52,16.13-2.35,24.71-6.08,11.61-6.09,22.93-13.22,33.95-21.15,10.95-8.03,21.53-16.95,31.64-26.66,10.07-9.75,19.59-20.38,28.51-31.69,2.19-2.86,4.44-5.68,6.56-8.63,2.1-2.97,4.19-5.93,6.29-8.91,2.03-3.04,4-6.12,5.99-9.19,1.01-1.53,1.95-3.1,2.89-4.69l2.81-4.75c14.78-25.49,26.44-53.56,33.26-83.11,3.43-14.75,5.69-29.83,6.68-44.96.12-1.89.3-3.77.35-5.67.05-1.9.1-3.79.15-5.68.04-1.89.09-3.78.13-5.67-.03-1.89-.07-3.78-.1-5.67-.04-1.89-.08-3.77-.11-5.65-.07-1.87-.23-3.73-.34-5.59-.12-1.86-.24-3.71-.37-5.56l-.18-2.77-.29-2.73c-.61,2.88-1.46,5.88-2.18,8.84-.36,1.48-.73,2.97-1.09,4.47-.36,1.49-.69,2.99-1.13,4.5-.83,3.02-1.63,6.06-2.41,9.09-.83,3.03-1.77,6.06-2.61,9.09-3.57,12.11-7.49,24.17-11.69,35.98-4.32,11.15-8.39,22.58-12.79,34.27-1.14,2.9-2.26,5.84-3.37,8.81-1.19,2.93-2.39,5.88-3.59,8.85-.58,1.5-1.22,2.97-1.87,4.44-.64,1.48-1.28,2.96-1.93,4.45-.65,1.48-1.26,3-1.95,4.48-.69,1.48-1.39,2.96-2.08,4.44-5.58,11.87-11.83,23.82-19.29,35.2-7.42,11.41-15.89,22.38-25.53,32.39Z"/>
            <path class="cls-5" d="M472.76,750.6c-13.83,13.58-27.39,27.4-41.32,41.19-13.92,13.78-28.22,27.51-43.29,40.57,11.89-6.36,23.45-13.67,34.27-22.19,27.63-21.65,52.71-47.17,74.68-75.58,21.92-28.49,40.8-59.82,55.83-94.26-6.28,19.18-14.4,37.47-23.85,54.76-9.49,17.28-20.37,33.51-32.14,48.87-11.79,15.35-24.53,29.79-37.98,43.41-13.48,13.6-27.66,26.38-42.4,38.44,11.11-6.43,22.05-13.63,32.49-21.84,1.31-1.02,2.62-2.04,3.94-3.06,1.28-1.07,2.57-2.13,3.85-3.2,2.55-2.16,5.14-4.3,7.65-6.56,2.5-2.27,4.98-4.57,7.46-6.88,2.49-2.31,4.85-4.78,7.27-7.19,19.22-19.47,36.28-42.18,50.35-67.15,13.97-25.04,24.78-52.5,31.26-81.16,3.24-14.33,5.29-28.98,6.19-43.64.32-3.65.34-7.34.45-11,.03-1.83.12-3.66.1-5.49-.03-1.83-.06-3.67-.1-5.5-.04-1.83-.07-3.65-.11-5.48-.09-1.81-.22-3.61-.33-5.41-.12-1.8-.23-3.6-.35-5.39l-.18-2.69c-.07-.89-.19-1.77-.28-2.65-.16.72-.33,1.44-.49,2.17-.19.73-.37,1.47-.56,2.21-.37,1.47-.74,2.95-1.12,4.44-.36,1.48-.72,2.96-1.09,4.46-.35,1.49-.7,2.98-1.13,4.49-.82,3.01-1.62,6.04-2.4,9.07-.86,2.99-1.73,6.01-2.6,9.06-3.56,12.08-7.47,24.1-11.66,35.86-4.32,11.15-8.39,22.58-12.79,34.27-1.14,2.9-2.26,5.84-3.37,8.81-1.19,2.93-2.39,5.88-3.59,8.85-.58,1.5-1.22,2.97-1.87,4.44-.64,1.48-1.28,2.96-1.93,4.45-.65,1.48-1.26,3-1.95,4.48-.69,1.48-1.39,2.96-2.08,4.44-5.58,11.87-11.83,23.82-19.29,35.2-7.42,11.41-15.89,22.38-25.53,32.39Z"/>
            <path class="cls-7" d="M528.04,652.11c-.54,1.2-1.06,2.42-1.62,3.61l-1.73,3.55c-1.17,2.36-2.29,4.74-3.49,7.08-2.5,4.62-4.86,9.3-7.56,13.78-5.14,9.1-10.89,17.79-16.74,26.35-3.05,4.19-5.96,8.48-9.15,12.54l-4.7,6.16-4.86,6.02-2.42,3.02-2.51,2.94-5,5.89-5.14,5.76c-1.72,1.91-3.41,3.86-5.19,5.71-14.02,15.06-28.84,29.35-44.35,42.94-15.54,13.56-31.71,26.5-48.44,38.98,4.49.46,8.99.78,13.54.69,3.18-1.54,6.31-3.14,9.49-4.78,15.07-13.05,29.38-26.78,43.29-40.57,13.93-13.79,27.49-27.61,41.32-41.19,9.65-10.01,18.11-20.98,25.53-32.39,7.46-11.39,13.71-23.33,19.29-35.2.7-1.48,1.39-2.97,2.08-4.44.69-1.47,1.3-2.99,1.95-4.48.65-1.49,1.29-2.97,1.93-4.45.65-1.47,1.29-2.94,1.87-4.44,1.21-2.97,2.4-5.92,3.59-8.85,1.11-2.97,2.23-5.9,3.37-8.81,4.4-11.69,8.47-23.12,12.79-34.27,4.19-11.77,8.1-23.79,11.66-35.86.88-3.05,1.74-6.07,2.6-9.06.77-3.03,1.57-6.05,2.4-9.07.44-1.51.78-3,1.13-4.49.37-1.5.73-2.98,1.09-4.46.38-1.49.75-2.97,1.12-4.44.19-.74.38-1.47.56-2.21.16-.73.33-1.45.49-2.17-.44-3.93-.81-7.87-1.32-11.74-.57-3.84-1.14-7.68-1.71-11.51-2.51-12.76-5.7-25.18-9.5-37.3-3.81-12.12-8.21-23.91-13.25-35.56-1.23-2.92-2.59-5.83-3.93-8.75-1.4-2.96-2.76-5.8-4.43-9.05l-.74-1.43-.59-1.08-1.08-1.96-2.26-4.06c-1.56-2.74-3.14-5.48-4.79-8.21-6.56-10.92-13.81-21.5-21.73-31.62-15.82-20.23-34.5-38.72-55.99-53.99-10.75-7.62-22.19-14.38-34.13-20.17-11.93-5.8-24.48-10.44-36.99-14.06-22.43-4.07-44.89-5.8-67.54-5.51-11.32.15-22.69.82-34.11,2.11-11.43,1.3-22.91,3.2-34.47,5.99-11.55,2.78-23.19,6.49-34.83,11.76-1.46.67-2.91,1.31-4.36,2.02l-4.36,2.26-2.18,1.14-2.17,1.28-4.33,2.59c-1.44.93-2.87,1.93-4.29,2.9l-2.14,1.48c-.71.51-1.41,1.09-2.12,1.63l-4.2,3.35c-1.38,1.22-2.74,2.49-4.1,3.75-.68.64-1.36,1.25-2.02,1.93l-1.96,2.11-1.94,2.13c-.64.72-1.3,1.41-1.9,2.22-1.22,1.56-2.43,3.15-3.62,4.74-.61.77-1.15,1.66-1.7,2.52l-1.63,2.61-1.6,2.64c-.48.93-.95,1.87-1.42,2.81-.91,1.89-1.89,3.77-2.67,5.73-1.63,3.93-2.83,7.86-3.85,11.8-1.89,7.85-2.77,15.63-2.75,23.15-.04,3.79.21,7.49.54,11.18.41,3.66.9,7.32,1.65,10.89-1.68-6.67-2.83-13.52-3.24-20.63-.4-7.11-.19-14.44,1.09-22.01l.51-2.84c.19-.95.42-1.91.63-2.86.41-1.9.99-3.84,1.54-5.75.28-.96.63-1.93.96-2.89.34-.96.65-1.93,1.06-2.86.79-1.88,1.6-3.75,2.44-5.6,3.53-7.23,7.88-13.95,12.76-19.5,2.39-2.96,4.96-5.38,7.52-7.96,1.29-1.26,2.61-2.33,3.92-3.49,1.32-1.12,2.64-2.33,3.99-3.31,2.68-2.03,5.39-4.13,8.13-5.85l4.11-2.68,4.13-2.4c11.05-6.3,22.21-10.93,33.35-14.61-12.48,3.51-25.08,8.23-37.67,15.16-6.29,3.62-12.57,7.55-18.68,12.71l-2.29,1.88c-.76.66-1.5,1.38-2.25,2.08-1.49,1.42-2.98,2.79-4.44,4.29-1.44,1.57-2.86,3.16-4.27,4.77l-1.05,1.21-1.01,1.32-1.99,2.66-1.96,2.69c-.64.92-1.22,1.93-1.82,2.9l-1.77,2.95c-.57,1-1.18,1.95-1.68,3.03-1.03,2.11-2.03,4.25-2.99,6.4-.5,1.07-.88,2.18-1.3,3.28-.41,1.1-.83,2.22-1.16,3.31-1.48,4.43-2.47,8.81-3.26,13.17-.73,4.34-1.17,8.62-1.36,12.84-.33,8.41.25,16.58,1.67,24.46.67,3.96,1.62,7.83,2.66,11.68,1.12,3.82,2.34,7.63,3.84,11.36,3.98,9.65,9.27,18.89,16.38,27.44,3.55,4.27,7.55,8.37,12.07,12.17,2.25,1.9,4.67,3.72,7.18,5.44,1.27.83,2.62,1.73,3.98,2.55,1.36.8,2.73,1.57,4.11,2.33,9.35,4.94,19.61,8.05,29.98,9.15,10.12,1.09,19.66.3,28.22-1.42,8.58-1.74,16.26-4.4,23.28-7.47,7.02-3.09,13.4-6.61,19.35-10.37,2.38-5.28,5.61-10.96,10.23-17.17,2.29-3.12,4.94-6.37,7.97-9.83,3.04-3.48,6.46-7.13,10.44-11.23l2.38-2.49c.93-.96,1.63-1.81,2.37-2.67l4.44-5.14c1.44-1.73,2.78-3.56,4.17-5.33l2.06-2.67,1.91-2.77c5.22-7.3,9.58-15.11,13.24-23.11l1.34-3.02.66-1.51.59-1.53c.78-2.05,1.54-4.1,2.28-6.15.66-2.08,1.3-4.16,1.92-6.24.63-2.08,1.08-4.19,1.59-6.29,1.91-8.42,2.94-16.96,3.07-25.48,1.06-4.45,6.49-2.47,8.38-11.48-2.52,12.53-4.54,24.51-6.52,35.9-2.02,11.41-4.05,22.34-6.46,33.01,5.18-12.04,8.76-24.42,11.19-36.67,2.47-12.25,3.65-24.43,4.49-36.07.35-2.72.69-5.41,1.04-8.09.33-2.73.66-5.44.98-8.12.62-5.36,1.19-10.61,1.72-15.8,1.02-10.38,1.93-20.52,2.54-30.63,1.24-20.21,1.63-40.37-.42-61.67l-1.82-6.63c-.65-2.2-1.31-4.4-1.96-6.61-6.64-21.91-18.3-42.76-32.82-60.9,4.32,8.18,8.38,16.64,11.91,25.74-1.13-1.54-2.24-3.15-3.31-4.82-1.07-1.67-2.22-3.36-3.28-5.1-2.09-3.51-4.32-7.07-6.38-10.7-2.12-3.59-4.22-7.16-6.25-10.6-1.04-1.7-2.06-3.37-3.05-5-.49-.81-.98-1.61-1.46-2.4-.5-.77-1-1.53-1.48-2.27,4.64,4.82,9.09,9.89,13.3,15.15-1.35-2.43-2.62-4.89-4.02-7.27-1.42-2.37-2.84-4.73-4.25-7.1-2.99-4.63-5.97-9.27-9.29-13.73-1.62-2.26-3.24-4.54-5.02-6.71-1.75-2.19-3.48-4.44-5.29-6.63-1.87-2.15-3.75-4.33-5.66-6.52-.94-1.11-1.94-2.17-2.96-3.24-1.01-1.07-2.03-2.14-3.05-3.22,9.99,10.39,19.85,21.16,28.93,32.12,9.07,10.96,17.29,22.11,24.23,32.73-6.08-12.15-13.12-23.52-20.88-34.15-7.78-10.62-16.24-20.5-25.21-29.79-8.95-9.31-18.54-17.89-28.5-26.16-9.98-8.25-20.41-16.12-31.36-23.79,1.35.35,2.69.79,4.01,1.17-17.29-8.01-35.34-13.69-53.55-17.61-4.53-1.06-9.14-1.78-13.7-2.59-2.28-.43-4.59-.69-6.88-1.01-2.29-.3-4.59-.6-6.88-.91-9.21-.95-18.41-1.69-27.63-1.83-18.43-.41-36.83.63-55.12,3.2-18.29,2.54-36.47,6.33-54.54,11.36-4.37,1.31-8.17,2.85-11.38,4.75-3.2,1.93-5.85,4.06-8.01,6.26-4.29,4.53-6.56,9.46-7.5,13.85-.9,4.38-.66,8.41.45,11.1.55,1.35,1.29,2.39,2.15,3.02.87.63,1.76.9,2.75.64,33.3-12.38,69-17.99,104.12-16.15,35.13,1.68,69.63,10.9,100.24,26.83,30.66,15.85,57.06,38.9,76.22,66.72l1.79,2.61.9,1.31.84,1.34,3.36,5.37c2.09,3.67,4.25,7.31,6.14,11.1,3.87,7.53,7.39,15.26,10.33,23.27,5.94,15.98,10.16,32.73,12.72,49.9.86-8.02,1.34-16.17,1.38-24.44-.02-2.06.03-4.15-.06-6.22-.08-2.08-.16-4.17-.24-6.26-.29-4.16-.56-8.4-1.1-12.62-.69-3.57-1.5-7.03-2.05-10.54-.27-1.76-.62-3.46-.86-5.2-.26-1.73-.43-3.48-.63-5.2.42,1.74.74,3.52,1.1,5.26.33,1.76.73,3.47.98,5.23.54,3.51,1.12,6.95,1.47,10.44,2.03,9.59,4.39,19.52,6.06,29.81,1.68,10.26,2.67,20.87,2.06,31.38-.37,1.01-.67,2.55-.73,4.34-.06,1.79.05,3.85.34,5.94.32,2.08.86,4.19,1.64,6.08.79,1.89,1.9,3.57,3.3,4.78-1.87,14.43-2.5,30.11-4.41,45.64-.23,1.94-.5,3.87-.78,5.79-.28,1.94-.59,3.78-.95,5.81-.34,1.99-.7,3.96-1.09,5.88-.37,1.94-.78,3.83-1.22,5.7-1.73,7.47-3.99,14.45-7.06,20.62-.52,1.53-2.89,3.67-5.81,5.87-5.05,15.81-12.62,30.1-23.13,42.42l-4.17,4.59c-.63.65-1.43,1.42-2.2,2.15-.79.74-1.59,1.49-2.42,2.23-3.28,2.97-6.76,5.82-10.29,8.51-7.07,5.39-14.49,10.12-21.98,13.8-7.48,3.65-15.06,6.14-21.98,6.93-3.45.38-6.7.28-9.68-.22-2.91-.49-5.8-1.45-8.46-2.81-4.38-2.33-8.8-6.32-12.37-11.23-3.61-4.91-6.47-10.73-8.35-16.8-1.88-6.07-2.77-12.41-2.53-18.31.12-2.95.52-5.78,1.19-8.39.15-.66.35-1.29.55-1.91.17-.64.43-1.22.64-1.82.18-.61.55-1.15.8-1.73.28-.57.52-1.15.81-1.72,2.52-4.5,6.32-8.76,11.13-12.53,4.8-3.78,10.53-7.05,16.71-9.76,12.42-5.42,26.5-8.72,40.8-10.26-5.59-.07-11.09.2-16.58.52-1.36.12-2.72.24-4.07.36l-2.04.17-2.01.24c-1.35.16-2.69.32-4.02.48-1.33.18-2.63.42-3.96.61-10.59,1.64-20.58,4.35-29.95,8.27-5.62,2.13-11.94,6.5-16.57,13.43-.56.87-1.17,1.74-1.7,2.67-.47.96-.94,1.93-1.42,2.91-.98,1.97-1.65,4.14-2.24,6.39-.58,2.26-.94,4.64-1.19,7.07-.18,2.45-.26,4.96-.1,7.52.56,10.22,3.94,21,9.6,30.38,1.4,2.35,2.97,4.6,4.65,6.73,1.67,2.14,3.48,4.14,5.41,5.97,3.8,3.69,8.14,6.66,12.51,8.67l2,.79c.66.26,1.3.57,2,.73,1.36.39,2.68.85,4.07,1.06.69.12,1.36.3,2.04.4l2.05.23,1.02.12,1.05.03c.69.03,1.38.06,2.07.08,1.39-.16,2.68-.19,3.94-.2,1.27-.08,2.48.03,3.7.05,1.22,0,2.41.16,3.62.21,1.21.04,2.42.19,3.64.25,4.9.28,10.18.28,16.07-2.02-3.18,2.88-6.75,5.51-10.7,7.65-3.96,2.12-8.29,3.82-12.94,4.87-4.64,1.09-9.61,1.37-14.63.82-5.03-.56-10.06-2.05-14.76-4.41-8.15-4.23-14.91-10.86-19.97-18.47-5.07-7.62-8.6-16.19-10.69-25.01-2.05-8.83-2.68-17.94-1.66-26.8,1.03-8.84,3.89-17.46,8.59-24.81.64-.94,1.28-1.89,1.93-2.85.31-.49.68-.94,1.05-1.38l1.12-1.34c.77-.88,1.46-1.83,2.31-2.65.83-.83,1.67-1.66,2.52-2.5.82-.86,1.75-1.62,2.67-2.38.92-.76,1.85-1.53,2.78-2.31.98-.7,1.97-1.4,2.96-2.11,1-.7,1.98-1.43,3.04-2.04,8.31-5.22,17.66-9.2,27.48-12.18,9.83-3,20.17-4.91,30.67-6.1,10.51-1.18,21.21-1.59,31.91-1.36,21.4.46,42.75,3.4,62.99,8.12,10.13,2.36,19.98,5.19,29.5,8.41,9.52,3.23,18.72,6.86,27.62,10.68,14.78,6.25,27,16.49,36.15,27.98,9.23,11.5,15.59,24.13,20.26,35.95-4.1-2.62-8.62-7.26-12.96-11.92-4.28-4.7-8.51-9.34-11.33-12.45-6.41-6.88-13.24-13.38-20.51-19.33-7.29-5.94-15-11.36-23.1-16.15-16.18-9.63-33.98-16.51-52.6-20.87-18.6-4.38-37.92-6.29-57.15-5.74-19.2.57-38.47,3.54-56.36,9.82,19.28-4.2,38.9-5.61,58.28-5.1,19.38.55,38.6,3.11,56.96,8.05,9.17,2.48,18.12,5.57,26.63,9.37,8.51,3.8,16.67,8.35,24.35,13.59,7.68,5.24,14.89,11.17,21.54,17.7,6.65,6.53,12.68,13.72,18.11,21.35-3.78-3.98-7.6-7.86-11.45-11.68-3.87-3.8-7.82-7.45-11.84-11.02l-3.06-2.6-1.53-1.31-1.57-1.25-3.13-2.51-3.2-2.39-1.6-1.2-1.64-1.14-3.28-2.27-3.35-2.14c-1.12-.71-2.23-1.44-3.39-2.07-9.12-5.37-18.77-9.66-28.92-12.45-10.13-2.82-20.7-4.1-31.19-3.59,1.57.94,3.17,1.89,4.79,2.85,1.6.94,3.23,1.81,4.82,2.78,13.69,3.81,26.59,9.03,38.2,15.72,11.7,6.64,22.3,14.92,31.82,24.26,7.66,3.44,15.13,7.59,22.28,12.43,16.58,10.46,31.3,26.34,42.79,45.3,1.45,2.37,2.84,4.79,4.23,7.32l1.05,1.93.42.77.43.83c.58,1.12,1.19,2.41,1.77,3.62,2.36,5.02,4.53,10.34,6.51,15.75,3.96,10.84,7.17,22.16,9.52,33.66,2.36,11.5,3.86,23.18,4.46,34.77l.17,4.34c.04,1.44.17,2.9.11,4.33-.03,2.87-.06,5.74-.09,8.61-.17,2.84-.33,5.69-.5,8.53-.23,2.84-.6,5.68-.86,8.51-2.77,22.68-9.3,44.88-17.61,66.42-.81,1.72-1.42,3.79-1.9,6.16-.53,2.35-1.04,4.96-1.47,7.8-.39,2.86-.96,5.85-1.52,9-.29,1.57-.58,3.18-.91,4.8-.38,1.6-.77,3.22-1.2,4.86,7.95-13.34,15.27-26.99,21.13-41.28,5.82-14.28,10.24-29.18,12.4-44.5-3.54,11.98-8.79,22.93-15.94,31.88,3.63-13.61,7.94-25.58,11.18-38.11l1.19-4.71c.38-1.58.64-3.17.96-4.77.29-1.61.59-3.22.88-4.83.22-1.62.39-3.26.57-4.91.16-1.65.35-3.32.44-5,.04-1.69.06-3.39.05-5.11-.01-1.72-.03-3.46-.11-5.21-.16-1.76-.35-3.53-.58-5.32,3.14,15.33,3.6,30.84,1.36,46.1l.52-1.69.43-1.71c.28-1.15.56-2.29.83-3.45.27-1.16.54-2.32.81-3.49.28-1.17.43-2.35.64-3.53.39-2.37.81-4.76,1.13-7.17.24-2.42.48-4.85.72-7.29.66-9.8.77-19.88.09-30.01,3.1,9.47,3.84,19.16,3.67,28.64-.4,9.49-2.05,18.78-4.15,27.88-.54,2.27-1.18,4.53-1.73,6.79l-.84,3.39-.96,3.37c-.64,2.25-1.19,4.51-1.81,6.76-.66,2.25-1.28,4.51-1.84,6.79-2.46,9.08-4.43,18.42-5.85,28.56.73-1.96,1.48-3.91,2.26-5.85l2.16-5.88c1.55-3.89,2.88-7.84,4.4-11.72-.66,2.02-1.32,4.05-1.98,6.07l-.49,1.52-.56,1.5-1.12,3c-.76,1.99-1.45,4.01-2.27,5.98-.83,1.97-1.65,3.93-2.48,5.89.02-.16.06-.35.07-.51-4.56,11.97-9.28,23.93-14.26,35.63-1.29,2.9-2.47,5.85-3.78,8.71-1.3,2.88-2.6,5.74-3.88,8.57-1.35,2.81-2.69,5.6-4.02,8.36-.33.69-.66,1.39-.99,2.08-.35.68-.7,1.35-1.04,2.03-.69,1.35-1.38,2.7-2.07,4.04,1.62-2.33,3.34-4.58,4.92-6.9,1.59-2.31,3.2-4.6,4.82-6.86,1.61-2.27,3.12-4.59,4.7-6.85.79-1.13,1.58-2.27,2.36-3.4.75-1.15,1.51-2.3,2.26-3.45,6.15-9.1,11.84-18.39,17.11-27.95,5.31-9.54,9.92-19.51,13.76-29.92l1.41-3.93c.48-1.31.93-2.63,1.31-3.97.8-2.68,1.58-5.37,2.34-8.08,1.3-5.48,2.58-11.02,3.3-16.73.2-1.89.51-3.77.61-5.68l.39-5.69c.33-3.78.25-7.59.32-11.36.04,3.85.15,7.69-.18,11.47-.14,1.89-.28,3.78-.43,5.66-.13,1.89-.46,3.74-.71,5.59-3.07,26.19-11.41,51.65-23.37,74.93-11.94,23.33-27.18,44.74-44.53,63.94-8.66,9.62-17.76,18.8-27.34,27.4-2.34,2.2-4.8,4.28-7.23,6.39-2.43,2.1-4.84,4.22-7.35,6.22-2.49,2.02-4.96,4.07-7.47,6.06l-7.61,5.86c-1.26.99-2.54,1.94-3.84,2.87l-3.88,2.82-3.87,2.82c-1.3.93-2.63,1.82-3.94,2.73-2.64,1.8-5.24,3.65-7.89,5.42l-8,5.23c-1.32.88-2.67,1.74-4.03,2.57l-4.06,2.52c-2.7,1.68-5.39,3.37-8.14,4.96l-8.2,4.84-8.3,4.65c-2.6,1.9-5.29,3.67-7.99,5.47,3.79.72,7.55,1.42,11.08,2.09,18.54-10.58,36.66-22.17,54.09-34.87l6.48-4.84,3.25-2.42,3.18-2.51,6.38-5.01,6.26-5.16c4.22-3.4,8.23-7.04,12.34-10.58,2.05-1.78,4-3.66,6.01-5.48,1.99-1.85,4.03-3.64,5.95-5.56l5.85-5.68c1.97-1.88,3.81-3.88,5.73-5.81,3.85-3.85,7.49-7.91,11.19-11.91,7.23-8.16,14.35-16.47,20.92-25.24l2.5-3.26c.82-1.1,1.6-2.22,2.41-3.33,1.6-2.23,3.2-4.46,4.79-6.69,3.02-4.59,6.2-9.08,9.02-13.81,1.43-2.35,2.96-4.65,4.31-7.06,1.37-2.4,2.74-4.79,4.11-7.19,1.38-2.39,2.6-4.88,3.91-7.32l1.93-3.68c.64-1.23,1.21-2.49,1.81-3.74Z"/>
        </g>
    </g>
    <g class="cls-3">
        <g class="cls-3">
            <path class="cls-4" d="M350.08,940.39c-9.64-2.14-17.77-9.19-26.28-14.28-8.51-5.06-17.41-8.12-28.23-2.09-2.33,1.06-4.73,2.33-7.17,3.68l2.26,2.23c17.02,17.17,37.66,28.32,59.69,32.07,14.63-.4,32.37-7.52,45.62.28,1.47.86,4.51-6.06,6.02-9.51.41-5.04,1.16-10.4,2.02-15.76-13.16-.87-27.1.76-39.21-3.44-3.75-2.11-12.51,8.05-14.74,6.82Z"/>
            <path class="cls-2" d="M404.13,938.09c.06-.36.12-.71.17-1.06-.67-.04-1.33-.08-1.99-.12.6.39,1.21.78,1.81,1.17Z"/>
            <path class="cls-5" d="M371.55,937.36c-4.67.57-8.62-.52-12.29-2.34-3.73,2.34-7.77,6.16-9.18,5.37-9.64-2.14-17.77-9.19-26.28-14.28-8.51-5.06-17.41-8.12-28.23-2.09-2.31,1.06-4.68,2.3-7.09,3.65.82.79,1.63,1.58,2.43,2.4,2.95,2.96,6,5.75,9.16,8.36,3.16,2.59,6.4,5,9.73,7.23.53-.22,1.06-.44,1.57-.67,5.78-3.31,7.47,3.99,11.18,5.99,12.5.36,19.98,8.76,32.44,9.33,4.4.32,11.73-6.29,16.16-3.75,1.67.46,3.1,1.35,4.39,2.52,7.36-.66,14.52-.27,20.68,3.36,1.47.86,4.51-6.06,6.03-9.52.21-2.65.54-5.4.92-8.18-4.81-3.55-10.3-5.41-15.6-8.11-5.47-.11-10.91-.33-16.09-1.33-.04.71-.03,1.4.08,2.06Z"/>
            <path class="cls-2" d="M375.17,926.48c-.65-.36-3.45,4.44-3.7,8.82,5.18,1,10.62,1.22,16.09,1.33-4.44-2.29-8.76-5.11-12.39-10.15Z"/>
            <path class="cls-1" d="M385.38,902.09c-4.21-3.44-9.53-3.7-14.45-4.29-4.94-.56-9.47-1.47-12.26-6.17-3.11-4.46-5.32-11.22-6.47-19.47-1.41-.33-2.79-.69-4.14-1.12-17.65-2.99-34.95-6.6-51.67-11.76-4.18-1.3-8.33-2.66-12.43-4.18-2.05-.75-4.1-1.52-6.13-2.33l-.76-.3c-.15-.07-.14-.1-.22-.15l-.35-.25c-.24-.16-.45-.35-.66-.53-1.67-1.48-2.63-3.35-1.79-5.4-.02-.54-.53-.57-1.74-.3-1.18.26-3.12.85-5.53,1.15-1.72.21-3.55.19-5.19.05-1.65-.15-3.2-.4-4.62-.8-2.82-.78-5.34-2.36-6.95-4.81.16-2.53,3.48-4.96,7.26-6.26,3.81-1.36,8.1-1.68,11.16-1.59.07,0,.13.01.19,0l.3-.16.58-.33c.38-.22.75-.44,1.11-.67.72-.46,1.41-.94,2.06-1.43,1.3-.99,2.45-2.06,3.46-3.2,2.03-2.27,3.55-4.81,4.64-7.59,2.22-5.53,2.82-11.97,2.82-18.85,0-13.76-2.42-29.43.48-42.97,1.56-7.28-22.95-24.96-24.12-23.67-7.13,21.78-18.86,39.49-30.7,57.28l-4.43,6.67-2.2,3.35-2.34,3.63c-2.11,3.36-4.17,6.72-6.2,10.13-2.05,3.4-4.05,6.82-5.98,10.26-.96,1.72-1.96,3.44-2.86,5.16-.86,1.72-1.72,3.44-2.59,5.16l-1.26,2.58-.62,1.29c-.23.43-.3.84-.46,1.26-.54,1.67-1.08,3.33-1.62,5l-.77,2.49c-.11.41-.28.84-.35,1.22l-.19,1.15c-.24,1.53-.47,3.05-.71,4.58-.53,3.11-.64,5.81-.37,8.75.16,1.92.45,3.94,1.14,6.01.16.51.37,1.03.57,1.54.25.5.48,1,.77,1.48.48,1,1.15,1.9,1.82,2.73,1.55,1.77,3.2,3.16,4.95,4.3.87.57,1.75,1.1,2.64,1.6l1.35.74,1.5.71c1.99.96,3.95,1.92,5.87,2.9l2.85,1.49,1.41.76.7.38c.23.13.45.26.76.36,4.53,1.67,8.94,3.45,13.31,5.35,1.07.49,2.23.93,3.36,1.39l3.41,1.4c2.27.95,4.55,1.93,6.84,2.95,2.29,1.02,4.59,2.09,6.91,3.21l3.5,1.72.22.11.15.09.29.17.58.35,1.15.7c3.07,1.89,6.07,3.93,9.03,6.09,5.9,4.3,11.57,9.16,17,14.51,2.43-1.35,4.83-2.62,7.17-3.68,10.82-6.03,19.72-2.96,28.23,2.09,8.51,5.09,16.64,12.14,26.28,14.28,2.23,1.23,10.99-8.93,14.74-6.82,12.11,4.2,26.05,2.57,39.21,3.44,1.79-11.21,4.05-22.45,4.64-31.05-8.87,1.21-17.51,2.08-23.28-3.88Z"/>
            <path class="cls-6" d="M385.38,902.09c5.78,5.96,14.41,5.08,23.28,3.88.29-4.22.17-7.81-.61-10.41-5.77-11.39-14.92-16.14-25-18.57-10.09-2.44-21.1-2.56-30.85-4.83,1.15,8.24,3.36,15.01,6.47,19.47,2.79,4.71,7.33,5.62,12.26,6.17,4.92.59,10.23.84,14.45,4.29Z"/>
            <path class="cls-5" d="M385.38,902.09c5.52,5.68,13.62,5.16,22.07,4.04-1.71-2.48-3.69-4.39-5.93-5.67-11.46-6.53-24.38-9.47-33.85-21.02,12.92,5.22,25.76,10.58,39.44,14.05-6.03-10.21-15.09-14.41-24.94-16.62-9.86-2.2-20.5-2.39-29.95-4.61,1.16,8.2,3.37,14.93,6.46,19.38,2.79,4.71,7.33,5.62,12.26,6.17,4.92.59,10.23.84,14.45,4.29Z"/>
            <path class="cls-7" d="M364.16,898.9c13.14,9.24,26.72,16.99,43.56,17.48.43-2.89.8-5.64,1.03-8.19-.41-.74-.85-1.41-1.31-2.07-8.44,1.12-16.55,1.64-22.07-4.04-4.21-3.44-9.53-3.7-14.45-4.29-4.94-.56-9.47-1.47-12.26-6.17-3.1-4.45-5.31-11.18-6.46-19.38-1.32-.32-2.61-.67-3.88-1.07-18.03-3.06-35.68-6.77-52.73-12.11-4.42,1.03-8.68,1.36-12.8,1.07-2.06-.15-4.09-.42-6.08-.84-.5-.11-1-.22-1.49-.34l-.74-.17c-.4-.09-.8-.2-1.18-.36-3.08-1.24-5.08-4.23-4.25-7.45,1.78.83,4.35,1.17,6.73.52-1.61-1.47-2.53-3.3-1.74-5.3-.02-.56-.55-.57-1.8-.3-1.22.27-3.23.9-5.7,1.19l-.31.03c-4.85,1.95-9.5,3.58-13.28,4.47-3.78.91-6.62,1.05-7.69.39-1.65-1.03-1.47-2.47-1.83-3.8-.34-1.38-1.28-2.71-4.18-4.37.47-.56,7.24-.9,8.05-1.79-1.15,1.27-.9,2.4.58,3.11,1.47.71,4.16,1,7.76.8-2.33-.85-4.36-2.31-5.73-4.38.11-1.97,2.21-3.94,4.92-5.29,2.72-1.38,6.06-2.17,9.05-2.46-.06-.36-.09-.72-.08-1.07,0-.44-.1-.96-.29-1.54-.08-.32-.25-.57-.33-1,0-.58,0-1.17-.04-1.77-.13-2.42-.52-5.02-1.03-7.7-1.06,1.27-2.13,2.56-3.26,3.9-1.53-4.02.66-6.66,2.31-8.62.32,1.58.63,3.15.94,4.72,2.55-3.03,5-5.94,7.72-9.17-3.31,3.9-3.44,9.9-2.99,15.21,4.4-8.19,6.76-16.79,16.01-21.75.16.38.32.75.48,1.12.71-14.81-2.64-32.47.58-47.54,1.57-7.27-22.94-24.97-24.12-23.66-4.98,15.22-12.19,28.43-20.13,41.09-3.96,6.33-8.12,12.51-12.24,18.73-2.06,3.11-4.12,6.21-6.14,9.35l-2,3.15-2.18,3.53c-1.43,2.37-2.86,4.74-4.29,7.11,6.53-2.94,12.54-5.16,18.04-6.81,1.64-.82,3.55-1.27,6.17-1.25-2.02.45-4.06.81-6.17,1.25-2.43,1.45-4.28,3.54-6.24,5.68-1.97,2.15-4.08,4.33-7.25,6.37-2.53.34-4.82,3.55.27,5.78-4.4,2.84-6.44,6.72-8.49,10.43-.25.47-.54.94-.75,1.4l-.64,1.38c-.44.92-.92,1.83-1.48,2.74-.56.91-1.19,1.82-1.94,2.74-.74.91-1.67,1.87-2.53,2.74-.18.4-2.27,1.28-4.69,2.39-.33,2.13-.68,4.26-.92,6.32-.14,1.99-.17,3.96.07,6,.17,1.87.48,3.84,1.18,5.84.33,1,.77,2,1.33,2.94.48.97,1.13,1.86,1.78,2.68,1.81,2.07,3.78,3.61,5.85,4.86,1.03.64,2.06,1.22,3.13,1.79,1.17.56,2.33,1.12,3.49,1.68,2.3,1.12,4.55,2.26,6.76,3.43l1.65.88.82.45c.31.13.66.25.98.37,1.31.5,2.63,1,3.94,1.5,10.22,4.25,20.87,8.29,31.74,13.72-5.45-5.53-9.59-10.97-11.26-16.96-.73-4.64-4.83-6.14-11.14-6.96-.78-.1-1.6-.2-2.45-.28-.43-.04-.85-.08-1.29-.12-.41-.05-.83-.1-1.24-.15-1.7-.21-3.43-.42-5.17-.64-1.75-.23-3.52-.49-5.24-.8-.86-.15-1.71-.32-2.54-.5-.84-.18-1.64-.36-2.36-.58-1.93-.19-1.84-1.29-1.52-2.48.32-1.2.86-2.45,0-3.38,2.72-.11,5.2-.27,7.43-.4.29-.02.54-.02.84-.05l.92-.11c.57-.06,1.15-.12,1.73-.18,1.11-.11,2.11-.18,3.04-.21,3.7-.14,6.12.42,8.22,1.33,2.09.9,3.89,2.16,5.96,3.3,2.06,1.13,4.39,2.13,7.18,2.38,3.47.61,6.53,2.14,9.88,4.14,3.3,1.99,7.08,4.52,10.75,6.71,7.42,4.43,15.27,7.83,24.1,4.93,7.36-2.57,10.81,5.48,13.4,13.18-2.86,2.74-5.91,1.16-7.44.38-6.88-3.53-13.8-7.02-20.9-10.04-3.55-1.49-7.14-2.89-10.8-4.1-.92-.3-1.83-.59-2.76-.87-.93-.28-1.8-.53-2.94-.85-2.16-.6-4.34-1.16-6.59-1.66,1.8,1.61,3.77,3.11,5.87,4.5l.79.52c.26.17.44.31.66.46l1.28.88c.86.57,1.72,1.12,2.58,1.65,3.46,2.13,7,3.96,10.52,5.83,7.02,3.77,13.95,7.8,19.85,15.06-8.99-2.52-14.85-13.89-25.7-8.8.25,1.59.57,3.03.92,4.41,5.17,3.92,10.16,8.23,14.96,12.96,2.41-1.35,4.78-2.59,7.09-3.65,10.82-6.03,19.72-2.96,28.23,2.09,8.51,5.09,16.64,12.14,26.28,14.28,1.42.79,5.46-3.02,9.18-5.37-5.73-2.79-10.79-7.28-16.8-9.45,1.76,2.63,3.15,5.92,3.84,10.59-5.95-1.11-7.66-10.6-13.65-11.68,3.63-.55,6.83,0,9.81,1.09-2.64-3.94-6.09-6.34-9.32-9.34,4.78-1.69,7.51,1.87,10.37,5.03,2.87,3.15,5.87,5.89,11.33,2.63-1.6-.51-3.08-1.32-4.39-2.57,1.51.83,3.02,1.67,4.53,2.5-.04.03-.09.04-.13.07,4.91,1.52,10.92.02,16.54-1.69-8.39-2.85-13.12-13.1-21.47-15.73-1.44-.26-2.9-.48-4.38-.62,1.57-.05,3.02.2,4.38.62,19.97,3.74,35.48,19.42,52.4,30.44.66.04,1.32.08,1.99.12.42-2.55.84-5.09,1.23-7.51-14.52-8.2-28.52-18.49-41.38-30.62Z"/>
        </g>
    </g>
</svg>