<svg height="200px" width="200px" version="1.1" id="Layer_1" xmlns="http://www.w3.org/2000/svg" xmlns:xlink="http://www.w3.org/1999/xlink" viewBox="0 0 512 512" xml:space="preserve" fill="#000000"><g id="SVGRepo_bgCarrier" stroke-width="0"></g><g id="SVGRepo_tracerCarrier" stroke-linecap="round" stroke-linejoin="round"></g><g id="SVGRepo_iconCarrier"> <path style="fill:#CFF09E;" d="M26.911,162.97l129.243,129.243c17.576,17.576,46.071,17.576,63.646,0l72.399-72.399 c17.576-17.576,17.576-46.071,0-63.646L162.957,26.925c-17.576-17.576-46.071-17.576-63.646,0L26.911,99.324 C9.335,116.899,9.335,145.395,26.911,162.97z M225.39,208.883l-16.52,16.52c-11.538,11.538-30.246,11.538-41.786,0L93.72,152.039 c-11.538-11.538-11.538-30.246,0-41.786l16.52-16.52c11.538-11.538,30.246-11.538,41.786,0l73.364,73.364 C236.928,178.637,236.928,197.345,225.39,208.883z"></path> <g> <path style="fill:#507C5C;" d="M187.976,319.138c-15.691,0-30.444-6.11-41.541-17.207L17.192,172.688l0,0 c-22.905-22.906-22.905-60.175,0-83.081l72.401-72.401C100.687,6.11,115.441,0,131.133,0s30.444,6.11,41.541,17.207L301.917,146.45 c22.905,22.906,22.905,60.176,0,83.083l-72.401,72.399C218.422,313.027,203.668,319.138,187.976,319.138z M36.627,153.253 l129.244,129.243c5.904,5.905,13.755,9.157,22.105,9.157s16.201-3.252,22.105-9.157l72.399-72.399 c12.19-12.188,12.19-32.023,0-44.212L153.238,36.642c-5.904-5.905-13.755-9.157-22.105-9.157s-16.201,3.252-22.105,9.157 l-72.399,72.401C24.44,121.231,24.44,141.063,36.627,153.253L36.627,153.253z M187.976,247.78 c-11.085,0-22.171-4.219-30.609-12.658l-73.364-73.364c-16.879-16.879-16.879-44.343,0-61.222l16.519-16.52 c8.177-8.176,19.047-12.68,30.61-12.68c11.563,0,22.434,4.503,30.61,12.68l73.364,73.364c16.879,16.879,16.879,44.342,0,61.221 l-16.52,16.52C210.148,243.56,199.061,247.78,187.976,247.78z M131.133,98.822c-4.222,0-8.191,1.644-11.176,4.63l-16.519,16.52 c-6.162,6.161-6.162,16.189,0,22.351l73.364,73.364c6.159,6.159,16.188,6.162,22.35,0l16.52-16.52l0,0 c6.162-6.161,6.162-16.188,0-22.35l-73.364-73.364C139.323,100.466,135.354,98.822,131.133,98.822z"></path> <path style="fill:#507C5C;" d="M380.866,512c-15.044,0-30.088-5.727-41.541-17.178L210.082,365.579 c-5.367-5.367-5.367-14.068,0-19.436c5.367-5.365,14.068-5.365,19.436,0l129.243,129.243c12.188,12.188,32.022,12.188,44.21,0 l72.401-72.401c12.188-12.188,12.188-32.022,0-44.21L346.129,229.532c-5.367-5.367-5.367-14.068,0-19.436 c5.368-5.365,14.067-5.365,19.436,0l129.243,129.243c22.905,22.906,22.905,60.175,0,83.081l-72.401,72.401 C410.953,506.273,395.91,512,380.866,512z M380.866,440.669c-11.085,0-22.171-4.219-30.61-12.658l-73.364-73.364 c-16.876-16.879-16.876-44.342,0-61.22l16.52-16.521c16.88-16.875,44.342-16.877,61.22,0c5.368,5.367,5.368,14.067,0.001,19.435 c-5.365,5.368-14.068,5.369-19.435,0.001c-6.164-6.161-16.19-6.158-22.352,0l-16.52,16.52c-6.161,6.161-6.161,16.188,0,22.351 l73.364,73.363c6.162,6.162,16.187,6.162,22.351,0l16.52-16.52c6.162-6.161,6.162-16.189,0-22.351 c-5.367-5.367-5.367-14.068,0-19.436c5.368-5.365,14.067-5.365,19.436,0c16.879,16.879,16.879,44.344,0,61.222l-16.52,16.52 C403.037,436.45,391.951,440.669,380.866,440.669z"></path> <path style="fill:#507C5C;" d="M378.767,146.989c-3.518,0-7.034-1.343-9.717-4.025c-5.367-5.367-5.367-14.068,0-19.436 l24.621-24.621c5.368-5.365,14.067-5.365,19.436,0c5.367,5.367,5.367,14.068,0,19.436l-24.621,24.621 C385.801,145.646,382.284,146.989,378.767,146.989z"></path> <path style="fill:#507C5C;" d="M440.314,198.183c-0.082,0-0.161,0-0.243-0.003l-38.233-0.66 c-7.587-0.131-13.634-6.388-13.502-13.978c0.129-7.508,6.257-13.505,13.734-13.505c0.082,0,0.161,0,0.243,0.003l38.234,0.66 c7.587,0.131,13.634,6.388,13.502,13.978C453.919,192.186,447.791,198.183,440.314,198.183z"></path> <path style="fill:#507C5C;" d="M328.227,123.681c-7.479,0-13.605-5.997-13.734-13.505l-0.66-38.233 c-0.132-7.589,5.915-13.847,13.502-13.978c0.081-0.003,0.162-0.003,0.243-0.003c7.479,0,13.605,5.997,13.734,13.505l0.66,38.234 c0.132,7.589-5.915,13.847-13.502,13.978C328.39,123.681,328.308,123.681,328.227,123.681z"></path> <path style="fill:#507C5C;" d="M108.611,417.145c-3.517,0-7.035-1.343-9.717-4.025c-5.367-5.367-5.367-14.068,0-19.436 l24.621-24.621c5.367-5.365,14.068-5.365,19.436,0c5.367,5.367,5.367,14.068,0,19.436L118.33,413.12 C115.645,415.803,112.128,417.145,108.611,417.145z"></path> <path style="fill:#507C5C;" d="M109.929,341.991c-0.081,0-0.161,0-0.242-0.003l-38.235-0.66 c-7.589-0.131-13.634-6.388-13.504-13.978c0.129-7.508,6.257-13.505,13.736-13.505c0.081,0,0.161,0,0.242,0.003l38.235,0.66 c7.589,0.131,13.634,6.388,13.504,13.978C123.536,335.992,117.408,341.991,109.929,341.991z"></path> <path style="fill:#507C5C;" d="M184.421,454.065c-7.48,0-13.607-5.997-13.736-13.505l-0.66-38.233 c-0.131-7.589,5.915-13.847,13.504-13.978c0.081-0.003,0.162-0.003,0.242-0.003c7.48,0,13.607,5.997,13.736,13.505l0.66,38.233 c0.131,7.589-5.915,13.847-13.504,13.978C184.583,454.065,184.502,454.065,184.421,454.065z"></path> </g> </g></svg>